<svg width="34" height="26" viewBox="0 0 34 26" fill="none" xmlns="http://www.w3.org/2000/svg">
    <g clip-path="url(#clip0_4469_2425)">
        <path fill-rule="evenodd" clip-rule="evenodd" d="M0 0H48.45V2.00417H0V0ZM0 4.00292H48.45V6.00708H0V4.00292ZM0 8.00042H48.45V10.0046H0V8.00042ZM0 11.9979H48.45V14.0021H0V11.9979ZM0 16.0063H48.45V17.9996H0V16.0063ZM0 19.9983H48.45V22.0025H0V19.9983ZM0 23.9958H48.45V26H0V23.9958Z"
            fill="#BD3D44" />
        <path fill-rule="evenodd" clip-rule="evenodd" d="M0 2.00415H48.45V4.0029H0V2.00415ZM0 6.00165H48.45V8.0004H0V6.00165ZM0 9.99915H48.45V12.0033H0V9.99915ZM0 14.0021H48.45V16.0062H0V14.0021ZM0 17.9996H48.45V20.0037H0V17.9996ZM0 21.9971H48.45V24.0012H0V21.9971Z" fill="white" />
        <path fill-rule="evenodd" clip-rule="evenodd" d="M0 0H19.38V14.0021H0V0Z" fill="#192F5D" />
        <path fill-rule="evenodd" clip-rule="evenodd"
            d="M1.6143 0.595856L1.79492 1.15377H2.35805L1.90117 1.49502L2.07648 2.05294L1.6143 1.70627L1.15742 2.04752L1.32742 1.49502L0.865234 1.15377H1.4443L1.6143 0.595856ZM4.8443 0.595856L5.01961 1.15377H5.59336L5.13117 1.49502L5.30117 2.05294L4.8443 1.70627L4.38211 2.04752L4.55742 1.49502L4.10055 1.15377H4.66367L4.8443 0.595856ZM8.0743 0.595856L8.24961 1.15377H8.81805L8.36117 1.49502L8.53648 2.05294L8.0743 1.70627L7.61211 2.04752L7.78742 1.49502L7.32523 1.15377H7.89898L8.0743 0.595856ZM11.3043 0.595856L11.4796 1.15377H12.0534L11.5912 1.49502L11.7665 2.05294L11.3043 1.70627L10.8421 2.04752L11.0227 1.49502L10.5552 1.15377H11.1237L11.3043 0.595856ZM14.5343 0.595856L14.7096 1.15377H15.278L14.8212 1.49502L14.9965 2.05294L14.5343 1.70627L14.0721 2.04752L14.2474 1.49502L13.7905 1.15377H14.359L14.5343 0.595856ZM17.7643 0.595856L17.9396 1.15377H18.5134L18.0459 1.49502L18.2265 2.05294L17.7643 1.70627L17.3021 2.04752L17.4827 1.49502L17.0152 1.15377H17.589L17.7643 0.595856ZM3.2293 2.00419L3.40461 2.55669H3.98367L3.52148 2.89252L3.69148 3.45044L3.23992 3.10919L2.77773 3.45044L2.94242 2.89252L2.49617 2.55669H3.06461L3.2293 2.00419ZM6.4593 2.00419L6.63992 2.55669H7.20836L6.74086 2.89252L6.92148 3.45044L6.4593 3.10919L5.99711 3.45044L6.17242 2.89252L5.71023 2.55669H6.28398L6.4593 2.00419ZM9.6893 2.00419L9.86461 2.55669H10.4384L9.97617 2.89252L10.1515 3.45044L9.6893 3.10919L9.22711 3.45044L9.40242 2.89252L8.94555 2.55669H9.50867L9.6893 2.00419ZM12.9193 2.00419L13.0999 2.55669H13.6684L13.2009 2.89252L13.3815 3.45044L12.9193 3.10919L12.4624 3.45044L12.6324 2.89252L12.1702 2.55669H12.7493L12.9193 2.00419ZM16.1493 2.00419L16.3246 2.55669H16.8984L16.4362 2.89252L16.6115 3.45044L16.1493 3.10919L15.6871 3.45044L15.8624 2.89252L15.4055 2.55669H15.974L16.1493 2.00419ZM1.6143 3.39086L1.79492 3.95419H2.35805L1.90117 4.29544L2.07648 4.84794L1.6143 4.50669L1.15742 4.84794L1.32742 4.29544L0.865234 3.95419H1.4443L1.6143 3.39086ZM4.8443 3.39086L5.01961 3.95419H5.59336L5.13117 4.29544L5.30117 4.84794L4.8443 4.50669L4.38211 4.84794L4.55742 4.29002L4.10055 3.94877H4.66367L4.8443 3.39086ZM8.0743 3.39086L8.24961 3.94877H8.81805L8.36117 4.29002L8.53648 4.84252L8.0743 4.50127L7.61211 4.84252L7.78742 4.28461L7.32523 3.94336H7.89898L8.0743 3.39086ZM11.3043 3.39086L11.4796 3.94877H12.0534L11.5912 4.29002L11.7665 4.84252L11.3043 4.50127L10.8421 4.84252L11.0227 4.28461L10.5552 3.94336H11.1237L11.3043 3.39086ZM14.5343 3.39086L14.7096 3.94877H15.278L14.8212 4.29002L14.9965 4.84252L14.5343 4.50127L14.0721 4.84252L14.2474 4.28461L13.7905 3.94336H14.359L14.5343 3.39086ZM17.7643 3.39086L17.9396 3.94877H18.5134L18.0459 4.29002L18.2265 4.84252L17.7643 4.50127L17.3021 4.84252L17.4827 4.28461L17.0152 3.94336H17.589L17.7643 3.39086ZM3.2293 4.79919L3.40461 5.35169H3.98367L3.52148 5.69294L3.6968 6.25086L3.23461 5.90419L2.77242 6.24544L2.94773 5.69294L2.49086 5.35169H3.0593L3.2293 4.79919ZM6.4593 4.79919L6.63992 5.35169H7.20836L6.74086 5.69294L6.92148 6.25086L6.4593 5.90419L5.99711 6.24544L6.17242 5.69294L5.71023 5.35169H6.28398L6.4593 4.79919ZM9.6893 4.79919L9.86461 5.35169H10.4384L9.97617 5.69294L10.1515 6.25086L9.6893 5.90419L9.22711 6.24544L9.40242 5.69294L8.94555 5.35169H9.50867L9.6893 4.79919ZM12.9193 4.79919L13.0999 5.35169H13.6684L13.2062 5.69294L13.3815 6.25086L12.9193 5.90419L12.4624 6.24544L12.6324 5.69294L12.1702 5.35169H12.7493L12.9193 4.79919ZM16.1493 4.79919L16.3246 5.35169H16.8984L16.4362 5.69294L16.6115 6.25086L16.1493 5.90419L15.6871 6.24544L15.8624 5.69294L15.4055 5.35169H15.974L16.1493 4.79919ZM1.6143 6.20211L1.79492 6.75461H2.35805L1.90117 7.09586L2.07648 7.65377L1.6143 7.30711L1.15742 7.64836L1.32742 7.09586L0.865234 6.75461H1.4443L1.6143 6.20211ZM4.8443 6.20211L5.01961 6.75461H5.59336L5.13117 7.09586L5.30117 7.64836L4.8443 7.30711L4.38211 7.64836L4.55742 7.09586L4.10055 6.75461H4.66367L4.8443 6.20211ZM8.0743 6.20211L8.24961 6.75461H8.81805L8.36117 7.09586L8.53648 7.65377L8.0743 7.30711L7.61211 7.64836L7.78742 7.09586L7.32523 6.75461H7.89898L8.0743 6.20211ZM11.3043 6.20211L11.4796 6.75461H12.0534L11.5912 7.09586L11.7665 7.65377L11.3043 7.30711L10.8421 7.64836L11.0227 7.09586L10.5552 6.75461H11.1237L11.3043 6.20211ZM14.5343 6.20211L14.7096 6.75461H15.278L14.8212 7.09586L14.9965 7.65377L14.5343 7.30711L14.0721 7.64836L14.2474 7.09586L13.7905 6.75461H14.359L14.5343 6.20211ZM17.7643 6.20211L17.9396 6.75461H18.5134L18.0459 7.09586L18.2265 7.65377L17.7643 7.30711L17.3021 7.64836L17.4774 7.09586L17.0099 6.75461H17.5837L17.7643 6.20211ZM3.2293 7.59961L3.40461 8.15752H3.98367L3.52148 8.49336L3.6968 9.05127L3.23461 8.70461L2.77242 9.05127L2.94773 8.49336L2.49086 8.15211H3.0593L3.2293 7.59961ZM6.4593 7.59961L6.63992 8.15752H7.20836L6.74086 8.49336L6.92148 9.05127L6.4593 8.70461L5.99711 9.05127L6.17242 8.49336L5.71023 8.15211H6.28398L6.4593 7.59961ZM9.6893 7.59961L9.86461 8.15752H10.4384L9.97617 8.49336L10.1515 9.05127L9.6893 8.70461L9.22711 9.05127L9.40242 8.49336L8.94555 8.15211H9.50867L9.6893 7.59961ZM12.9193 7.59961L13.0999 8.15752H13.6684L13.2062 8.49336L13.3815 9.05127L12.9193 8.70461L12.4624 9.05127L12.6324 8.49336L12.1702 8.15211H12.7493L12.9193 7.59961ZM16.1493 7.59961L16.3246 8.15752H16.8984L16.4362 8.49336L16.6115 9.05127L16.1493 8.70461L15.6871 9.05127L15.8624 8.49336L15.4055 8.15211H15.974L16.1493 7.59961ZM1.6143 8.99711L1.79492 9.55502H2.35805L1.90117 9.89627L2.07648 10.4434L1.6143 10.1075L1.15742 10.4434L1.32742 9.89086L0.865234 9.54961H1.4443L1.6143 8.99711ZM4.8443 8.99711L5.01961 9.55502H5.59336L5.13117 9.89627L5.30648 10.4434L4.8443 10.1075L4.38211 10.4434L4.56273 9.89086L4.10055 9.54961H4.66367L4.8443 8.99711ZM8.0743 8.99711L8.24961 9.55502H8.81805L8.36117 9.89627L8.53648 10.4434L8.0743 10.1075L7.61211 10.4434L7.78742 9.89086L7.32523 9.54961H7.89898L8.0743 8.99711ZM11.3043 8.99711L11.4796 9.55502H12.0534L11.5912 9.89627L11.7665 10.4434L11.3043 10.1075L10.8421 10.4434L11.0227 9.89086L10.5552 9.54961H11.1237L11.3043 8.99711ZM14.5343 8.99711L14.7096 9.55502H15.278L14.8212 9.89627L14.9965 10.4434L14.5343 10.1075L14.0721 10.4434L14.2474 9.89086L13.7905 9.54961H14.359L14.5343 8.99711ZM17.7643 8.99711L17.9396 9.55502H18.5134L18.0459 9.89627L18.2265 10.4434L17.7643 10.1075L17.3021 10.4434L17.4827 9.89086L17.0152 9.54961H17.589L17.7643 8.99711ZM3.2293 10.4L3.40461 10.9525H3.98367L3.52148 11.2938L3.6968 11.8517L3.23461 11.505L2.77242 11.8463L2.94773 11.2938L2.49086 10.9525H3.0593L3.2293 10.4ZM6.4593 10.4L6.63992 10.9525H7.20836L6.74086 11.2938L6.92148 11.8517L6.4593 11.505L5.99711 11.8463L6.17242 11.2938L5.71023 10.9525H6.28398L6.4593 10.4ZM9.6893 10.4L9.86461 10.9525H10.4384L9.97617 11.2938L10.1515 11.8517L9.6893 11.505L9.22711 11.8463L9.40242 11.2938L8.94555 10.9525H9.50867L9.6893 10.4ZM12.9193 10.4L13.0999 10.9525H13.6684L13.2062 11.2938L13.3815 11.8517L12.9193 11.505L12.4624 11.8463L12.6324 11.2938L12.1702 10.9525H12.7493L12.9193 10.4ZM16.1493 10.4L16.3246 10.9525H16.8984L16.4362 11.2938L16.6115 11.8517L16.1493 11.505L15.6871 11.8463L15.8624 11.2938L15.4055 10.9525H15.974L16.1493 10.4ZM1.6143 11.8029L1.79492 12.3554H2.35805L1.90117 12.6967L2.07648 13.2492L1.6143 12.9079L1.15742 13.2492L1.32742 12.6913L0.865234 12.35H1.4443L1.6143 11.8029ZM4.8443 11.8029L5.01961 12.3554H5.59336L5.13117 12.6967L5.30648 13.2492L4.8443 12.9079L4.38211 13.2492L4.56273 12.6913L4.10055 12.35H4.66367L4.8443 11.8029ZM8.0743 11.8029L8.24961 12.3554H8.81805L8.3718 12.6967L8.54711 13.2492L8.08492 12.9079L7.62273 13.2492L7.79805 12.6913L7.33586 12.35H7.90961L8.0743 11.8029ZM11.3043 11.8029L11.4796 12.3554H12.0534L11.5912 12.6967L11.7665 13.2492L11.3043 12.9079L10.8421 13.2492L11.0227 12.6913L10.5552 12.35H11.1237L11.3043 11.8029ZM14.5343 11.8029L14.7096 12.3554H15.278L14.8212 12.6967L14.9965 13.2492L14.5343 12.9079L14.0721 13.2492L14.2474 12.6913L13.7905 12.35H14.359L14.5343 11.8029ZM17.7643 11.8029L17.9396 12.3554H18.5134L18.0459 12.6967L18.2265 13.2492L17.7643 12.9079L17.3021 13.2492L17.4827 12.6913L17.0152 12.35H17.589L17.7643 11.8029Z"
            fill="white" />
    </g>
    <defs>
        <clipPath id="clip0_4469_2425">
            <rect width="34" height="26" rx="4" fill="white" />
        </clipPath>
    </defs>
</svg>
