<svg width="18" height="17" viewBox="0 0 18 17" fill="none" xmlns="http://www.w3.org/2000/svg">
<path d="M16.5514 6.35678C16.5514 5.64584 15.9036 4.97624 14.9643 4.89563L14.7734 4.88809L14.6269 4.87396C14.2971 4.81085 14.0491 4.53882 14.0491 4.21263C14.0491 3.83969 14.3735 3.53717 14.7734 3.53717L15.0936 3.5513C16.6784 3.69015 18 4.84775 18 6.35678C17.9997 7.9662 16.4961 9.17536 14.7734 9.17544H0.724324C0.324402 9.17544 0 8.87292 0 8.49998C6.0824e-05 8.12708 0.32444 7.82451 0.724324 7.82451H14.7734C15.8144 7.82444 16.5511 7.11476 16.5514 6.35678Z" fill="white"/>
<path d="M16.0917 14.1814C16.0917 13.504 15.8453 13.1815 15.5947 13.0057C15.3082 12.8046 14.8953 12.7127 14.4592 12.7127H0.724324C0.324402 12.7127 0 12.4102 0 12.0372C0 11.6643 0.324402 11.3618 0.724324 11.3618H14.4592C15.0704 11.3618 15.8367 11.484 16.4665 11.9261C17.1321 12.3933 17.5404 13.1438 17.5404 14.1814C17.5402 15.2186 17.132 15.9685 16.4665 16.4357C15.8367 16.8777 15.0704 17 14.4592 17C14.0595 16.9998 13.7359 16.6974 13.7359 16.3246C13.7359 15.9518 14.0595 15.6493 14.4592 15.6491C14.8953 15.6491 15.3082 15.5572 15.5947 15.3561C15.8452 15.1803 16.0916 14.8585 16.0917 14.1814Z" fill="white"/>
<path d="M9.19497 2.8196C9.19497 2.07984 8.56489 1.43604 7.71299 1.35846L7.53923 1.35092L7.39376 1.33679C7.06378 1.27383 6.81592 1.0018 6.81592 0.675462C6.81592 0.30264 7.13949 0.000196353 7.53923 0L7.85341 0.014131C9.40142 0.156299 10.6436 1.33961 10.6436 2.8196C10.6434 4.39817 9.22949 5.63827 7.53923 5.63827H0.724324C0.324402 5.63827 0 5.33575 0 4.96281C6.0824e-05 4.58991 0.32444 4.28734 0.724324 4.28734H7.53923C8.47738 4.28734 9.19472 3.60855 9.19497 2.8196Z" fill="white"/>
</svg>
