<svg width="22" height="21" viewBox="0 0 22 21" fill="none" xmlns="http://www.w3.org/2000/svg">
    <path
        d="M21.1741 15.5432C21.1416 15.5238 21.1092 15.5108 21.0768 15.5011C21.0768 15.4849 21.0768 15.4719 21.0735 15.4524C21.0573 15.3324 20.9925 15.2286 20.8919 15.1605C20.7946 15.0892 20.6746 15.0632 20.5546 15.0859C20.4249 15.1086 20.2206 15.1216 19.9871 15.0341C19.5525 14.8751 18.9006 14.8784 18.68 14.8849C17.9957 14.4859 17.6649 14.1227 17.3179 13.74C17.0552 13.4481 16.7827 13.1497 16.3514 12.8351C16.1762 12.7054 16.0368 12.5595 15.9427 12.4038C15.4789 11.6513 15.3038 10.7011 15.4335 9.64703C15.6606 7.82432 15.0962 7.11081 14.3211 6.72486C13.293 5.95946 13.5687 4.94108 13.7503 4.26648C13.7503 4.26648 13.8671 3.69567 13.8671 3.40054C13.88 1.66216 12.5925 0.238376 10.9935 0.225403C9.39786 0.238376 8.1103 1.66216 8.12327 3.40054C8.12651 3.69567 8.24003 4.26648 8.24003 4.26648C8.42489 4.94432 8.70057 5.96594 7.65949 6.73459C6.89084 7.12378 6.33949 7.8373 6.56327 9.64703C6.67678 10.5486 6.4303 11.5703 5.88867 12.4557C5.75894 12.6697 5.57732 12.8741 5.33732 13.0784C4.80543 13.5324 4.57516 13.9832 4.37408 14.3822C4.14705 14.8297 3.95246 15.2157 3.35894 15.5659C3.33048 15.5825 3.29779 15.5904 3.26489 15.5886C2.96651 15.5822 2.40543 15.5951 2.013 15.7411C1.77949 15.8286 1.57516 15.8157 1.44219 15.793C1.32543 15.7703 1.20543 15.7962 1.10489 15.8643C1.00759 15.9357 0.942728 16.0395 0.923269 16.1595C0.920026 16.1789 0.923269 16.1919 0.920026 16.2081C0.887593 16.2178 0.855161 16.2308 0.822728 16.2503C0.667053 16.3443 0.602188 16.5259 0.624891 16.7886C0.699485 17.5476 1.30921 17.6351 2.17516 17.6351H2.31786C2.45408 17.6351 2.57732 17.6189 2.69732 17.5962C2.56435 18.1313 2.7103 18.6859 3.10922 19.1627C3.63138 19.7822 4.97732 20.7032 8.36003 20.7032C9.05084 20.7032 9.82273 20.6643 10.6919 20.5768C10.8249 20.5638 10.9384 20.4924 11.0195 20.3919C11.36 20.3984 12.2714 20.4308 13.0238 20.6157C13.7762 20.7973 14.5708 20.6968 14.9795 20.6189C15.0703 20.6027 15.1579 20.6092 15.2454 20.6384C15.4984 20.7324 15.7287 20.7746 15.9298 20.7746C16.28 20.7746 16.5362 20.6384 16.666 20.3692C16.7471 20.2038 16.7633 20.0449 16.7081 19.8957C16.6271 19.6686 16.4098 19.5422 16.1925 19.4351C16.7341 19.3735 17.253 19.2957 17.7168 19.2146C18.2876 19.1141 18.7125 18.8481 18.9816 18.4297C19.3125 17.9141 19.3189 17.2849 19.2768 16.8859C19.4033 16.9086 19.5362 16.9281 19.6789 16.9281H19.8184C20.6876 16.9281 21.2973 16.8405 21.3719 16.0816C21.3979 15.8222 21.3298 15.6405 21.1741 15.5432ZM10.9935 0.711889C12.32 0.721619 13.3935 1.92811 13.3806 3.39729C13.3806 3.65027 13.28 4.14 13.28 4.14C13.1373 4.67513 12.8973 5.56378 13.3611 6.38108L13.0011 6.27405C12.1254 6.00811 12.093 5.49243 12.1125 5.31081C12.1546 5.27189 12.1935 5.23297 12.2292 5.18757C12.5568 4.80811 12.7384 4.3054 12.7416 3.76702C12.7433 3.63346 12.7336 3.5 12.7125 3.36811C12.7048 3.32828 12.6879 3.29082 12.6631 3.25871C12.6383 3.22661 12.6063 3.20076 12.5698 3.18324C11.2465 2.6027 11.0908 1.81135 11.0843 1.77243C11.0793 1.74086 11.0681 1.7106 11.0514 1.68338C11.0346 1.65616 11.0127 1.63252 10.9867 1.61383C10.9608 1.59514 10.9315 1.58176 10.9003 1.57447C10.8692 1.56718 10.837 1.56612 10.8054 1.57135C10.6725 1.59081 10.5816 1.71405 10.6011 1.84702C10.6044 1.86 10.6238 1.97027 10.6952 2.13567C10.5492 2.34324 10.1276 2.8427 9.27462 3.01459C9.21178 3.02861 9.15691 3.06665 9.12176 3.12059C9.08661 3.17454 9.07396 3.24009 9.08651 3.30324C9.10597 3.39081 9.16435 3.45567 9.24219 3.48162C9.23246 3.56919 9.22273 3.65675 9.22273 3.74108C9.21949 4.27946 9.39462 4.7854 9.71246 5.16811C9.76759 5.23621 9.82597 5.29459 9.88759 5.34973C9.90381 5.52811 9.8584 6.01459 8.9957 6.27405C8.90165 6.30324 8.65516 6.37459 8.62597 6.38432C9.093 5.56378 8.85624 4.67838 8.7103 4.14C8.7103 4.14 8.613 3.65027 8.60976 3.39729C8.60003 1.92811 9.6703 0.721619 10.9935 0.711889ZM8.90489 11.6741C9.20976 11.82 9.5503 11.8719 9.87462 11.8719C10.2833 11.8719 10.6595 11.7941 10.8898 11.7324C10.9611 11.713 11.0357 11.713 11.1071 11.7324C11.5222 11.8427 12.4043 12.0049 13.0952 11.6741C12.9816 12.5432 12.9525 13.5908 13.1892 14.6189C12.2746 15.0924 9.72219 15.0924 8.80759 14.6189C9.04435 13.5908 9.01516 12.5432 8.90489 11.6741ZM11.2335 11.2622C11.0811 11.22 10.9189 11.22 10.7665 11.2622C10.4325 11.3497 9.32651 11.5832 8.79786 10.9995C8.69084 10.4513 8.57084 10.0232 8.50273 9.80594C8.92435 9.4427 9.20003 9.10216 9.38489 8.81027C9.43354 8.90108 9.49192 8.98865 9.56327 9.06649C10.0206 9.5627 10.8054 9.58865 10.9643 9.58865H11.0227C11.1914 9.58865 11.9762 9.5627 12.4335 9.06649C12.5049 8.98865 12.5633 8.90108 12.6119 8.81027C12.7968 9.10216 13.0757 9.4427 13.4973 9.80594C13.426 10.0232 13.306 10.4513 13.2022 10.9995C12.6703 11.5832 11.5676 11.3497 11.2335 11.2622ZM10.3416 5.65135C10.5362 5.73892 10.7471 5.78757 10.9676 5.79081H10.9773C11.2173 5.79081 11.4443 5.73567 11.6584 5.63513C11.7006 5.82973 11.7979 6.05351 12.0054 6.26108C12.0379 6.42324 12.1384 6.93243 12.2519 7.90865C12.2519 7.91189 12.2552 7.91838 12.2552 7.92486L12.2649 8.01892C12.3006 8.32378 12.2389 8.56054 12.0768 8.73567C11.7265 9.11838 11.013 9.10216 10.9935 9.10216C10.9838 9.10216 10.2735 9.11838 9.92002 8.73567C9.75786 8.56054 9.69948 8.32378 9.73192 8.01892C9.73516 7.98324 9.74165 7.95729 9.74489 7.92162V7.91189C9.8584 6.93243 9.96219 6.42 9.99786 6.26108C10.2022 6.05675 10.2995 5.83946 10.3416 5.65135ZM9.70922 3.74432C9.70922 3.62757 9.72543 3.50757 9.75138 3.38757C10.3546 3.18324 10.7438 2.83946 10.9611 2.58324C11.2011 2.90108 11.5968 3.26432 12.2487 3.57243C12.2552 3.63729 12.2552 3.69892 12.2552 3.76378C12.2519 4.1854 12.1125 4.57784 11.8627 4.86973C11.6195 5.15189 11.3081 5.31405 10.9708 5.30432C10.6368 5.30108 10.3254 5.14216 10.0887 4.85675C9.83894 4.56162 9.70597 4.16594 9.70922 3.74432ZM2.31462 17.1486C1.20219 17.1584 1.13732 17.0157 1.11138 16.74C1.10813 16.7238 1.10813 16.7076 1.10813 16.6946C1.12435 16.7011 1.14057 16.7108 1.15354 16.7205C1.16003 16.7238 1.16651 16.7238 1.173 16.727C1.28327 16.7886 1.42273 16.8243 1.59462 16.8243C1.61084 16.8243 1.62705 16.8211 1.64651 16.8211C1.77949 16.8178 1.88327 16.7043 1.88003 16.5714C1.87678 16.4351 1.76327 16.3346 1.62705 16.3346C1.46813 16.3411 1.40976 16.3086 1.40327 16.2989C1.40327 16.2989 1.40003 16.2892 1.39354 16.2762C1.58489 16.3086 1.86705 16.3151 2.18165 16.1984C2.40867 16.1108 2.81084 16.0686 3.25516 16.0751C3.38165 16.0784 3.50165 16.0459 3.60543 15.9843C4.32219 15.5627 4.56867 15.073 4.80867 14.6027C5.00651 14.2103 5.19462 13.8405 5.65192 13.4481C5.93408 13.2081 6.14813 12.9681 6.30381 12.7086C6.65408 12.1346 7.2184 10.967 7.04651 9.58865C6.77732 7.42216 7.69192 7.15946 8.84651 6.8254C8.94381 6.79946 9.34273 6.66973 9.43354 6.63081C9.38489 6.91946 9.32327 7.33135 9.2584 7.8827C9.2357 8.03189 9.08976 8.63513 8.25624 9.37459C8.06165 9.08919 7.98705 8.81351 7.98381 8.80378C7.95138 8.67405 7.8184 8.59297 7.68867 8.62865C7.55894 8.66108 7.47786 8.79081 7.5103 8.92378C7.51678 8.94324 7.63354 9.40054 7.97408 9.80919C7.94165 10.7076 7.75678 12.8968 7.22813 13.6622C6.62813 14.5346 4.72759 15.8708 3.84543 16.3897C3.75462 16.4449 3.6703 16.513 3.59246 16.5941C3.44003 16.7595 3.01192 17.1422 2.31462 17.1486ZM7.893 15.7313C7.7957 15.9195 7.59462 16.0395 7.37084 16.0459C6.66057 16.0686 5.733 16.1335 4.88651 16.3022C5.83678 15.6568 7.11462 14.6838 7.6303 13.9378C8.02921 13.3605 8.23678 12.2189 8.34705 11.2719C8.55786 12.5011 8.65192 14.2816 7.893 15.7313ZM16.2508 20.0611C16.2606 20.087 16.2379 20.1357 16.2281 20.1584C16.1081 20.4081 15.5698 20.2395 15.4076 20.1811C15.2414 20.1212 15.062 20.1078 14.8887 20.1422C14.5189 20.2103 13.8022 20.3043 13.1406 20.1422C12.4368 19.9703 11.6292 19.9249 11.1914 19.9119C11.253 19.7205 11.3471 19.4903 11.4865 19.3054C12.2811 19.4903 13.1406 19.5714 14.0065 19.5714C14.4703 19.5714 14.9308 19.5486 15.3816 19.513C15.5016 19.6492 15.6865 19.7368 15.8681 19.8211C16.0108 19.8859 16.2249 19.9832 16.2508 20.0611ZM18.5698 18.1703C18.3784 18.4686 18.0638 18.66 17.6325 18.7346C16.1892 18.9908 13.5298 19.3249 11.4898 18.8189C11.4671 18.8092 11.2789 18.767 11.2076 18.7476C11.1525 18.433 11.1719 18.1605 11.2465 18.0146C11.2498 18.0113 11.2498 18.0081 11.253 18.0049C11.5903 18.0211 12.453 18.0438 13.1957 17.8784C13.4065 17.8297 13.6173 17.7649 13.8443 17.6968C14.626 17.4535 15.5114 17.1811 16.7925 17.4697C16.9222 17.4989 17.0519 17.4178 17.0811 17.2881C17.1135 17.1551 17.0292 17.0254 16.8995 16.9962C15.4919 16.6784 14.4995 16.9832 13.6984 17.2297C13.4843 17.2978 13.28 17.3595 13.0887 17.4016C12.4043 17.5573 11.5935 17.5346 11.2757 17.5184C11.1589 17.5151 11.0487 17.5541 10.9611 17.6222C10.7503 17.6092 10.1762 17.4373 9.933 17.3238C9.63138 17.1811 9.10597 16.8276 8.60976 17.1519C8.29192 17.3595 8.1784 17.6903 8.13624 17.9465C8.05192 17.9173 7.63354 17.7649 7.63354 17.7649C7.07246 17.5605 6.48219 17.6027 5.92435 17.8849C5.80435 17.9465 5.7557 18.0924 5.81732 18.2124C5.87894 18.3324 6.02489 18.3778 6.14489 18.3195C6.58597 18.0957 7.0303 18.0632 7.46813 18.2222C7.46813 18.2222 8.10705 18.4557 8.26597 18.5108H8.26921C8.85948 18.7184 9.08976 18.7605 9.52759 18.7313C9.80651 18.7086 10.3741 18.7476 10.8054 19.007C10.8508 19.0784 10.9125 19.1335 10.9903 19.1692C10.7925 19.5 10.6887 19.873 10.6433 20.0935C5.54813 20.5995 3.93949 19.393 3.48219 18.8481C3.17732 18.4849 3.06705 18.0697 3.17732 17.6805C3.34922 17.0611 5.00003 16.6103 7.38705 16.5324C7.78597 16.5195 8.14273 16.2989 8.32111 15.9584C8.4703 15.6762 8.58381 15.3876 8.67786 15.0924C9.23246 15.3389 10.1114 15.4622 11 15.4622C11.8854 15.4622 12.7643 15.3389 13.3189 15.0924C13.4195 15.4168 13.5525 15.7346 13.7211 16.0395C13.8735 16.3184 14.1687 16.4903 14.4833 16.4903C14.5222 16.4903 15.2843 16.3573 15.7708 16.1789C16.6206 15.8708 17.5838 15.8968 18.0735 16.2438C18.1968 16.3735 18.4271 16.5746 18.7643 16.727C18.813 16.9897 18.8908 17.6708 18.5698 18.1703ZM10.7211 18.0924C10.7003 18.1982 10.6905 18.3058 10.6919 18.4135C10.2703 18.2578 9.80975 18.2189 9.49192 18.2449C9.18057 18.2676 9.00867 18.2481 8.60327 18.1119C8.61624 17.9465 8.67462 17.6903 8.8757 17.5573C9.10597 17.4081 9.4984 17.6481 9.68327 17.7389C9.92976 17.8589 10.4779 18.0632 10.7211 18.0924ZM13.653 11.2719C13.76 12.2189 13.9708 13.3605 14.3698 13.9378C14.8173 14.5865 15.7741 15.0859 16.6465 15.4946C16.2768 15.527 15.9135 15.6114 15.6054 15.7249C15.1546 15.887 14.7752 15.9649 14.5352 16.0005C14.3762 16.0232 14.2238 15.9454 14.146 15.8059C13.3416 14.3432 13.4389 12.5205 13.653 11.2719ZM20.8887 16.033C20.8627 16.3086 20.7979 16.4513 19.6822 16.4416C19.4427 16.4406 19.206 16.3908 18.9863 16.2955C18.7667 16.2002 18.5687 16.0612 18.4044 15.887C18.3265 15.8059 18.2454 15.7378 18.1514 15.6827C17.9243 15.5497 17.6065 15.4038 17.2368 15.2319C16.3806 14.8395 15.2098 14.2978 14.7687 13.6622C14.1784 12.8027 14.0454 10.3216 14.026 9.80919C14.3633 9.39729 14.48 8.94324 14.4865 8.92378C14.4976 8.86317 14.4853 8.8006 14.452 8.74872C14.4188 8.69683 14.3671 8.6595 14.3074 8.64427C14.2477 8.62903 14.1844 8.63703 14.1304 8.66663C14.0763 8.69624 14.0355 8.74526 14.0162 8.80378C14.013 8.80702 13.9384 9.08919 13.7438 9.37459C12.9006 8.6254 12.7611 8.01892 12.7384 7.87946C12.6768 7.32811 12.6152 6.91946 12.5698 6.63081C12.6573 6.66973 13.0562 6.79946 13.1535 6.8254C14.3081 7.15946 15.2195 7.42216 14.9503 9.58865C14.8076 10.7497 15.0054 11.8135 15.5276 12.66C15.6541 12.8676 15.8357 13.0589 16.066 13.2276C16.4552 13.513 16.6984 13.7822 16.9579 14.0676C17.3243 14.473 17.7038 14.8913 18.5016 15.3422C18.5406 15.3649 18.5892 15.3746 18.6346 15.3746C18.8422 15.3616 19.4649 15.3616 19.8184 15.4913C20.1298 15.6049 20.4054 15.6016 20.5968 15.5724C20.5968 15.5854 20.5968 15.5919 20.5935 15.5951C20.5871 15.6016 20.5287 15.6373 20.3698 15.6276C20.2335 15.6276 20.1233 15.7281 20.12 15.8643C20.1135 15.9973 20.2173 16.1108 20.3535 16.1141C20.3698 16.1173 20.3892 16.1173 20.4054 16.1173C20.5773 16.1173 20.7135 16.0816 20.8238 16.02C20.8303 16.0168 20.8368 16.0168 20.8433 16.0135C20.8562 16.0038 20.8725 15.9973 20.8919 15.9876C20.8919 16.0005 20.8887 16.0168 20.8887 16.033Z"
        fill="#666666" />
</svg>
