<svg width="21" height="22" viewBox="0 0 21 22" fill="none" xmlns="http://www.w3.org/2000/svg">
<path d="M5.83301 4V1C5.83301 0.447715 6.28072 0 6.83301 0C7.38529 0 7.83301 0.447715 7.83301 1V4C7.83301 4.55228 7.38529 5 6.83301 5C6.28072 5 5.83301 4.55228 5.83301 4Z" fill="#8D072D"/>
<path d="M13.833 4V1C13.833 0.447715 14.2807 0 14.833 0C15.3853 0 15.833 0.447715 15.833 1V4C15.833 4.55228 15.3853 5 14.833 5C14.2807 5 13.833 4.55228 13.833 4Z" fill="#8D072D"/>
<path d="M19.333 7.09009C19.8853 7.09009 20.333 7.5378 20.333 8.09009C20.333 8.64237 19.8853 9.09009 19.333 9.09009H2.33301C1.78072 9.09009 1.33301 8.64237 1.33301 8.09009C1.33301 7.5378 1.78072 7.09009 2.33301 7.09009H19.333Z" fill="#8D072D"/>
<path d="M18.833 7.5C18.833 6.15351 18.4964 5.18403 17.9131 4.55566C17.3421 3.94073 16.3924 3.5 14.833 3.5H6.83301C5.27361 3.5 4.32394 3.94073 3.75293 4.55566C3.16963 5.18403 2.83301 6.15351 2.83301 7.5V16C2.83301 17.3465 3.16963 18.316 3.75293 18.9443C4.32394 19.5593 5.27361 20 6.83301 20H14.833C16.3924 20 17.3421 19.5593 17.9131 18.9443C18.4964 18.316 18.833 17.3465 18.833 16V7.5ZM20.833 16C20.833 17.6533 20.4195 19.184 19.3779 20.3057C18.3239 21.4405 16.7734 22 14.833 22H6.83301C4.89258 22 3.34207 21.4405 2.28809 20.3057C1.24656 19.184 0.833008 17.6533 0.833008 16V7.5C0.833008 5.84671 1.24656 4.31598 2.28809 3.19434C3.34207 2.05948 4.89258 1.5 6.83301 1.5H14.833C16.7734 1.5 18.3239 2.05948 19.3779 3.19434C20.4195 4.31598 20.833 5.84671 20.833 7.5V16Z" fill="#8D072D"/>
<path d="M14.5371 11.7L14.6387 11.7048C15.1431 11.7559 15.5371 12.1821 15.5371 12.7C15.5371 13.2178 15.1431 13.644 14.6387 13.6951L14.5371 13.7H14.5273C13.9752 13.6998 13.5273 13.2521 13.5273 12.7C13.5273 12.1478 13.9752 11.7001 14.5273 11.7H14.5371Z" fill="#8D072D"/>
<path d="M14.5371 14.7L14.6387 14.7048C15.1431 14.7559 15.5371 15.1821 15.5371 15.7C15.5371 16.2178 15.1431 16.644 14.6387 16.6951L14.5371 16.7H14.5273C13.9752 16.6998 13.5273 16.2521 13.5273 15.7C13.5273 15.1478 13.9752 14.7001 14.5273 14.7H14.5371Z" fill="#8D072D"/>
<path d="M10.8379 11.7L10.9395 11.7048C11.4438 11.7559 11.8379 12.1821 11.8379 12.7C11.8379 13.2178 11.4438 13.644 10.9395 13.6951L10.8379 13.7H10.8281C10.276 13.6998 9.82812 13.2521 9.82812 12.7C9.82812 12.1478 10.276 11.7001 10.8281 11.7H10.8379Z" fill="#8D072D"/>
<path d="M10.8379 14.7L10.9395 14.7048C11.4438 14.7559 11.8379 15.1821 11.8379 15.7C11.8379 16.2178 11.4438 16.644 10.9395 16.6951L10.8379 16.7H10.8281C10.276 16.6998 9.82812 16.2521 9.82812 15.7C9.82812 15.1478 10.276 14.7001 10.8281 14.7H10.8379Z" fill="#8D072D"/>
<path d="M7.13672 11.7L7.23828 11.7048C7.74268 11.7559 8.13672 12.1821 8.13672 12.7C8.13672 13.2178 7.74268 13.644 7.23828 13.6951L7.13672 13.7H7.12695C6.57484 13.6998 6.12695 13.2521 6.12695 12.7C6.12695 12.1478 6.57484 11.7001 7.12695 11.7H7.13672Z" fill="#8D072D"/>
<path d="M7.13672 14.7L7.23828 14.7048C7.74268 14.7559 8.13672 15.1821 8.13672 15.7C8.13672 16.2178 7.74268 16.644 7.23828 16.6951L7.13672 16.7H7.12695C6.57484 16.6998 6.12695 16.2521 6.12695 15.7C6.12695 15.1478 6.57484 14.7001 7.12695 14.7H7.13672Z" fill="#8D072D"/>
</svg>
