<svg width="20" height="20" viewBox="0 0 20 20" fill="none" xmlns="http://www.w3.org/2000/svg">
<path d="M9.40398 14.0864C9.38682 14.0523 9.36128 14.0168 9.30005 13.9493C9.27389 13.9206 9.10101 13.7468 8.99903 13.5641C8.84428 13.2866 8.80092 12.9502 8.93542 12.6046C9.04002 12.3359 9.23534 12.1104 9.42369 11.9228V11.9219L10.2336 11.1165L10.2918 11.0636C10.5943 10.8149 11.0357 10.8117 11.3427 11.0663C11.5066 11.2023 11.8373 11.3377 12.287 11.4309C12.7121 11.519 13.1341 11.5464 13.3764 11.5465C16.1249 11.5459 18.3479 9.32859 18.3479 6.59928C18.3478 3.86985 16.1246 1.65218 13.3755 1.65206C10.627 1.65206 8.40595 3.8701 8.40593 6.59928C8.40593 7.21446 8.54668 7.75303 8.69083 8.14114C8.76237 8.33373 8.83273 8.48514 8.88345 8.58462C8.90872 8.63415 8.92926 8.67034 8.94169 8.69213C8.94699 8.70141 8.95105 8.70801 8.95333 8.71183L9.01784 8.83906C9.14185 9.14288 9.07494 9.49789 8.83597 9.73586L1.82547 16.7168C1.76142 16.7807 1.67719 16.9123 1.65614 17.0411C1.6473 17.0953 1.65023 17.1441 1.666 17.1934C1.68158 17.242 1.71981 17.3227 1.82457 17.4273H1.82547L2.60043 18.1995C2.6698 18.2545 2.79819 18.3251 2.92386 18.3438C2.98155 18.3523 3.02691 18.3486 3.06362 18.3375C3.09726 18.3273 3.1513 18.3034 3.2213 18.2336L3.22219 18.2327L4.16648 17.2938L4.2292 17.2373C4.55302 16.9744 5.02923 16.9933 5.33117 17.2938C5.60869 17.5702 5.83806 17.5871 6.00848 17.5545C6.22738 17.5125 6.42254 17.3675 6.51287 17.249C6.64233 17.0602 6.63635 16.8906 6.57738 16.7141C6.54507 16.6175 6.4989 16.5314 6.45912 16.4686C6.44007 16.4386 6.42436 16.4163 6.41522 16.4041L6.41164 16.3996L6.41432 16.4023L6.36505 16.3387C6.13634 16.0138 6.17062 15.5658 6.45733 15.2798L6.72789 15.011L6.78971 14.9545C7.11373 14.6907 7.59128 14.7097 7.89347 15.011C8.38012 15.4962 8.72064 15.5046 8.90495 15.4697C9.14533 15.4241 9.36133 15.2535 9.47565 15.1051C9.63299 14.8809 9.63453 14.6761 9.59122 14.4949C9.56792 14.3976 9.53203 14.3133 9.50163 14.2539C9.48683 14.2251 9.47413 14.2044 9.46759 14.1939L9.4649 14.1894C9.46548 14.1903 9.46674 14.1909 9.46759 14.1921L9.40398 14.0864ZM19.999 6.59928C19.999 10.2465 17.0314 13.197 13.3782 13.1986L13.3773 13.1995H13.3755L13.3729 13.1986C13.0305 13.1982 12.4971 13.1601 11.9519 13.0471C11.643 12.9831 11.2877 12.8852 10.9485 12.7345L10.6672 13.014C10.7237 13.0873 10.784 13.1736 10.8401 13.2747C10.8488 13.2879 10.8592 13.3039 10.8706 13.3222C10.8982 13.3667 10.9332 13.4268 10.9709 13.5005C11.0458 13.6467 11.1366 13.8566 11.1976 14.1115C11.3145 14.6006 11.3226 15.2746 10.9019 15.9436L10.8123 16.0771C10.8087 16.0821 10.8053 16.0874 10.8016 16.0923C10.5099 16.48 9.9601 16.9504 9.21315 17.0922C8.90345 17.1509 8.58423 17.1475 8.26259 17.077C8.24283 17.3967 8.15233 17.7413 7.94006 18.0849L7.84688 18.2246C7.84316 18.2298 7.83908 18.2356 7.83524 18.2407C7.52019 18.6593 6.97535 19.0504 6.31936 19.1761C5.83907 19.2681 5.32396 19.2115 4.83394 18.9575L4.38598 19.4036C3.85615 19.9314 3.22614 20.0582 2.68286 19.9779C2.2434 19.9129 1.86991 19.7175 1.61672 19.5273L1.51548 19.4457L1.4689 19.4036L0.659889 18.5982V18.5973C0.0918472 18.0313 -0.0709655 17.3717 0.0264806 16.775C0.115529 16.23 0.409276 15.7975 0.659889 15.5476V15.5467L7.2511 8.9824C7.21634 8.90069 7.17838 8.81238 7.1427 8.71632C6.95018 8.19803 6.75477 7.46102 6.75477 6.59928C6.75479 2.95247 9.7206 0 13.3755 0C17.0298 0.000118338 19.999 2.95103 19.999 6.59928ZM9.46848 14.1948L9.47027 14.1966L9.46759 14.1921L9.46848 14.1948Z" fill="#CCCCCC"/>
<path d="M13.3763 3.76048C13.7489 3.76013 14.1177 3.8327 14.4622 3.9746C14.8075 4.1169 15.1222 4.32559 15.3868 4.5892C15.6513 4.85277 15.8614 5.16637 16.0049 5.51109C16.1484 5.85576 16.222 6.2254 16.2226 6.59872V6.60231C16.2209 7.35629 15.9201 8.07888 15.3859 8.61094C14.8522 9.14239 14.1294 9.43947 13.3763 9.43876L13.3772 9.43966L13.3754 9.43876L13.3737 9.43966V9.43876C12.6208 9.43928 11.8985 9.14217 11.365 8.61094C10.8308 8.07888 10.5291 7.35629 10.5273 6.60231V6.59872L10.5417 6.3201C10.5695 6.04236 10.6383 5.76972 10.7459 5.51109C10.8895 5.16633 11.0996 4.85279 11.3641 4.5892C11.6286 4.32567 11.9426 4.11689 12.2878 3.9746C12.6321 3.83271 13.0013 3.76022 13.3737 3.76048V3.75958L13.3754 3.76048L13.3772 3.75958L13.3763 3.76048ZM13.2572 5.41702C13.1407 5.42826 13.0263 5.4565 12.9176 5.50123C12.7728 5.56091 12.6407 5.64871 12.5297 5.75926C12.4189 5.86972 12.3309 6.00094 12.2708 6.14539C12.2106 6.28988 12.1797 6.44491 12.1794 6.60141C12.1809 6.91648 12.3064 7.21847 12.5297 7.44088C12.7537 7.66397 13.0575 7.78902 13.3737 7.78849H13.3772L13.4946 7.78312C13.7675 7.75656 14.0242 7.63601 14.2203 7.44088C14.4436 7.21845 14.57 6.91653 14.5715 6.60141L14.5661 6.48494C14.5544 6.3684 14.5253 6.25391 14.4801 6.14539C14.42 6.00096 14.332 5.86972 14.2212 5.75926C14.1102 5.64871 13.9781 5.56091 13.8333 5.50123C13.6886 5.44165 13.5337 5.41141 13.3772 5.41164H13.3737L13.2572 5.41702Z" fill="#CCCCCC"/>
</svg>
