<svg width="101" height="100" viewBox="0 0 101 100" fill="none" xmlns="http://www.w3.org/2000/svg">
<rect x="0.5" width="100" height="100" rx="50" fill="url(#paint0_linear_5609_4307)"/>
<path d="M62.415 42.085C62.601 42.2707 62.7485 42.4913 62.8491 42.7341C62.9498 42.9769 63.0016 43.2372 63.0016 43.5C63.0016 43.7628 62.9498 44.0231 62.8491 44.2659C62.7485 44.5087 62.601 44.7293 62.415 44.915L48.415 58.915C48.2293 59.101 48.0087 59.2485 47.7659 59.3491C47.5231 59.4498 47.2628 59.5016 47 59.5016C46.7372 59.5016 46.4769 59.4498 46.2341 59.3491C45.9913 59.2485 45.7708 59.101 45.585 58.915L39.585 52.915C39.2097 52.5397 38.9989 52.0307 38.9989 51.5C38.9989 50.9693 39.2097 50.4603 39.585 50.085C39.9603 49.7097 40.4693 49.4989 41 49.4989C41.5307 49.4989 42.0397 49.7097 42.415 50.085L47 54.6725L59.585 42.085C59.7708 41.899 59.9913 41.7515 60.2341 41.6509C60.4769 41.5502 60.7372 41.4984 61 41.4984C61.2628 41.4984 61.5231 41.5502 61.7659 41.6509C62.0087 41.7515 62.2293 41.899 62.415 42.085ZM77 49.5C77 54.6423 75.4751 59.6691 72.6182 63.9448C69.7613 68.2205 65.7007 71.553 60.9498 73.5209C56.1989 75.4887 50.9712 76.0036 45.9277 75.0004C40.8842 73.9972 36.2514 71.5209 32.6152 67.8848C28.9791 64.2486 26.5028 59.6159 25.4996 54.5723C24.4964 49.5288 25.0113 44.3011 26.9791 39.5502C28.947 34.7994 32.2795 30.7387 36.5552 27.8818C40.8309 25.0249 45.8577 23.5 51 23.5C57.8934 23.5073 64.5024 26.2489 69.3767 31.1233C74.2511 35.9976 76.9927 42.6066 77 49.5ZM73 49.5C73 45.1488 71.7097 40.8953 69.2923 37.2775C66.875 33.6596 63.439 30.8398 59.419 29.1747C55.3991 27.5095 50.9756 27.0738 46.708 27.9227C42.4404 28.7716 38.5204 30.8669 35.4437 33.9437C32.3669 37.0204 30.2716 40.9404 29.4227 45.208C28.5739 49.4756 29.0095 53.8991 30.6747 57.919C32.3398 61.939 35.1596 65.3749 38.7775 67.7923C42.3953 70.2097 46.6488 71.5 51 71.5C56.8327 71.4934 62.4247 69.1734 66.5491 65.049C70.6734 60.9247 72.9934 55.3327 73 49.5Z" fill="#F7618C"/>
<defs>
<linearGradient id="paint0_linear_5609_4307" x1="50.5" y1="0" x2="50.5" y2="110.5" gradientUnits="userSpaceOnUse">
<stop stop-color="#FDC9D7"/>
<stop offset="1" stop-color="white" stop-opacity="0"/>
</linearGradient>
</defs>
</svg>
