<svg width="27" height="26" viewBox="0 0 27 26" fill="none" xmlns="http://www.w3.org/2000/svg">
<rect x="0.666016" width="26" height="26" rx="13" fill="#FDD3DF"/>
<path d="M15.4901 7.80683C15.4901 7.35058 15.3538 6.90458 15.0983 6.52522C14.8429 6.14587 14.4798 5.8502 14.055 5.6756C13.6301 5.501 13.1627 5.45532 12.7117 5.54433C12.2607 5.63334 11.8465 5.85304 11.5213 6.17566C11.1962 6.49827 10.9748 6.90931 10.8851 7.35679C10.7954 7.80427 10.8414 8.2681 11.0174 8.68962C11.1933 9.11113 11.4913 9.47141 11.8736 9.72489C12.256 9.97837 12.7054 10.1137 13.1653 10.1137C13.7819 10.1137 14.3732 9.87062 14.8092 9.43801C15.2452 9.00539 15.4901 8.41864 15.4901 7.80683ZM13.1653 8.96025C12.9354 8.96025 12.7106 8.8926 12.5194 8.76586C12.3283 8.63912 12.1793 8.45898 12.0913 8.24822C12.0033 8.03746 11.9803 7.80555 12.0252 7.58181C12.07 7.35807 12.1807 7.15255 12.3433 6.99124C12.5059 6.82994 12.713 6.72008 12.9385 6.67558C13.164 6.63107 13.3977 6.65392 13.6101 6.74121C13.8225 6.82851 14.0041 6.97635 14.1318 7.16603C14.2595 7.35571 14.3277 7.57871 14.3277 7.80683C14.3277 8.11274 14.2052 8.40611 13.9872 8.62242C13.7692 8.83873 13.4736 8.96025 13.1653 8.96025ZM20.6848 11.2462C20.6186 10.9232 20.4408 10.6333 20.1822 10.4265C19.9235 10.2197 19.6002 10.1091 19.2681 10.1137H13.1653H7.06247C6.73123 10.1136 6.40993 10.2259 6.15181 10.4319C5.89369 10.6379 5.71424 10.9252 5.64319 11.2462C5.57215 11.5672 5.61377 11.9027 5.76116 12.197C5.90856 12.4913 6.15288 12.7269 6.45364 12.8646H6.46308L10.1502 14.4757L8.62449 19.2912C8.46485 19.6402 8.45144 20.0377 8.58721 20.3965C8.72299 20.7552 8.99682 21.0457 9.34847 21.2041C9.70012 21.3625 10.1008 21.3758 10.4623 21.2411C10.8239 21.1064 11.1167 20.8347 11.2763 20.4858L13.1653 18.1825L15.0542 20.4858C15.2221 20.8198 15.514 21.0762 15.8685 21.2011C16.223 21.326 16.6125 21.3096 16.9551 21.1553C17.2977 21.001 17.5666 20.7209 17.7053 20.374C17.844 20.027 17.8416 19.6402 17.6988 19.2949L16.1731 14.4793L19.8602 12.8682H19.8696C20.1752 12.7351 20.4241 12.4999 20.5731 12.2036C20.722 11.9072 20.7615 11.5684 20.6848 11.2462ZM19.3916 11.8157L15.2555 13.6222C15.1288 13.6776 15.0263 13.7759 14.9662 13.8996C14.9062 14.0233 14.8925 14.1642 14.9278 14.297L16.5894 19.6351C16.5978 19.6687 16.6098 19.7013 16.625 19.7324C16.6493 19.7842 16.6577 19.8419 16.6489 19.8984C16.6402 19.9548 16.6148 20.0074 16.5759 20.0495C16.5369 20.0916 16.4863 20.1213 16.4304 20.1348C16.3745 20.1483 16.3157 20.145 16.2617 20.1253C16.1894 20.099 16.1307 20.0453 16.0982 19.9761C16.0909 19.9605 16.0826 19.9453 16.0735 19.9307L13.668 16.7458C13.6169 16.6584 13.5436 16.5859 13.4554 16.5354C13.3671 16.485 13.2671 16.4585 13.1653 16.4585C13.0634 16.4585 12.9634 16.485 12.8752 16.5354C12.7869 16.5859 12.7136 16.6584 12.6625 16.7458L10.2592 19.9271C10.2501 19.9417 10.2418 19.9569 10.2345 19.9725C10.202 20.0417 10.1433 20.0954 10.071 20.1217C10.017 20.1414 9.95825 20.1446 9.90232 20.1312C9.84639 20.1177 9.79576 20.088 9.75685 20.0459C9.71793 20.0038 9.69249 19.9512 9.68375 19.8948C9.67501 19.8383 9.68336 19.7806 9.70774 19.7288C9.72293 19.6977 9.73486 19.6651 9.74334 19.6315L11.4027 14.2948C11.438 14.162 11.4244 14.0211 11.3643 13.8975C11.3042 13.7738 11.2017 13.6754 11.0751 13.62L6.93896 11.8157C6.87959 11.7876 6.83158 11.7403 6.8028 11.6816C6.77401 11.6229 6.76615 11.5563 6.78049 11.4926C6.79483 11.4289 6.83053 11.3719 6.88175 11.3309C6.93297 11.2899 6.99668 11.2674 7.06247 11.2671H19.2681C19.334 11.267 19.3981 11.2891 19.4497 11.3299C19.5013 11.3707 19.5373 11.4277 19.552 11.4915C19.5666 11.5553 19.5589 11.6222 19.5301 11.6811C19.5014 11.74 19.4533 11.7875 19.3937 11.8157H19.3916Z" fill="#F7618C"/>
</svg>
