<svg width="26" height="26" viewBox="0 0 26 26" fill="none" xmlns="http://www.w3.org/2000/svg">
<rect width="26" height="26" rx="13" fill="#FDD3DF"/>
<path d="M19.6881 11.109C19.6881 10.4817 19.1165 9.89084 18.2878 9.81972L18.1193 9.81307L17.99 9.8006C17.6991 9.74491 17.4802 9.50489 17.4802 9.21707C17.4802 8.88801 17.7664 8.62108 18.1193 8.62108L18.4019 8.63355C19.8002 8.75606 20.9663 9.77747 20.9663 11.109C20.9661 12.529 19.6394 13.5959 18.1193 13.596H5.72309C5.37022 13.596 5.08398 13.3291 5.08398 13C5.08404 12.671 5.37025 12.404 5.72309 12.404H18.1193C19.0378 12.404 19.6879 11.7778 19.6881 11.109Z" fill="#F7618C"/>
<path d="M19.2825 18.013C19.2825 17.4153 19.0651 17.1308 18.844 16.9756C18.5912 16.7983 18.2269 16.7171 17.8421 16.7171H5.72309C5.37022 16.7171 5.08398 16.4502 5.08398 16.1211C5.08398 15.792 5.37022 15.5251 5.72309 15.5251H17.8421C18.3814 15.5251 19.0576 15.633 19.6132 16.023C20.2006 16.4353 20.5607 17.0975 20.5607 18.013C20.5607 18.9283 20.2005 19.5899 19.6132 20.0021C19.0576 20.3921 18.3814 20.5001 17.8421 20.5001C17.4894 20.4999 17.2039 20.233 17.2039 19.9041C17.2039 19.5752 17.4894 19.3083 17.8421 19.3081C18.2269 19.3081 18.5912 19.2269 18.844 19.0495C19.065 18.8944 19.2824 18.6104 19.2825 18.013Z" fill="#F7618C"/>
<path d="M13.1972 7.98788C13.1972 7.33515 12.6412 6.76709 11.8896 6.69864L11.7362 6.69199L11.6079 6.67952C11.3167 6.62397 11.098 6.38394 11.098 6.09599C11.098 5.76703 11.3835 5.50017 11.7362 5.5L12.0135 5.51247C13.3793 5.63791 14.4754 6.68201 14.4754 7.98788C14.4752 9.38074 13.2276 10.4749 11.7362 10.4749H5.72309C5.37022 10.4749 5.08398 10.208 5.08398 9.87894C5.08404 9.54992 5.37025 9.28295 5.72309 9.28295H11.7362C12.564 9.28295 13.197 8.68401 13.1972 7.98788Z" fill="#F7618C"/>
</svg>
