<svg width="27" height="26" viewBox="0 0 27 26" fill="none" xmlns="http://www.w3.org/2000/svg">
<rect x="0.333984" width="26" height="26" rx="13" fill="#FDD3DF"/>
<g clip-path="url(#clip0_4541_5218)">
<path d="M23.1743 13.2297C23.0989 13.0933 22.9978 12.9737 22.8771 12.8779C22.7563 12.7821 22.6182 12.712 22.4708 12.6716C21.8023 12.4957 21.1099 12.4368 20.4224 12.4972C20.8182 10.6982 20.5597 9.27848 20.2995 8.45091C20.2087 8.15855 20.0153 7.91147 19.7571 7.75783C19.4989 7.60418 19.1943 7.55499 18.9028 7.61984C17.9978 7.82867 17.1411 8.21699 16.3805 8.7631C15.8512 7.57833 15.051 6.54306 14.0482 5.74581C13.8424 5.58628 13.5918 5.5 13.3341 5.5C13.0765 5.5 12.8259 5.58628 12.6201 5.74581C11.6178 6.54341 10.8179 7.5786 10.2886 8.7631C9.52777 8.21689 8.67075 7.82856 7.76551 7.61984C7.47396 7.55507 7.16941 7.60441 6.91132 7.75824C6.65322 7.91206 6.4601 8.15933 6.36964 8.45178C6.10945 9.27935 5.85096 10.699 6.24675 12.4981C5.55926 12.4376 4.86678 12.4966 4.19829 12.6725C4.05092 12.7128 3.91282 12.783 3.79205 12.8788C3.67128 12.9746 3.57025 13.0942 3.49485 13.2306C3.41561 13.3708 3.36431 13.5258 3.34394 13.6866C3.32357 13.8474 3.33453 14.0108 3.3762 14.1672C3.65673 15.2381 4.52035 17.2734 7.14088 18.8876C9.76142 20.5017 12.0879 20.5 13.3346 20.5C14.5813 20.5 16.9043 20.5 19.5265 18.8876C22.1488 17.2752 23.0107 15.2381 23.2912 14.1663C23.3331 14.01 23.3444 13.8467 23.3243 13.6859C23.3042 13.5251 23.2532 13.37 23.1743 13.2297ZM16.7653 9.76508C17.4631 9.22368 18.2643 8.8403 19.1163 8.64014C19.1616 8.63064 19.2087 8.63876 19.2484 8.66292C19.2882 8.68709 19.3178 8.72558 19.3316 8.77095C19.6655 9.83659 19.9935 12.0411 18.4341 14.8317C17.808 15.9323 17.0057 16.9162 16.061 17.7417C16.7119 16.5758 17.2331 15 17.2331 12.928C17.2411 11.8548 17.0832 10.7872 16.7653 9.76508ZM7.33751 8.77356C7.35077 8.72771 7.38019 8.68861 7.42002 8.66393C7.45984 8.63925 7.50719 8.63076 7.55278 8.64014C8.40479 8.8403 9.20601 9.22368 9.9038 9.76508C9.58592 10.7872 9.42801 11.8548 9.43597 12.928C9.43597 15 9.95719 16.5775 10.6064 17.7391C9.66147 16.9138 8.85912 15.9299 8.23334 14.8291C6.6756 12.0411 7.00359 9.83659 7.33751 8.77356ZM7.66296 17.9885C5.34923 16.5662 4.59917 14.8125 4.35763 13.8899C4.35129 13.8664 4.34961 13.8419 4.35266 13.8178C4.35572 13.7937 4.36346 13.7705 4.37543 13.7495C4.39376 13.7157 4.42417 13.6907 4.46018 13.6797C5.14514 13.5047 5.85729 13.4729 6.5544 13.5864C6.76933 14.1991 7.03679 14.791 7.35361 15.3549C8.22314 16.8989 9.40886 18.2296 10.8284 19.2547C9.70929 19.0269 8.63781 18.5983 7.66296 17.9885ZM13.3346 19.3541C12.5989 18.8135 10.453 16.895 10.453 12.928C10.453 9.1468 12.3972 7.23004 13.2329 6.58123C13.2622 6.55859 13.2979 6.54635 13.3346 6.54635C13.3712 6.54635 13.4069 6.55859 13.4363 6.58123C14.2719 7.23004 16.2161 9.1468 16.2161 12.928C16.2161 16.9194 14.0812 18.8143 13.3346 19.3541ZM22.3098 13.8934C22.0683 14.8125 21.3182 16.5662 19.0045 17.992C18.0285 18.6005 16.9562 19.0276 15.8364 19.2538C17.256 18.2288 18.4417 16.898 19.3113 15.354C19.6295 14.7905 19.8984 14.199 20.1147 13.5864C20.8126 13.4738 21.5254 13.5068 22.2106 13.6832C22.2466 13.6942 22.2771 13.7192 22.2954 13.753C22.3071 13.7741 22.3145 13.7974 22.3173 13.8215C22.32 13.8456 22.3181 13.87 22.3115 13.8934H22.3098Z" fill="#F7618C"/>
</g>
<defs>
<clipPath id="clip0_4541_5218">
<rect width="20" height="20" fill="white" transform="translate(3.33398 3)"/>
</clipPath>
</defs>
</svg>
