<svg width="25" height="24" viewBox="0 0 25 24" fill="none" xmlns="http://www.w3.org/2000/svg">
<path d="M21.5 12C21.5 7.03228 17.4677 3 12.5 3C7.53228 3 3.5 7.03228 3.5 12C3.5 16.9677 7.53228 21 12.5 21C17.4677 21 21.5 16.9677 21.5 12ZM23.5 12C23.5 18.0723 18.5723 23 12.5 23C6.42772 23 1.5 18.0723 1.5 12C1.5 5.92772 6.42772 1 12.5 1C18.5723 1 23.5 5.92772 23.5 12Z" fill="#8D072D"/>
<path d="M11.1299 11.6096V7.51001C11.1299 6.95772 11.5776 6.51001 12.1299 6.51001C12.6822 6.51001 13.1299 6.95772 13.1299 7.51001V11.6096C13.1299 11.7093 13.1715 11.89 13.2861 12.0911C13.3721 12.2418 13.469 12.3507 13.5479 12.4172L13.6201 12.47L13.6221 12.4709L16.7227 14.3215L16.8076 14.3782C17.2143 14.6806 17.3337 15.2481 17.0684 15.6926C16.803 16.137 16.2472 16.3013 15.7881 16.0872L15.6973 16.0383L12.5996 14.1897V14.1907C12.1448 13.9211 11.7891 13.5026 11.5488 13.0813C11.3085 12.6599 11.1299 12.1398 11.1299 11.6096Z" fill="#8D072D"/>
</svg>
