<svg width="14" height="18" viewBox="0 0 14 18" fill="none" xmlns="http://www.w3.org/2000/svg">
    <path
        d="M10.0011 16.4639C10.3696 16.4639 10.6661 16.7636 10.6661 17.1367C10.6661 17.5098 10.3696 17.8096 10.0011 17.8096H3.99912C3.63063 17.8096 3.33412 17.5098 3.33408 17.1367C3.33408 16.7636 3.6306 16.4639 3.99912 16.4639H10.0011ZM7.00694 0.666992C10.5935 0.667117 13.5815 3.62487 13.6671 7.25586L13.6603 7.24902V7.41602C13.6668 9.5079 12.7387 11.4397 11.1134 12.7256C10.8238 12.9455 10.6593 13.2857 10.6593 13.6455V14.0986C10.6592 14.8048 10.0931 15.3779 9.39561 15.3779H4.59776C3.90038 15.3778 3.3342 14.8047 3.33408 14.0986V13.6455C3.33408 13.2924 3.17003 12.9525 2.89365 12.7393C1.27478 11.4601 0.333175 9.53469 0.333107 7.45605C0.313365 3.7984 3.23564 0.753765 6.8419 0.666992H7.00694ZM6.8751 2.01953C3.99262 2.08616 1.65588 4.52435 1.66904 7.44922C1.67564 9.11469 2.4197 10.6535 3.71592 11.6729C4.31479 12.1392 4.67002 12.8793 4.67002 13.6455V14.0322H9.33604V13.6523C9.33604 12.8728 9.69152 12.1526 10.297 11.6729C11.5999 10.6402 12.3369 9.09501 12.337 7.42285C12.3436 4.44476 9.94854 2.01966 7.00694 2.01953H6.8751ZM7.71104 3.10547C9.5141 3.43203 10.9355 4.87751 11.2579 6.69629C11.3171 7.06263 11.0738 7.41548 10.712 7.47559C10.6725 7.48225 10.6392 7.48242 10.5997 7.48242C10.2707 7.48235 9.99415 7.24927 9.94151 6.92285C9.73751 5.69039 8.70475 4.64417 7.4874 4.4375C7.12548 4.37088 6.88136 4.02461 6.94053 3.6582C6.99975 3.3318 7.26977 3.09872 7.59873 3.09863C7.63822 3.09863 7.67155 3.10547 7.71104 3.10547Z"
        fill="white" />
</svg>
