<svg width="117" height="116" viewBox="0 0 117 116" fill="none" xmlns="http://www.w3.org/2000/svg">
    <path
        d="M115.041 108.709L7.79089 1.4591C7.01504 0.697169 5.96967 0.272462 4.88226 0.277386C3.79484 0.282311 2.75337 0.716469 1.98444 1.4854C1.21551 2.25432 0.781355 3.2958 0.77643 4.38321C0.771506 5.47063 1.19621 6.51599 1.95814 7.29185L13.6246 18.9585C13.613 18.9821 13.5893 18.9953 13.5783 19.0192L1.20327 43.7692C0.881199 44.3966 0.726123 45.0963 0.752979 45.8009C0.779836 46.5056 0.987721 47.1914 1.3566 47.7924C1.72549 48.3934 2.24294 48.8893 2.8591 49.2322C3.47526 49.5752 4.16936 49.7537 4.87452 49.7505H13.1245V95.1255C13.1244 95.6672 13.231 96.2037 13.4382 96.7042C13.6455 97.2048 13.9493 97.6595 14.3324 98.0426C14.7155 98.4257 15.1703 98.7295 15.6708 98.9368C16.1713 99.144 16.7078 99.2506 17.2495 99.2505H93.9165L109.208 114.542C109.983 115.307 111.03 115.735 112.119 115.732C113.208 115.728 114.252 115.294 115.022 114.524C115.793 113.753 116.227 112.71 116.231 111.62C116.234 110.531 115.806 109.484 115.041 108.709ZM13.1245 41.5005H11.557L19.7602 25.0942L36.1665 41.5005H13.1245ZM68.317 25.0005L60.067 41.5005H51.9408L60.1908 49.7505L103.875 93.4342V49.7505H112.125C112.83 49.7537 113.524 49.5752 114.14 49.2322C114.756 48.8893 115.274 48.3934 115.642 47.7924C116.011 47.1914 116.219 46.5056 116.246 45.8009C116.273 45.0963 116.118 44.3966 115.796 43.7692L103.421 19.0192C103.087 18.3319 102.564 17.7537 101.914 17.3521C101.264 16.9504 100.514 16.7417 99.7495 16.7505H27.1908L35.4408 25.0005H68.317ZM97.192 25.0005L105.442 41.5005H89.932L81.682 25.0005H97.192Z"
        fill="#CCCCCC" fill-opacity="0.4" />
</svg>
