<svg width="20" height="21" viewBox="0 0 20 21" fill="none" xmlns="http://www.w3.org/2000/svg">
    <path
        d="M10 2.5C7.87827 2.5 5.84344 3.34285 4.34315 4.84315C2.84285 6.34344 2 8.37827 2 10.5C2 12.6217 2.84285 14.6566 4.34315 16.1569C5.84344 17.6571 7.87827 18.5 10 18.5C12.1217 18.5 14.1566 17.6571 15.6569 16.1569C17.1571 14.6566 18 12.6217 18 10.5C18 8.37827 17.1571 6.34344 15.6569 4.84315C14.1566 3.34285 12.1217 2.5 10 2.5ZM0 10.5C0 4.977 4.477 0.5 10 0.5C15.523 0.5 20 4.977 20 10.5C20 16.023 15.523 20.5 10 20.5C4.477 20.5 0 16.023 0 10.5Z"
        fill="#34D399" />
    <path
        d="M13.7076 7.79279C13.895 7.98031 14.0004 8.23462 14.0004 8.49979C14.0004 8.76495 13.895 9.01926 13.7076 9.20679L9.70757 13.2068C9.52004 13.3943 9.26573 13.4996 9.00057 13.4996C8.73541 13.4996 8.4811 13.3943 8.29357 13.2068L6.29357 11.2068C6.19806 11.1145 6.12188 11.0042 6.06947 10.8822C6.01706 10.7602 5.98947 10.629 5.98832 10.4962C5.98717 10.3634 6.01247 10.2317 6.06275 10.1088C6.11303 9.98594 6.18728 9.87428 6.28117 9.78039C6.37507 9.6865 6.48672 9.61225 6.60962 9.56196C6.73251 9.51168 6.86419 9.48638 6.99697 9.48754C7.12975 9.48869 7.26097 9.51628 7.38297 9.56868C7.50498 9.62109 7.61532 9.69728 7.70757 9.79279L9.00057 11.0858L12.2936 7.79279C12.4811 7.60532 12.7354 7.5 13.0006 7.5C13.2657 7.5 13.52 7.60532 13.7076 7.79279Z"
        fill="#34D399" />
</svg>
