<svg width="22" height="20" viewBox="0 0 22 20" fill="none" xmlns="http://www.w3.org/2000/svg">
    <path
        d="M1.78781 7.0317C3.93261 3.9357 6.74007 2.2857 10.5667 2.2857C14.2515 2.2857 17.4426 3.7437 19.0134 5.71427H15.0001C14.7525 5.71427 14.5151 5.80457 14.3401 5.96532C14.1651 6.12606 14.0667 6.34408 14.0667 6.57141C14.0667 6.79874 14.1651 7.01676 14.3401 7.1775C14.5151 7.33825 14.7525 7.42855 15.0001 7.42855H20.6001C20.8476 7.42855 21.085 7.33825 21.26 7.1775C21.4351 7.01676 21.5334 6.79874 21.5334 6.57141V1.42855C21.5334 1.20123 21.4351 0.983208 21.26 0.822462C21.085 0.661717 20.8476 0.571411 20.6001 0.571411C20.3525 0.571411 20.1151 0.661717 19.9401 0.822462C19.7651 0.983208 19.6667 1.20123 19.6667 1.42855V3.78313C17.5415 1.80741 14.1741 0.571411 10.5667 0.571411C5.9934 0.571411 2.63807 2.61141 0.212338 6.11113C0.0794119 6.30299 0.0349231 6.53549 0.0886585 6.75748C0.142394 6.97947 0.289952 7.17276 0.498872 7.29484C0.707792 7.41691 0.960959 7.45777 1.20268 7.40842C1.4444 7.35907 1.65488 7.22356 1.78781 7.0317ZM14.2889 9.14284C12.7405 9.14284 11.6195 9.77712 10.9382 10.8117C10.2998 11.7828 10.0889 13.0377 10.0889 14.2857C10.0889 15.5337 10.2998 16.7886 10.9382 17.7597C11.6195 18.7943 12.7414 19.4286 14.2889 19.4286C15.8382 19.4286 16.9582 18.7943 17.6395 17.7597C18.2789 16.7886 18.4889 15.5337 18.4889 14.2857C18.4889 13.0377 18.2789 11.7828 17.6395 10.8117C16.9582 9.77712 15.8382 9.14284 14.2889 9.14284ZM11.9555 14.2857C11.9555 13.1671 12.1534 12.2791 12.5361 11.6988C12.8758 11.1828 13.3873 10.8571 14.2889 10.8571C15.1905 10.8571 15.7029 11.1828 16.0426 11.6988C16.4253 12.2791 16.6222 13.1671 16.6222 14.2857C16.6222 15.4043 16.4243 16.2923 16.0426 16.8726C15.7029 17.3886 15.1905 17.7143 14.2889 17.7143C13.3873 17.7143 12.8758 17.3886 12.5361 16.8726C12.1534 16.2923 11.9555 15.4043 11.9555 14.2857ZM7.5334 9.99998C7.53321 9.81281 7.4663 9.63085 7.34291 9.48188C7.21952 9.33291 7.04643 9.22513 6.85007 9.175C6.65371 9.12486 6.44488 9.13513 6.25548 9.20424C6.06607 9.27334 5.9065 9.39748 5.80114 9.5577L5.80021 9.55855L5.79461 9.56627C5.78994 9.57484 5.77967 9.5877 5.76661 9.60655C5.57552 9.8718 5.36765 10.1265 5.14407 10.3694C4.70167 10.8511 4.07727 11.4194 3.32034 11.836C3.10795 11.9529 2.95486 12.1426 2.89473 12.3632C2.83461 12.5838 2.87238 12.8174 2.99974 13.0124C3.1271 13.2075 3.33361 13.3481 3.57384 13.4033C3.81407 13.4585 4.06835 13.4238 4.28074 13.3068C4.77707 13.03 5.24146 12.7074 5.66674 12.3443V18.5714C5.66674 18.7987 5.76507 19.0168 5.94011 19.1775C6.11514 19.3382 6.35254 19.4286 6.60007 19.4286C6.84761 19.4286 7.085 19.3382 7.26004 19.1775C7.43507 19.0168 7.5334 18.7987 7.5334 18.5714V9.99998Z"
        fill="white" />
</svg>
