<svg width="20" height="20" viewBox="0 0 20 20" fill="none" xmlns="http://www.w3.org/2000/svg">
<path d="M1.57983 17.7989C1.58002 18.149 1.86401 18.4332 2.21393 18.4334L17.8009 18.4334C18.1508 18.4332 18.4348 18.149 18.435 17.7989L18.435 2.2008C18.4348 1.85064 18.1508 1.56645 17.8009 1.56626L2.21393 1.56626C1.86401 1.56645 1.58002 1.85064 1.57983 2.2008L1.57983 17.7989ZM0.0148392 2.2008C0.0150261 0.985302 0.999289 0.000339508 2.21393 0.000152588L17.8009 0.000152588C19.0156 0.000339508 19.9998 0.985302 20 2.2008L20 17.7989C19.9998 19.0144 19.0156 19.9993 17.8009 19.9995L2.21393 19.9995C0.999289 19.9993 0.0150261 19.0144 0.0148392 17.7989L0.0148392 2.2008Z" fill="black"/>
<path d="M14.8784 6.80944C14.8784 5.87169 14.1192 5.11107 13.1821 5.11103C12.245 5.11103 11.4849 5.87167 11.4849 6.80944C11.485 7.74718 12.245 8.50696 13.1821 8.50696C14.1192 8.50692 14.8784 7.74716 14.8784 6.80944ZM16.4443 6.80944C16.4443 8.61249 14.9839 10.0739 13.1821 10.074C11.3803 10.074 9.91996 8.61252 9.91992 6.80944C9.91992 5.00634 11.3803 3.54492 13.1821 3.54492C14.9839 3.54496 16.4443 5.00636 16.4443 6.80944Z" fill="black"/>
<path d="M2.89039 9.9256C5.54779 9.86547 8.1407 10.7516 10.2054 12.4269C12.2701 14.1021 13.6724 16.4577 14.1629 19.072C14.2425 19.4971 13.9633 19.9065 13.5387 19.9865C13.1137 20.0663 12.7037 19.7862 12.6239 19.3609C12.2019 17.1117 10.9951 15.086 9.21873 13.6447C7.5535 12.2935 5.48972 11.5383 3.35449 11.4917H2.90658C2.24341 11.4899 1.58104 11.5517 0.929652 11.6762L0.850503 11.6879C0.455308 11.7226 0.0901479 11.4526 0.0140406 11.0543C-0.0671054 10.6293 0.211764 10.2192 0.636441 10.138L1.20038 10.0435C1.75997 9.96407 2.32474 9.92594 2.89039 9.9265V9.9256Z" fill="black"/>
<path d="M15.6625 12.7626C16.9519 12.7621 18.2328 12.9709 19.4544 13.3837L19.5291 13.4134C19.8901 13.5778 20.075 13.9923 19.9455 14.3765C19.8072 14.7863 19.363 15.0071 18.9534 14.8688C18.0257 14.5553 17.0586 14.3763 16.0816 14.3369L15.6616 14.3279H15.6598C14.4192 14.3252 13.1896 14.5451 12.0288 14.975L11.535 15.1721C11.1379 15.3426 10.6776 15.159 10.507 14.7617C10.3364 14.3641 10.5207 13.9027 10.918 13.732L11.2004 13.615C12.619 13.0481 14.134 12.7584 15.6634 12.7617L15.6625 12.7626Z" fill="black"/>
</svg>
