<svg width="20" height="20" viewBox="0 0 20 20" fill="none" xmlns="http://www.w3.org/2000/svg">
<path d="M10 2C7.87827 2 5.84344 2.84285 4.34315 4.34315C2.84285 5.84344 2 7.87827 2 10C2 12.1217 2.84285 14.1566 4.34315 15.6569C5.84344 17.1571 7.87827 18 10 18C12.1217 18 14.1566 17.1571 15.6569 15.6569C17.1571 14.1566 18 12.1217 18 10C18 7.87827 17.1571 5.84344 15.6569 4.34315C14.1566 2.84285 12.1217 2 10 2ZM0 10C0 4.477 4.477 0 10 0C15.523 0 20 4.477 20 10C20 15.523 15.523 20 10 20C4.477 20 0 15.523 0 10Z" fill="#22C55E"/>
<path d="M13.7066 7.29303C13.8941 7.48056 13.9994 7.73487 13.9994 8.00003C13.9994 8.26519 13.8941 8.5195 13.7066 8.70703L9.70659 12.707C9.51906 12.8945 9.26476 12.9998 8.99959 12.9998C8.73443 12.9998 8.48012 12.8945 8.29259 12.707L6.29259 10.707C6.19708 10.6148 6.1209 10.5044 6.06849 10.3824C6.01608 10.2604 5.9885 10.1292 5.98734 9.99643C5.98619 9.86365 6.01149 9.73197 6.06177 9.60908C6.11205 9.48618 6.18631 9.37453 6.2802 9.28064C6.37409 9.18674 6.48574 9.11249 6.60864 9.06221C6.73154 9.01193 6.86321 8.98663 6.99599 8.98778C7.12877 8.98893 7.25999 9.01652 7.382 9.06893C7.504 9.12134 7.61435 9.19752 7.70659 9.29303L8.99959 10.586L12.2926 7.29303C12.4801 7.10556 12.7344 7.00024 12.9996 7.00024C13.2648 7.00024 13.5191 7.10556 13.7066 7.29303Z" fill="#22C55E"/>
</svg>
