<svg width="21" height="22" viewBox="0 0 21 22" fill="none" xmlns="http://www.w3.org/2000/svg">
    <path
        d="M19.2171 8.87083C19.217 8.32711 18.9763 7.8175 18.5723 7.48579H18.5712L11.8474 1.95686L11.844 1.95462C11.585 1.74012 11.2676 1.61047 10.935 1.58147L10.7917 1.57586C10.4075 1.57586 10.0353 1.7095 9.73932 1.95462L9.73596 1.95686L3.01104 7.48579C2.6077 7.81758 2.36635 8.32695 2.36619 8.87083V17.8243C2.36636 18.8191 3.14519 19.5913 4.06562 19.5914H17.5177C18.4381 19.5913 19.217 18.8191 19.2171 17.8243V8.87083ZM20.7083 17.8243C20.7082 19.6059 19.2978 21.0828 17.5177 21.0829H4.06562C2.28556 21.0828 0.875163 19.6059 0.875 17.8243V8.87083C0.875157 7.88898 1.31083 6.95311 2.06504 6.33272L8.78773 0.807146V0.806025C9.35111 0.339051 10.0602 0.083252 10.7917 0.083252L11.0648 0.0955783C11.6981 0.150902 12.3027 0.39746 12.7956 0.806025L12.7945 0.807146L19.5172 6.33272L19.6549 6.45262C20.3254 7.07029 20.7082 7.95027 20.7083 8.87083V17.8243Z"
        fill="#CCCCCC" />
    <path
        d="M12.9116 20.337V15.1733C12.9116 14.7625 12.7496 14.3679 12.4593 14.0774C12.1691 13.7869 11.7749 13.6247 11.3644 13.6247H10.2181C9.8076 13.6247 9.4134 13.7869 9.12317 14.0774C8.83293 14.3679 8.67088 14.7625 8.67088 15.1733V20.337C8.67088 20.7489 8.33682 21.0833 7.92528 21.0833C7.51375 21.0833 7.17969 20.7489 7.17969 20.337V15.1733C7.17969 14.3669 7.49998 13.5932 8.0697 13.0229C8.63942 12.4527 9.41235 12.1321 10.2181 12.1321H11.3644C12.1701 12.1321 12.9431 12.4527 13.5128 13.0229C14.0825 13.5932 14.4028 14.3669 14.4028 15.1733V20.337C14.4028 20.7489 14.0687 21.0833 13.6572 21.0833C13.2457 21.0833 12.9116 20.7489 12.9116 20.337Z"
        fill="#CCCCCC" />
</svg>
