<svg width="24" height="24" viewBox="0 0 24 24" fill="none" xmlns="http://www.w3.org/2000/svg">
    <path
        d="M16.4404 3.59998C19.2317 3.60021 21.4999 5.87384 21.5 8.68982C21.5 9.68347 21.3616 10.6104 21.1162 11.4779L21.0039 11.8461L21.0029 11.849C20.2487 14.2357 18.7033 16.1595 17.0352 17.5931C15.5737 18.8492 14.0403 19.7106 12.915 20.1664L12.459 20.3363L12.4531 20.3383C12.3532 20.3734 12.189 20.3998 12 20.3998C11.858 20.3998 11.7301 20.3849 11.6328 20.3627L11.5469 20.3383L11.541 20.3363L11.085 20.1664C9.9597 19.7106 8.42634 18.8492 6.96484 17.5931C5.40096 16.2491 3.94481 14.4745 3.14746 12.2914L2.99707 11.849L2.99609 11.8461L2.88379 11.4779C2.63838 10.6104 2.5 9.68347 2.5 8.68982C2.50008 5.87384 4.76829 3.60021 7.55957 3.59998C9.20459 3.59998 10.6795 4.39957 11.5996 5.62927L12 6.16443L12.4004 5.62927C13.3205 4.39957 14.7954 3.59998 16.4404 3.59998Z"
        stroke="white" />
</svg>
