<svg width="25" height="25" viewBox="0 0 25 25" fill="none" xmlns="http://www.w3.org/2000/svg">
    <path
        d="M18.04 23.25H6.46C3.72 23.25 1.5 21.02 1.5 18.28V10.87C1.5 9.51 2.34 7.8 3.42 6.96L8.81 2.76C10.43 1.5 13.02 1.44 14.7 2.62L20.88 6.95C22.07 7.78 23 9.56001 23 11.01V18.29C23 21.02 20.78 23.25 18.04 23.25ZM9.73 3.94L4.34 8.14C3.63 8.7 3 9.97001 3 10.87V18.28C3 20.19 4.55 21.75 6.46 21.75H18.04C19.95 21.75 21.5 20.2 21.5 18.29V11.01C21.5 10.05 20.81 8.72 20.02 8.18L13.84 3.85C12.7 3.05 10.82 3.09 9.73 3.94Z"
        fill="#F7618C" />
    <path d="M12.25 19.25C11.84 19.25 11.5 18.91 11.5 18.5V15.5C11.5 15.09 11.84 14.75 12.25 14.75C12.66 14.75 13 15.09 13 15.5V18.5C13 18.91 12.66 19.25 12.25 19.25Z" fill="#F7618C" />
</svg>
