<svg width="101" height="100" viewBox="0 0 101 100" fill="none" xmlns="http://www.w3.org/2000/svg">
    <rect x="0.5" width="100" height="100" rx="50" fill="url(#paint0_linear_4020_3135)" />
    <path d="M63.8332 36.6667C63.8332 27.8294 58.5318 23.3334 50.4998 23.3334C42.4678 23.3334 37.1665 27.8294 37.1665 36.6667M50.4998 50V56.6667" stroke="#CCCCCC" stroke-width="4" stroke-linecap="round" />
    <path
        d="M50.5 41.816L49.0813 43.224C49.2672 43.4111 49.4882 43.5595 49.7317 43.6608C49.9752 43.7621 50.2363 43.8143 50.5 43.8143C50.7637 43.8143 51.0248 43.7621 51.2683 43.6608C51.5118 43.5595 51.7328 43.4111 51.9187 43.224L50.5 41.816ZM44.4227 71.384C40.7693 68.5973 36.8173 65.904 33.6787 62.4827C30.612 59.1387 28.5 55.2693 28.5 50.264H24.5C24.5 56.56 27.212 61.3493 30.732 65.1867C34.1827 68.9493 38.5853 71.96 41.996 74.5653L44.4227 71.384ZM28.5 50.2667C28.5 45.4027 31.34 41.296 35.26 39.56C39.0707 37.8747 44.1987 38.3173 49.0813 43.2267L51.9187 40.408C45.9987 34.456 39.132 33.4747 33.6413 35.9013C28.26 38.2827 24.5 43.832 24.5 50.2667H28.5ZM41.9933 74.568C43.2227 75.504 44.5533 76.5147 45.9027 77.2773C47.2547 78.0427 48.8093 78.6693 50.5 78.6693V74.6693C49.7907 74.6693 48.9453 74.4027 47.8733 73.7947C46.8013 73.1893 45.6867 72.352 44.4227 71.3867L41.9933 74.568ZM59.0067 74.5653C62.4147 71.96 66.8173 68.952 70.268 65.1893C73.788 61.352 76.5 56.5627 76.5 50.2667H72.5C72.5 55.272 70.388 59.1413 67.3213 62.4853C64.1827 65.9067 60.228 68.6 56.5773 71.3867L59.0067 74.5653ZM76.5 50.2667C76.5 43.832 72.74 38.2827 67.3587 35.904C61.868 33.472 54.9987 34.456 49.0813 40.408L51.9187 43.2267C56.7987 38.3173 61.9293 37.8747 65.74 39.56C69.66 41.2933 72.5 45.4 72.5 50.2667H76.5ZM56.5773 71.3867C55.3107 72.352 54.1987 73.1893 53.1267 73.7947C52.0547 74.4027 51.2067 74.6693 50.5 74.6693V78.6693C52.1907 78.6693 53.7453 78.0427 55.0973 77.2773C56.4493 76.512 57.7773 75.5013 59.0067 74.5653L56.5773 71.3867Z"
        fill="#CCCCCC" />
    <defs>
        <linearGradient id="paint0_linear_4020_3135" x1="50.5" y1="0" x2="50.5" y2="110.5" gradientUnits="userSpaceOnUse">
            <stop stop-color="#E9E9E9" />
            <stop offset="1" stop-color="white" stop-opacity="0" />
        </linearGradient>
    </defs>
</svg>
