<svg width="24" height="25" viewBox="0 0 24 25" fill="none" xmlns="http://www.w3.org/2000/svg">
    <g clip-path="url(#clip0_223_1141)">
        <path
            d="M2.46869 19.0038L1.43875 19.4375C1.26354 19.5115 1.10558 19.6211 0.974875 19.7592C0.844166 19.8974 0.743547 20.0612 0.679379 20.2403C0.471442 20.8225 0.679567 21.4746 1.18554 21.8261C1.83466 22.2769 2.7985 22.8618 3.7045 23.0883C5.1491 23.4494 10.2432 23.9097 10.8053 23.9599L11.1072 24.1436C11.2084 24.2054 11.3265 24.2338 11.4447 24.2251C11.563 24.2164 11.6755 24.1708 11.7666 24.0949C11.831 24.0414 11.8827 23.9744 11.918 23.8986C11.9534 23.8228 11.9715 23.7402 11.9712 23.6565C11.9708 23.5063 11.9108 23.3625 11.8044 23.2565L11.9999 22.9632L12.1953 23.2565C12.1426 23.3089 12.1008 23.3713 12.0721 23.4399C12.0435 23.5086 12.0287 23.5822 12.0286 23.6565C12.0282 23.7402 12.0464 23.8228 12.0817 23.8986C12.1171 23.9744 12.1688 24.0414 12.2331 24.0949C12.3242 24.1709 12.4367 24.2164 12.555 24.2252C12.6733 24.2339 12.7913 24.2055 12.8926 24.1437L13.2717 23.9129C13.8329 23.867 18.8512 23.4493 20.2953 23.0884C21.2013 22.8619 22.1651 22.277 22.8142 21.8261C23.3202 21.4747 23.5284 20.8226 23.3204 20.2404C23.2562 20.0613 23.1556 19.8975 23.0249 19.7593C22.8942 19.6211 22.7362 19.5116 22.561 19.4376L21.5384 19.007C21.3268 18.9181 21.0964 18.8836 20.8681 18.9065L15.7377 19.4258L15.8383 19.0134C15.8408 19.0029 15.8425 18.9922 15.8433 18.9814L16.0302 16.177L16.7269 11.6482C16.7662 11.393 16.7345 11.1318 16.6352 10.8935L16.5215 10.6209C16.4413 10.4273 16.3187 10.2542 16.1628 10.1143C16.0068 9.97444 15.8214 9.87132 15.6203 9.81255L14.5868 9.50862L13.3125 9.08355V8.16218C13.9306 7.48905 14.3353 6.41702 14.3353 5.4678C14.3353 4.61627 13.9945 3.85568 13.4631 3.35871C13.4795 3.28905 13.4949 3.21312 13.4949 3.13324C13.4949 2.30899 12.8243 1.6384 12.0001 1.6384C11.1758 1.6384 10.5052 2.30899 10.5052 3.13324C10.5052 3.21949 10.5223 3.29149 10.54 3.3559C10.0069 3.85277 9.66475 4.61458 9.66475 5.46771C9.66475 6.41693 10.0695 7.48896 10.6876 8.16209V9.03012L9.40975 9.50937L8.37963 9.81237C8.17852 9.87108 7.99314 9.97418 7.83717 10.1141C7.68119 10.2539 7.5586 10.427 7.47841 10.6206L7.36479 10.8933C7.26545 11.1317 7.2337 11.3928 7.273 11.648L7.96975 16.1768L8.15669 18.9812C8.15744 18.992 8.15904 19.0027 8.16166 19.0132L8.2451 19.3553L3.12204 18.9017C2.89919 18.8822 2.67495 18.9172 2.46869 19.0038ZM3.79544 22.7244C3.59725 22.6749 3.39522 22.6059 3.19404 22.5246C3.17379 22.3205 3.15007 21.8358 3.3101 21.3695C3.39832 21.1124 3.81682 20.6983 4.03169 20.5044L4.90197 20.596C5.83939 20.6939 6.75013 20.9668 7.58697 21.4004L8.91091 22.0853L9.08079 22.7816C9.09236 22.8295 9.11327 22.8745 9.14233 22.9142C9.17139 22.954 9.20801 22.9875 9.2501 23.013L10.0758 23.5156C8.4685 23.3632 4.92391 23.0065 3.79544 22.7244ZM11.5986 21.9436C11.5778 21.8878 11.5457 21.8369 11.5045 21.794C11.4632 21.751 11.4136 21.7169 11.3587 21.6939L11.5992 21.4878C11.6221 21.4681 11.6494 21.4542 11.6789 21.4473C11.7083 21.4403 11.7389 21.4405 11.7682 21.4479L11.8124 21.4589V22.5683L11.5151 23.0141L10.9289 22.5312H11.1903C11.2713 22.5315 11.3507 22.5091 11.4196 22.4666C11.4885 22.424 11.544 22.363 11.58 22.2904C11.6066 22.2369 11.622 22.1786 11.6252 22.1189C11.6284 22.0593 11.6194 21.9996 11.5986 21.9436ZM14.1367 17.8942C13.7999 18.0092 12.7728 18.3384 12.0211 18.3476C11.2709 18.3586 10.2077 18.0142 9.86332 17.895L9.76413 16.5312H14.2359L14.1367 17.8942ZM11.9913 18.7228C12.0028 18.7228 12.0144 18.7228 12.0258 18.7226C12.7447 18.7137 13.659 18.4462 14.1072 18.2998L13.8881 21.3125H13.5937C13.569 21.3125 13.5445 21.3174 13.5216 21.3269L13.0289 21.5322L12.6448 21.2031C12.5763 21.1445 12.4949 21.1032 12.4072 21.0825C12.3195 21.0618 12.2282 21.0623 12.1408 21.084L12 21.1192L11.8593 21.084C11.7718 21.0622 11.6804 21.0617 11.5928 21.0824C11.5051 21.1031 11.4236 21.1445 11.3552 21.2031L10.9711 21.5322L10.4783 21.3269C10.4555 21.3174 10.431 21.3125 10.4062 21.3125H10.1118L9.89285 18.3011C10.3458 18.4503 11.2711 18.7228 11.9913 18.7228ZM12.1875 21.4589L12.2317 21.4479C12.291 21.4329 12.3543 21.4479 12.4008 21.4878L12.6412 21.6939C12.5863 21.717 12.5368 21.751 12.4955 21.794C12.4542 21.8369 12.4222 21.8878 12.4013 21.9436C12.3806 21.9996 12.3715 22.0593 12.3747 22.1189C12.3779 22.1785 12.3933 22.2369 12.42 22.2903C12.4559 22.3629 12.5115 22.4239 12.5804 22.4665C12.6493 22.509 12.7287 22.5314 12.8097 22.5311H13.0712L12.4848 23.0141L12.1875 22.5683V21.4589ZM20.2045 22.7244C19.0763 23.0065 15.5762 23.3356 13.9912 23.4748L14.7498 23.013C14.792 22.9875 14.8286 22.954 14.8577 22.9142C14.8868 22.8745 14.9077 22.8294 14.9193 22.7816L15.1116 21.9926L16.4823 21.3264C17.2728 20.9416 18.1244 20.6979 18.9988 20.6064L19.817 20.5202C19.97 20.6443 20.3958 21.0163 20.5076 21.3966C20.6103 21.746 20.4699 22.371 20.381 22.6752C20.322 22.6931 20.263 22.7097 20.2045 22.7244ZM20.9059 19.2794C21.0718 19.2629 21.2392 19.288 21.393 19.3525L22.4156 19.7831C22.5429 19.8368 22.6577 19.9164 22.7527 20.0168C22.8477 20.1172 22.9208 20.2363 22.9674 20.3664C23.1184 20.7894 22.9675 21.2629 22.6004 21.518C22.1227 21.8498 21.47 22.256 20.8082 22.5236C20.8894 22.1781 20.975 21.6569 20.8674 21.2908C20.7734 20.9711 20.5274 20.6747 20.3186 20.4674L21.2072 20.3739L21.1679 20.0009L18.9596 20.2333C18.0419 20.3294 17.148 20.5852 16.3184 20.9891L15.2271 21.5195L15.6436 19.8119L20.9059 19.2794ZM16.1754 10.7649L16.289 11.0375C16.3618 11.2123 16.3851 11.4037 16.3563 11.5909L15.6584 16.1277C15.6576 16.1331 15.657 16.1384 15.6566 16.1438L15.4702 18.9401L14.5549 22.6926L12.6977 23.8231C12.6632 23.8441 12.623 23.8538 12.5828 23.8508C12.5425 23.8478 12.5042 23.8323 12.4732 23.8065C12.4125 23.7558 12.4035 23.6913 12.4036 23.6574C12.4037 23.6234 12.4129 23.5589 12.4741 23.5087L13.7129 22.4885C13.7426 22.4639 13.7641 22.4308 13.7743 22.3935C13.7846 22.3563 13.7831 22.3168 13.77 22.2805C13.757 22.2442 13.7331 22.2127 13.7015 22.1905C13.67 22.1683 13.6323 22.1563 13.5937 22.1562H12.8096C12.7998 22.1563 12.7901 22.154 12.7814 22.1495C12.7727 22.1449 12.7652 22.1384 12.7596 22.1303C12.754 22.1222 12.7505 22.1129 12.7493 22.1032C12.7481 22.0935 12.7493 22.0836 12.7528 22.0744C12.7557 22.0666 12.7601 22.0595 12.7659 22.0535C12.7716 22.0475 12.7786 22.0427 12.7863 22.0395L13.6312 21.6875H13.8881C13.9827 21.6872 14.0738 21.6512 14.1431 21.5867C14.2124 21.5223 14.2549 21.4341 14.2621 21.3397L14.6239 16.3635L15.0199 13.5126C15.0708 13.1477 15.0553 12.7767 14.9742 12.4174L14.6719 11.0755C14.587 10.6961 14.585 10.3029 14.666 9.92271L15.5144 10.1723C15.8144 10.2603 16.0552 10.4764 16.1754 10.7649ZM11.0625 8.49902C11.3493 8.70705 11.666 8.83034 12 8.83034C12.3339 8.83034 12.6507 8.70705 12.9375 8.49902V9.41965C12.9375 9.93659 12.5169 10.3571 12 10.3571C11.483 10.3571 11.0625 9.93659 11.0625 9.41965V8.49902ZM10.0897 6.0213C10.3018 4.99587 11.1 4.25459 12 4.25459C12.9278 4.25459 13.713 4.9548 13.9204 5.96065C13.7337 7.16655 12.911 8.45534 12 8.45534C11.1041 8.45534 10.2941 7.2094 10.0897 6.0213ZM12 2.0134C12.6029 2.0134 13.0947 2.49265 13.1177 3.09002C12.7855 2.87908 12.4046 2.75899 12 2.75899C11.5953 2.75899 11.2144 2.87908 10.8823 3.09002C10.9053 2.49274 11.3971 2.0134 12 2.0134ZM12 3.13399C12.9337 3.13399 13.7164 3.9154 13.9125 4.95762C13.4852 4.29471 12.7864 3.87949 12 3.87949C11.2163 3.87949 10.5003 4.33896 10.0718 5.04996C10.2378 3.9619 11.0388 3.13399 12 3.13399ZM10.688 9.43052C10.6939 10.1492 11.2799 10.7321 12 10.7321C12.704 10.7321 13.2787 10.1745 13.3096 9.47787L14.3064 9.81012C14.2067 10.2538 14.2066 10.7141 14.3062 11.1578L14.6085 12.4997C14.6797 12.8162 14.6932 13.1396 14.6486 13.4609L14.2743 16.1562H9.72569L9.35013 13.4521C9.30623 13.1373 9.31865 12.8171 9.38679 12.5066L9.691 11.1175C9.78519 10.6849 9.78507 10.237 9.69063 9.80449L10.688 9.43052ZM7.6436 11.5909C7.6148 11.4037 7.63809 11.2123 7.71091 11.0375L7.82454 10.7648C7.88335 10.6228 7.97327 10.4959 8.08766 10.3933C8.20204 10.2908 8.33799 10.2151 8.48547 10.1721L9.33222 9.92299C9.40708 10.2909 9.40456 10.6703 9.32482 11.0371L9.0206 12.4263C8.94293 12.7801 8.92877 13.1449 8.97879 13.5036L9.376 16.3634L9.73788 21.3395C9.74503 21.4339 9.78749 21.5221 9.85681 21.5866C9.92612 21.651 10.0172 21.687 10.1118 21.6873H10.3687L11.2137 22.0393C11.2349 22.0481 11.2437 22.0649 11.2472 22.0742C11.2506 22.0835 11.2548 22.102 11.2445 22.1226C11.2395 22.1327 11.2318 22.1412 11.2222 22.1471C11.2126 22.153 11.2015 22.1561 11.1903 22.1561H10.4062C10.3676 22.1561 10.3299 22.168 10.2983 22.1902C10.2667 22.2125 10.2428 22.2439 10.2298 22.2803C10.2167 22.3166 10.2152 22.3561 10.2255 22.3934C10.2357 22.4306 10.2572 22.4638 10.2871 22.4883L11.5259 23.5085C11.587 23.5588 11.5962 23.6232 11.5964 23.6572C11.5966 23.6857 11.5905 23.7139 11.5785 23.7397C11.5664 23.7655 11.5487 23.7883 11.5267 23.8063C11.4957 23.8322 11.4574 23.8477 11.4172 23.8507C11.3769 23.8537 11.3367 23.844 11.3023 23.8229L9.44491 22.6924L8.52963 18.9399L8.34325 16.1436C8.3429 16.1382 8.34231 16.1329 8.34147 16.1276L7.6436 11.5909ZM8.79297 21.6021L7.75919 21.0673C6.8809 20.6122 5.92503 20.3258 4.94116 20.223L2.83207 20.001L2.79279 20.374L3.54213 20.4528C3.31929 20.6767 3.04385 20.9898 2.95535 21.2477C2.81425 21.6589 2.79672 22.0744 2.80694 22.353C2.28204 22.1004 1.78404 21.7849 1.39947 21.5179C1.03225 21.2629 0.88141 20.7894 1.03244 20.3663C1.12619 20.1038 1.32738 19.8911 1.58416 19.783L2.6141 19.3494C2.76397 19.2865 2.92686 19.2611 3.08875 19.2751L8.33875 19.7399L8.79297 21.6021Z"
            fill="#666666" />
    </g>
    <defs>
        <clipPath id="clip0_223_1141">
            <rect width="24" height="24" fill="white" transform="translate(0 0.5)" />
        </clipPath>
    </defs>
</svg>
