<svg width="22" height="20" viewBox="0 0 22 20" fill="none" xmlns="http://www.w3.org/2000/svg">
<path d="M14.2817 8.82088L14.2826 8.82178C13.9857 9.69446 13.4815 10.4857 12.8122 11.1323C12.1434 11.7784 11.328 12.2611 10.4334 12.5455L10.4343 12.5464L9.67917 12.7885L10.4343 13.0306L10.7634 13.1467C11.5212 13.4382 12.2125 13.8764 12.7931 14.4374C13.457 15.0789 13.9585 15.8633 14.2554 16.7282L14.5391 17.5554L14.8347 16.7408C15.1328 15.8811 15.6327 15.1019 16.2933 14.4635C16.9568 13.8225 17.7639 13.3403 18.6503 13.0549L19.4363 12.8029L18.6657 12.5428C17.7755 12.2585 16.9646 11.7757 16.2987 11.1323C15.6301 10.4861 15.1262 9.69574 14.8301 8.82358L14.5573 8.0297L14.2817 8.82088ZM5.68493 0.00630063C5.79116 0.0184734 5.89511 0.0471464 5.99316 0.0909091L6.13458 0.167417L6.26331 0.266427C6.34381 0.338611 6.41281 0.423127 6.46728 0.517552L6.53799 0.666067L6.54615 0.688569L7.0384 2.12331L7.03931 2.12601L7.09733 2.28173C7.24359 2.64008 7.46577 2.96735 7.75095 3.24302C8.0363 3.51883 8.37805 3.73629 8.7554 3.88029L8.91948 3.93789L8.93308 3.94149L10.399 4.43564L10.3981 4.43654C10.5456 4.48535 10.6818 4.56495 10.7942 4.67327L10.9021 4.79568L10.99 4.93339C11.0661 5.07773 11.1069 5.2397 11.107 5.40594C11.107 5.6277 11.034 5.84195 10.9021 6.0171C10.7716 6.19041 10.5902 6.31513 10.3872 6.37984L10.3881 6.38074L8.90316 6.85779L8.90226 6.85689C8.46511 6.99855 8.07033 7.23685 7.74732 7.54906C7.4239 7.86169 7.18187 8.24099 7.0384 8.65617L7.03478 8.66517L6.52983 10.0639L6.53074 10.0648C6.53011 10.0667 6.52866 10.0683 6.52802 10.0702L6.52439 10.081L6.52349 10.0801C6.45179 10.2827 6.3194 10.4555 6.14637 10.577C5.96916 10.7014 5.75864 10.7669 5.54442 10.7669C5.33021 10.7669 5.11968 10.7014 4.94248 10.577C4.76624 10.4532 4.63061 10.2768 4.55991 10.0693L4.06766 8.63636C3.92489 8.22131 3.68377 7.84165 3.36056 7.52925C3.03719 7.21671 2.64091 6.97977 2.2029 6.83888L0.718889 6.36274L0.719796 6.36184C0.5166 6.2972 0.3355 6.17246 0.204879 5.9991C0.105925 5.8677 0.0393744 5.71461 0.0126916 5.55266L0 5.38794L0.0126916 5.22412C0.0393477 5.06208 0.105873 4.90914 0.204879 4.77768L0.312758 4.65527C0.428104 4.54421 0.567827 4.46235 0.719796 4.41404L0.718889 4.41314L2.20381 3.93789L2.3688 3.88029C2.74609 3.73575 3.08777 3.51805 3.37325 3.24212C3.69933 2.92691 3.9428 2.54421 4.08579 2.12511L4.0876 2.12061L4.57986 0.70387C4.58876 0.678262 4.59855 0.653226 4.60977 0.629163C4.67942 0.46519 4.78817 0.321766 4.92888 0.214221L5.06486 0.126013C5.20628 0.0493785 5.36379 0.00619402 5.52448 0L5.68493 0.00630063ZM5.56165 2.67597C5.33567 3.31324 4.96417 3.89147 4.47379 4.36544C4.0002 4.82311 3.42883 5.16987 2.80303 5.38794C3.42414 5.60573 3.99077 5.95224 4.4611 6.40684C4.95675 6.88591 5.33173 7.47117 5.55621 8.11701C5.7821 7.47876 6.155 6.90023 6.64587 6.42574C7.12468 5.96295 7.70339 5.61185 8.33748 5.39424C7.70514 5.17723 7.12807 4.82795 6.6504 4.36634C6.15977 3.89212 5.78686 3.31388 5.56165 2.67597ZM22 12.8137C22 13.0555 21.921 13.2892 21.777 13.4806C21.6333 13.6717 21.4334 13.8105 21.2086 13.8812L21.2077 13.8803L19.1371 14.5455C18.4784 14.7576 17.8818 15.1145 17.3939 15.586C16.9059 16.0574 16.5406 16.6308 16.3241 17.2592L16.3196 17.27L15.6034 19.2529C15.5236 19.4753 15.3753 19.6642 15.1837 19.7966C14.9908 19.9298 14.7617 20 14.5292 20C14.2968 19.9999 14.0684 19.9298 13.8756 19.7966C13.6824 19.6631 13.5334 19.4722 13.454 19.2475L13.4513 19.2412L12.7614 17.234C12.5457 16.6055 12.1804 16.0321 11.6926 15.5608C11.2048 15.0894 10.6082 14.7326 9.94932 14.5212L7.87605 13.8551C7.65129 13.7845 7.45138 13.6464 7.30765 13.4554C7.18163 13.2879 7.10542 13.0878 7.08826 12.8785L7.08373 12.7885L7.08826 12.6985C7.10538 12.489 7.18157 12.2891 7.30765 12.1215L7.36385 12.0522C7.46221 11.9411 7.58129 11.8515 7.71287 11.7867L7.87605 11.721L9.94841 11.0558L9.95113 11.0549L10.1977 10.9685C10.7656 10.7518 11.2809 10.425 11.7116 10.009C12.2037 9.53361 12.5719 8.95495 12.7877 8.32043L12.7886 8.31593L13.4921 8.55626L13.5347 8.57066L12.7886 8.31593L13.4776 6.33303C13.5521 6.11045 13.694 5.92483 13.8692 5.79298L14.0161 5.69847C14.1699 5.61612 14.341 5.57024 14.5156 5.56346L14.6896 5.56976C14.8048 5.58269 14.9177 5.61305 15.0241 5.65977L15.1783 5.74167L15.3188 5.84698C15.4286 5.94345 15.5198 6.06081 15.5853 6.19352L15.6216 6.27543L15.6343 6.30963L16.3241 8.31773L16.325 8.32133L16.413 8.55626C16.6341 9.09867 16.9689 9.59398 17.3993 10.0099C17.8297 10.4258 18.3447 10.7523 18.9123 10.9685L19.1589 11.054L19.1734 11.0594L21.2249 11.7516L21.224 11.7525C21.4146 11.8154 21.5868 11.9268 21.7208 12.0783L21.777 12.1476L21.8278 12.2205C21.9395 12.3968 22 12.602 22 12.8137Z" fill="#CCCCCC"/>
</svg>
