<svg width="22" height="16" viewBox="0 0 22 16" fill="none" xmlns="http://www.w3.org/2000/svg">
    <path
        d="M21.5189 8.23866C21.4383 8.09696 21.3303 7.97271 21.2012 7.87317C21.0721 7.77362 20.9245 7.70077 20.767 7.65885C20.0524 7.4761 19.3122 7.41485 18.5773 7.47765C19.0004 5.60866 18.724 4.13375 18.4459 3.27399C18.3489 2.97027 18.1422 2.71358 17.8661 2.55396C17.5901 2.39434 17.2645 2.34324 16.9529 2.41061C15.9855 2.62756 15.0697 3.03098 14.2567 3.59833C13.691 2.36748 12.8355 1.29195 11.7635 0.4637C11.5436 0.297967 11.2757 0.208328 11.0003 0.208328C10.7249 0.208328 10.4569 0.297967 10.237 0.4637C9.16562 1.29232 8.31054 2.36777 7.7447 3.59833C6.93143 3.03088 6.01532 2.62744 5.04765 2.41061C4.736 2.34332 4.41045 2.39458 4.13456 2.55439C3.85866 2.7142 3.65222 2.97108 3.55553 3.2749C3.2774 4.13466 3.00108 5.60956 3.42417 7.47856C2.68927 7.41575 1.94904 7.477 1.23446 7.65975C1.07692 7.70167 0.929297 7.77453 0.800199 7.87407C0.6711 7.97362 0.563106 8.09786 0.482509 8.23957C0.397805 8.3852 0.342964 8.54625 0.321187 8.71331C0.299411 8.88037 0.311134 9.05009 0.355674 9.21257C0.655547 10.3251 1.57872 12.4396 4.37995 14.1165C7.18119 15.7935 9.66805 15.7917 11.0007 15.7917C12.3334 15.7917 14.8166 15.7917 17.6197 14.1165C20.4227 12.4414 21.3441 10.3251 21.644 9.21166C21.6888 9.0493 21.7008 8.87964 21.6793 8.71259C21.6579 8.54553 21.6033 8.38442 21.5189 8.23866ZM14.6681 4.63928C15.414 4.07682 16.2704 3.67853 17.1812 3.47059C17.2296 3.46071 17.2799 3.46915 17.3224 3.49425C17.3649 3.51936 17.3966 3.55935 17.4113 3.60648C17.7683 4.71357 18.1189 7.00384 16.4519 9.90291C15.7827 11.0463 14.925 12.0685 13.9152 12.9261C14.611 11.7148 15.1681 10.0778 15.1681 7.9252C15.1767 6.81031 15.0078 5.70116 14.6681 4.63928ZM4.59014 3.6092C4.60431 3.56156 4.63576 3.52094 4.67833 3.4953C4.7209 3.46966 4.77152 3.46084 4.82025 3.47059C5.73102 3.67853 6.58748 4.07682 7.33339 4.63928C6.99359 5.70116 6.82479 6.81031 6.8333 7.9252C6.8333 10.0778 7.39046 11.7166 8.08443 12.9234C7.07435 12.066 6.21668 11.0438 5.54774 9.90019C3.88258 7.00384 4.23319 4.71357 4.59014 3.6092ZM4.93803 13.1825C2.46475 11.7049 1.66298 9.88298 1.40478 8.92447C1.39801 8.90013 1.3962 8.87467 1.39947 8.84961C1.40274 8.82455 1.41101 8.80041 1.4238 8.77861C1.4434 8.74357 1.47591 8.71756 1.5144 8.70614C2.2466 8.52429 3.00785 8.49133 3.75303 8.6092C3.98278 9.24574 4.26868 9.86059 4.60735 10.4465C5.53684 12.0505 6.80433 13.433 8.32179 14.4979C7.12547 14.2612 5.9801 13.816 4.93803 13.1825ZM11.0007 14.6012C10.2143 14.0395 7.92045 12.0464 7.92045 7.9252C7.92045 3.99695 9.99873 2.00565 10.892 1.33161C10.9234 1.30809 10.9615 1.29537 11.0007 1.29537C11.0399 1.29537 11.0781 1.30809 11.1094 1.33161C12.0027 2.00565 14.081 3.99695 14.081 7.9252C14.081 12.0718 11.7989 14.0404 11.0007 14.6012ZM20.5949 8.9281C20.3367 9.88298 19.5349 11.7049 17.0616 13.1861C16.0184 13.8183 14.8721 14.262 13.6751 14.497C15.1926 13.4321 16.4601 12.0496 17.3896 10.4456C17.7297 9.86014 18.0172 9.24559 18.2484 8.6092C18.9944 8.49227 19.7563 8.52647 20.4889 8.70976C20.5273 8.72119 20.5599 8.74719 20.5795 8.78224C20.5919 8.80416 20.5999 8.82837 20.6029 8.85342C20.6058 8.87848 20.6037 8.90387 20.5967 8.9281H20.5949Z"
        fill="white" />
</svg>
