<svg width="343" height="435" viewBox="0 0 343 435" fill="none" xmlns="http://www.w3.org/2000/svg">
<g clip-path="url(#clip0_5080_3690)">
<path d="M118.327 135.836C118.209 138.215 118.402 140.577 118.753 142.932C119.325 146.8 119.988 151.242 117.566 154.627C117.55 154.647 117.542 154.662 117.526 154.682C117.515 154.733 117.511 154.784 117.503 154.835C117.483 154.926 117.42 154.997 117.349 155.044C117.333 155.166 117.223 155.268 117.081 155.197C117.069 155.193 117.057 155.185 117.045 155.177C116.923 155.189 116.801 155.122 116.737 155.02C116.446 154.867 116.15 154.717 115.854 154.564C115.712 154.489 115.574 154.419 115.432 154.34C113.948 153.542 112.489 152.685 111.223 151.569C109.743 150.275 108.678 148.691 107.893 146.902C107.061 145.004 106.288 143.117 105.203 141.344C104.181 139.677 103.025 137.955 101.522 136.678C100.745 136.025 99.8853 135.561 98.9267 135.239C97.9799 134.909 97.0016 134.692 96.0549 134.374C94.4651 133.843 92.9503 133.12 91.5144 132.247C88.6663 130.514 86.2047 128.124 84.323 125.38C82.4848 122.699 81.1909 119.648 80.607 116.448C80.5873 116.358 80.5715 116.26 80.5558 116.165C80.5321 115.992 80.6504 115.863 80.8043 115.827C80.8713 115.811 80.9463 115.811 81.0133 115.839C81.5498 116.051 82.0942 116.248 82.6386 116.437C84.8161 117.183 87.0726 117.726 89.3526 118.068C91.0962 118.331 92.8675 118.5 94.5756 118.976C96.185 119.424 97.7472 120.159 98.8359 121.464C100.067 122.942 100.367 124.892 101.061 126.634C101.42 127.538 101.913 128.344 102.615 129.028C103.29 129.672 104.059 130.211 104.808 130.769C105.554 131.331 106.268 131.925 106.868 132.648C107.416 133.309 107.858 134.056 108.217 134.834C109.743 138.113 109.834 141.855 111.416 145.11C112.836 148.027 115.384 150.267 116.84 153.149C116.915 153.294 116.986 153.448 117.057 153.597C117.081 153.42 117.108 153.247 117.128 153.078C117.321 151.215 117.199 149.312 116.753 147.492C116.666 147.123 116.564 146.753 116.449 146.395C115.791 144.308 114.706 142.401 113.562 140.546C112.457 138.765 111.317 137.012 110.323 135.164C109.361 133.376 108.509 131.524 107.763 129.633C106.284 125.851 105.25 121.897 104.666 117.883C104.083 113.862 103.956 109.785 104.292 105.74C104.611 101.833 105.376 97.9682 106.584 94.2376C106.623 94.1001 106.666 93.9703 106.71 93.8327C106.797 93.5851 107.171 93.5694 107.309 93.7738C107.321 93.7856 107.325 93.7974 107.333 93.8092C107.641 94.2494 107.968 94.6819 108.296 95.1103C109.637 96.8557 111.144 98.4636 112.753 99.9692C114.248 101.365 115.814 102.768 116.848 104.553C117.901 106.369 118.378 108.492 118.189 110.587C117.996 112.733 117.124 114.75 116.927 116.889C116.832 117.934 116.95 118.968 117.392 119.927C117.814 120.851 118.43 121.669 118.899 122.573C119.921 124.566 119.735 126.815 119.329 128.945C119.116 130.066 118.864 131.174 118.686 132.298C118.497 133.466 118.378 134.645 118.323 135.833L118.327 135.836Z" fill="#FFCCB5"/>
<path d="M123.057 176.688C122.844 175.981 122.631 175.273 122.41 174.565C121.495 171.688 120.765 168.739 119.988 165.815C119.601 164.36 119.219 162.906 118.832 161.451C118.489 160.15 118.169 158.829 117.656 157.579C117.159 156.36 116.434 155.319 115.499 154.391C115.479 154.371 115.459 154.352 115.439 154.336C114.564 153.479 113.601 152.72 112.729 151.867C110.986 150.157 109.897 148.023 109.029 145.77C108.177 143.537 107.503 141.21 106.335 139.115C105.002 136.721 103.045 134.736 101.183 132.75C99.3526 130.8 97.4748 128.878 95.3249 127.263C94.2322 126.445 93.0764 125.733 91.8535 125.116C90.5951 124.479 89.3012 123.913 88.0547 123.253C85.029 121.657 82.4412 119.302 80.6227 116.44C80.6029 116.35 80.5872 116.252 80.5714 116.157C80.5477 115.984 80.6661 115.854 80.8199 115.819C81.7627 117.289 82.9028 118.638 84.2045 119.805C86.1769 121.574 88.4807 122.722 90.8594 123.846C92.1099 124.432 93.3486 125.049 94.5083 125.796C95.6366 126.523 96.6938 127.357 97.6997 128.245C99.6958 130.014 101.51 131.984 103.313 133.938C104.256 134.964 105.171 136.009 105.972 137.137C106.714 138.183 107.329 139.303 107.842 140.475C108.804 142.668 109.447 144.984 110.445 147.166C110.938 148.247 111.526 149.292 112.276 150.22C113.057 151.191 114.027 151.981 114.966 152.795C115.609 153.349 116.236 153.927 116.796 154.568C116.808 154.356 116.812 154.147 116.82 153.935C116.832 153.672 116.844 153.404 116.852 153.141C116.919 151.278 116.919 149.418 116.769 147.547C116.769 147.527 116.765 147.508 116.765 147.488C116.599 145.389 116.272 143.297 115.81 141.238C115.341 139.162 114.718 137.122 113.944 135.136C113.167 133.116 112.165 131.217 111.274 129.252C110.362 127.247 109.759 125.187 109.783 122.97C109.814 120.694 110.303 118.469 110.678 116.232C111.017 114.231 111.234 112.175 110.887 110.166C110.714 109.176 110.382 108.209 109.869 107.34C109.333 106.44 108.662 105.634 108.118 104.745C106.994 102.905 106.67 100.802 106.536 98.6913C106.445 97.2133 106.433 95.7116 106.591 94.2335C106.631 94.0959 106.674 93.9662 106.717 93.8286C106.804 93.5809 107.179 93.5652 107.317 93.7696C107.329 93.7814 107.333 93.7932 107.341 93.805C107.286 95.9907 107.25 98.1764 107.558 100.354C107.7 101.396 107.944 102.43 108.378 103.389C108.808 104.344 109.467 105.166 110.059 106.027C110.631 106.864 111.124 107.745 111.432 108.72C111.735 109.683 111.889 110.693 111.929 111.707C112.011 113.806 111.645 115.882 111.274 117.95C110.867 120.19 110.461 122.486 110.769 124.77C111.057 126.901 112.035 128.851 112.974 130.765C114.863 134.629 116.264 138.674 117.037 142.904C117.416 145 117.649 147.122 117.731 149.245C117.802 151.042 117.771 152.842 117.57 154.623C117.538 154.89 117.503 155.158 117.463 155.425C117.479 155.456 117.503 155.48 117.522 155.507C118.256 156.628 118.718 157.897 119.092 159.179C119.917 162.029 120.623 164.914 121.372 167.788C121.759 169.243 122.126 170.701 122.493 172.167C122.864 173.634 123.167 175.112 123.507 176.582C123.566 176.837 123.132 176.936 123.057 176.688Z" fill="#FFBB9C"/>
<path d="M117.756 198.533C116.793 201.139 114.856 203.113 112.911 205.027C110.947 206.965 109.14 209.025 107.621 211.341C106.122 213.625 104.892 216.097 103.969 218.668C105.736 223.098 107.444 227.552 108.986 232.053C109.164 232.572 108.383 232.875 108.182 232.36C107.858 231.539 107.535 230.713 107.223 229.891C105.917 226.428 104.592 222.977 103.239 219.533C102.71 219.266 102.174 219.006 101.621 218.782C96.5049 216.64 90.8639 216.349 85.3885 216.015C82.6153 215.85 79.8461 215.681 77.0926 215.291C74.2839 214.886 71.416 214.277 68.9703 212.787C66.8874 211.521 65.1083 209.552 64.5166 207.146C64.4456 206.839 64.3785 206.521 64.5482 206.23C64.6902 205.983 64.9545 205.869 65.2306 205.853C65.5659 205.837 65.9091 205.92 66.2405 205.963C66.635 206.022 67.0294 206.081 67.4318 206.136C69.0373 206.368 70.6389 206.596 72.2445 206.828C75.3924 207.276 78.5443 207.708 81.6883 208.188C84.6785 208.648 87.6528 209.222 90.5168 210.216C94.8284 211.718 98.9389 214.065 102.304 217.174C101.314 214.694 100.316 212.209 99.2979 209.741C98.7456 208.412 98.1894 207.083 97.6253 205.755C97.499 205.774 97.3689 205.739 97.2979 205.613C97.0296 205.133 96.7259 204.67 96.4024 204.225C94.4655 202.916 92.1262 202.307 89.854 201.894C87.1834 201.411 84.4773 201.132 81.8027 200.668C78.7889 200.141 75.7948 199.5 72.8283 198.749C70.56 198.167 68.2642 197.507 66.2286 196.32C65.2503 195.75 64.347 195.066 63.5817 194.225C63.2109 193.816 62.8756 193.368 62.5994 192.888C62.2996 192.385 62.0117 191.791 62.1063 191.186C62.3194 189.841 63.9012 189.967 64.915 190.03C66.4929 190.124 68.0709 190.227 69.6527 190.325C72.6626 190.506 75.7277 190.549 78.7021 191.092C81.4319 191.591 83.9329 192.703 86.2406 194.221C88.4655 195.687 90.4773 197.448 92.4852 199.194C93.9211 200.448 95.357 201.737 96.5444 203.227C94.6351 198.757 92.6746 194.315 90.6548 189.889C90.4181 189.37 90.1736 188.847 89.929 188.328C87.9211 186.068 85.3491 184.322 82.5049 183.269C81.2031 182.789 79.85 182.459 78.4772 182.29C76.7376 182.074 74.9821 182.101 73.2307 182.117C71.5699 182.129 69.8973 182.133 68.2444 181.92C66.9427 181.755 65.6606 181.452 64.414 181.032C59.3884 179.357 55.053 175.76 52.5244 171.118C52.414 170.921 52.6112 170.654 52.8124 170.642C56.414 170.481 60.0353 170.328 63.633 170.611C66.773 170.858 69.9013 171.456 72.8243 172.651C75.3924 173.7 77.7751 175.182 79.9447 176.904C83.3412 179.597 86.2169 182.836 88.9428 186.197C86.501 180.945 83.9881 175.729 81.3924 170.552C81.2859 170.343 81.1794 170.139 81.0729 169.93C80.8638 169.557 80.6508 169.187 80.426 168.83C80.3037 168.649 80.1735 168.472 80.0473 168.295C79.3924 168.264 78.7415 168.22 78.0867 168.158C75.3608 167.898 72.6666 167.34 70.0551 166.522C68.7612 166.113 67.491 165.634 66.2484 165.099C64.9979 164.549 63.7671 163.951 62.4969 163.436C60.3943 162.579 58.1813 162.147 56.0156 161.506C54.0629 160.932 52.1142 160.158 50.6862 158.656C49.9879 157.925 49.0846 156.761 49.6999 155.724C50.2917 154.725 51.838 154.564 52.8755 154.466C55.4712 154.222 58.1103 154.815 60.6152 155.444C64.9387 156.529 69.1557 158.157 72.9151 160.559C74.7336 161.718 76.422 163.075 77.9171 164.624C78.2761 164.997 78.6153 165.382 78.9467 165.779C77.4398 162.925 75.8658 160.107 74.1577 157.371C73.8224 157.123 73.4831 156.879 73.1399 156.643C70.848 155.087 68.4575 153.734 66.0353 152.402C63.633 151.085 61.2227 149.772 58.9623 148.231C56.7532 146.725 54.6941 144.972 53.057 142.857C51.2108 140.459 49.9998 137.629 49.4988 134.657C49.2463 133.147 49.1832 131.61 49.3055 130.085C49.3646 129.322 49.479 128.564 49.6408 127.813C49.7946 127.117 49.9643 126.398 50.3548 125.792C52.0432 123.162 55.8814 125.399 57.8105 126.519C62.7375 129.377 66.7296 133.764 69.065 138.957C70.3667 141.862 71.0926 144.972 71.8815 148.042C72.28 149.599 72.7021 151.152 73.2307 152.673C73.7435 154.147 74.3746 155.582 75.0492 156.989C76.2603 158.939 77.4043 160.924 78.5088 162.933C78.2958 161.994 78.0985 161.054 77.9171 160.111C77.0295 155.397 76.564 150.597 76.8007 145.798C77.0334 141.08 78.0078 136.394 79.9053 132.05C80.0157 131.799 80.3905 131.748 80.5522 131.984C82.1341 134.287 83.6844 136.646 84.8086 139.209C85.7593 141.379 86.3708 143.722 86.2643 146.112C86.1459 148.651 85.0572 150.928 84.0512 153.215C82.998 155.606 82.3037 158.059 81.921 160.637C81.5502 163.161 81.4279 165.712 81.3135 168.256C81.9566 169.522 82.5956 170.787 83.2228 172.057C85.1597 175.949 87.0453 179.868 88.8915 183.807C88.5877 182.412 88.3234 181.008 88.1223 179.597C87.353 174.255 87.3333 168.806 88.0473 163.452C88.7613 158.086 90.2248 152.818 92.4221 147.857C92.5247 147.625 92.8836 147.563 93.0296 147.791C94.7259 150.405 96.4142 153.094 97.499 156.026C98.4221 158.542 98.8363 161.255 98.288 163.9C97.7121 166.668 96.2564 169.129 95.0533 171.652C92.643 176.743 91.2071 182.258 90.785 187.872C91.3728 189.146 91.9566 190.415 92.5325 191.693C93.9053 194.728 95.2505 197.774 96.5681 200.829C96.3945 199.252 96.2683 197.672 96.1973 196.092C95.9527 190.596 96.3551 185.053 97.6213 179.691C98.8718 174.373 101.006 169.27 104.134 164.765C104.264 164.568 104.604 164.627 104.683 164.851C105.712 167.969 106.466 171.188 106.852 174.447C107.172 177.124 107.184 179.908 106.288 182.482C105.397 185.057 103.475 187.054 102.028 189.319C99.1795 193.776 97.8225 199.186 98.1854 204.457C98.1894 204.504 98.1815 204.54 98.1697 204.579C99.1835 206.961 100.182 209.351 101.164 211.745C101.716 213.106 102.268 214.462 102.821 215.822C102.485 211.388 102.951 206.898 104.142 202.617C105.491 197.759 107.74 193.147 110.813 189.138C111.566 188.151 112.367 187.208 113.215 186.303C113.649 185.844 114.099 185.391 114.556 184.951C114.998 184.527 115.479 183.961 116.111 183.854C117.475 183.638 117.665 185.395 117.834 186.323C118.083 187.691 118.312 189.071 118.458 190.459C118.738 193.151 118.694 195.939 117.744 198.509L117.756 198.533Z" fill="#FFC1CF"/>
<path d="M81.523 296.59H82.7893C81.8977 295.431 81.0141 294.267 80.1344 293.1C76.6748 288.488 73.2665 283.838 69.9213 279.148C63.2665 269.808 56.8443 260.302 50.6707 250.64C48.9469 247.943 47.2348 245.238 45.5425 242.518C43.8226 239.755 42.0553 237.015 40.359 234.239C40.1223 233.854 39.5701 234.275 39.7949 234.656C41.2742 237.168 42.7101 239.7 44.2368 242.184C45.7279 244.613 47.2309 247.039 48.7575 249.449C51.8423 254.315 54.9942 259.143 58.2013 263.927C64.588 273.452 71.2073 282.824 78.0792 292.007C79.2192 293.532 80.3632 295.065 81.5112 296.59H81.523Z" fill="#BDC3B9"/>
<path d="M52.9035 204.556C52.9429 204.732 52.9666 204.905 52.9981 205.082C53.1993 205.314 53.3729 205.578 53.5031 205.865C53.9725 206.863 54.0041 208.023 53.9528 209.104C53.9055 210.122 53.8068 211.148 53.6688 212.158C53.3966 214.187 52.9508 216.207 52.221 218.13C51.4755 220.095 50.4183 221.939 49.0218 223.515C47.4794 225.261 45.6135 226.731 43.7042 228.06C40.0434 230.599 35.9803 232.553 31.7436 233.933C27.4595 235.328 22.994 236.154 18.5009 236.456C17.3924 236.531 16.2839 236.57 15.1715 236.578C14.1025 236.594 13.0295 236.57 11.9841 236.334C10.9032 236.091 9.80264 235.56 9.01762 234.762C7.64089 234.538 6.347 233.956 5.25823 233.032C4.53239 232.419 3.84994 231.645 3.44757 230.772C3.24639 230.332 3.1596 229.813 3.35684 229.353C3.45546 229.133 3.60536 228.944 3.79471 228.803C3.1596 228.177 2.62311 227.435 2.2523 226.625C1.48701 224.974 1.47123 223 2.59549 221.51C3.38445 220.461 4.61523 219.769 5.90518 219.773C5.34896 218.998 4.98999 218.086 4.84403 217.139C4.49294 214.859 5.40024 212.477 7.39631 211.231C8.919 210.279 10.8204 210.016 12.5206 210.523C11.8184 209.473 11.3529 208.251 11.4121 206.973C11.4752 205.644 12.1813 204.276 13.3608 203.604C14.6192 202.889 16.1183 203.129 17.3924 203.667C18.994 204.347 20.4654 205.358 21.7278 206.576C21.2465 204.89 21.0374 203.125 21.1952 201.395C21.3175 200.019 21.8106 198.588 23.0374 197.822C24.1854 197.098 25.7317 197.122 26.9349 197.692C28.0947 198.242 28.9546 199.221 29.5542 200.338C29.9053 198.604 31.0296 197.059 32.5917 196.167C34.6351 194.999 37.1637 195.321 39.0257 196.701C39.7989 197.275 40.434 198.022 40.86 198.875C41.4596 197.739 42.6588 196.98 43.9567 196.784C45.8068 196.497 47.5425 197.444 48.647 198.891C49.1914 199.598 49.5938 200.416 49.8502 201.269C50.0632 201.171 50.3039 201.128 50.5445 201.143C51.0415 201.187 51.4597 201.509 51.7555 201.89C52.3394 202.653 52.7023 203.62 52.9035 204.552V204.556Z" fill="white"/>
<path d="M40.6188 212.331C40.3032 212.048 39.9245 211.745 39.4708 211.801C39.0251 211.852 38.6898 212.217 38.4294 212.551C38.2519 212.775 38.1138 213.031 37.9955 213.29C37.8022 212.858 37.5655 212.441 37.2815 212.056C36.741 211.317 36.0349 210.676 35.2341 210.228C34.528 209.831 33.5142 209.556 32.9501 210.334C32.6937 210.688 32.6069 211.16 32.5359 211.58C32.4688 211.962 32.4491 212.347 32.457 212.732C32.0586 212.241 31.6049 211.789 31.1079 211.4C30.0743 210.59 28.3268 209.528 27.0842 210.515C25.956 211.411 26.1848 212.948 26.5832 214.14C26.7252 214.564 26.8791 214.985 27.0408 215.401C26.7489 215.063 26.4491 214.729 26.1414 214.407C25.2735 213.495 24.0191 212.571 22.6936 213.141C21.2341 213.77 21.3524 215.806 21.5851 217.096C21.6956 217.721 21.881 218.326 22.1295 218.912C21.7903 218.727 21.4392 218.562 21.0723 218.44C20.666 218.306 20.2084 218.161 19.7745 218.22C18.8198 218.35 18.5871 219.372 18.6029 220.178C18.6226 221.094 18.8593 222.013 19.2577 222.839C19.4668 223.271 19.7232 223.672 20.0151 224.05C19.7271 224.03 19.4392 224.034 19.1551 224.081C18.737 224.156 18.2557 224.278 17.9993 224.647C17.739 225.021 17.8297 225.496 17.9283 225.909C18.3701 227.717 19.6404 229.164 21.096 230.269C22.5753 231.393 24.2755 232.254 25.9718 232.997C27.6522 233.736 29.3919 234.33 31.171 234.782C32.6306 235.151 34.1138 235.434 35.6128 235.572C36.0704 235.757 36.528 235.945 36.9935 236.114C37.5655 236.323 38.3308 236.728 38.9304 236.413C39.1868 236.279 39.3052 236.087 39.3486 235.871C39.5576 235.937 39.7864 235.922 40.0271 235.761C40.5872 235.379 40.5912 234.518 40.678 233.917C40.749 233.429 40.7924 232.938 40.8476 232.447C41.4275 231.063 41.8811 229.628 42.2401 228.17C42.678 226.393 42.9699 224.584 43.1079 222.756C43.246 220.913 43.2855 219.014 42.9857 217.186C42.6898 215.386 42.0073 213.589 40.6148 212.347L40.6188 212.331Z" fill="#FFCCB5"/>
<path d="M56.7296 199.186C52.0629 196.874 47.9288 202.641 48.3391 206.926C42.6388 204.681 40.84 213.129 41.554 217.237C31.3054 214.037 36.7926 228.268 38.4021 232.91C35.2621 230.564 32.982 227.151 29.2739 225.547C26.3508 223.696 22.1377 225.603 22.6624 229.302C19.191 226.974 10.7136 225.166 10.4453 231.267C2.62281 227.47 -4.07545 235.171 2.96207 241.496C13.4316 251.756 34.7847 255.919 44.84 243.1C61.6172 240.387 69.1715 209.717 56.7296 199.182V199.186Z" fill="white"/>
<path d="M79.7355 225.728C79.9722 226.247 80.1891 226.778 80.3745 227.313C81.9012 231.735 81.6803 236.559 83.5461 240.887C85.4554 245.317 88.7099 249.268 89.057 254.245C89.2069 256.348 88.8913 258.482 88.13 260.46C87.2819 262.657 85.8381 264.536 84.3075 266.301C82.7927 268.035 81.1674 269.698 79.8933 271.62C78.6309 273.53 77.8223 275.622 77.7946 277.929C77.7789 279.175 77.8933 280.43 77.9682 281.676C78.0471 282.945 78.1378 284.219 78.2522 285.481C78.3666 286.766 78.5008 288.052 78.6664 289.329C78.7532 289.978 78.8518 290.627 78.9623 291.271C79.0175 291.578 79.0649 291.9 79.1082 292.215C79.2424 292.349 79.3726 292.474 79.4948 292.62C79.6211 292.773 79.3804 292.942 79.2503 292.801C79.2424 292.789 79.2227 292.777 79.2108 292.765C79.2384 292.891 79.2582 293.021 79.2858 293.143C79.341 293.402 78.9268 293.449 78.8716 293.19C78.8282 293.001 78.7808 292.812 78.7414 292.628C78.6388 292.655 78.5205 292.636 78.4337 292.537C78.0905 292.144 77.7236 291.767 77.3449 291.405C75.7 290.611 73.767 290.45 71.98 290.69C69.479 291.02 67.124 292.136 64.8242 293.119C62.7018 294.019 60.5125 294.861 58.2008 295.073C57.1357 295.167 56.043 295.132 55.0016 294.888C53.9049 294.636 52.903 294.157 51.9681 293.54C49.9996 292.227 48.3941 290.458 46.2718 289.361C44.2126 288.296 41.9719 287.832 39.6642 287.753C35.2737 287.596 30.7884 288.5 26.5991 286.778C22.4215 285.06 19.3249 281.514 16.4649 278.169C16.2716 277.949 16.5517 277.67 16.7923 277.749C17.3012 277.925 17.8219 278.055 18.3584 278.13C23.1237 278.79 27.3525 275.708 31.3447 273.641C33.5577 272.497 35.9956 271.471 38.5321 271.482C39.6563 271.486 40.7767 271.718 41.7629 272.273C42.753 272.827 43.5499 273.641 44.2481 274.525C45.6682 276.333 46.7373 278.366 48.5045 279.887C50.1811 281.33 52.2245 282.226 54.4651 282.045C55.6643 281.947 56.8399 281.66 58.047 281.64C59.1042 281.632 60.122 281.86 61.0845 282.297C62.9977 283.162 64.5598 284.616 66.4336 285.548C67.5579 286.11 68.7689 286.365 69.976 286.672C71.124 286.971 72.2443 287.364 73.3134 287.887C75.1911 288.795 76.8873 290.037 78.3272 291.531C78.3982 291.578 78.4574 291.629 78.5244 291.68C78.5244 291.665 78.5165 291.649 78.5126 291.633C78.5008 291.621 78.4929 291.617 78.4889 291.602C78.1773 291.051 77.8735 290.501 77.5658 289.951C75.1832 285.622 73.0688 280.921 72.623 275.948C72.4218 273.711 72.5836 271.467 73.1911 269.301C73.7788 267.205 74.7137 265.232 75.4751 263.2C76.2562 261.089 76.7493 258.946 76.6112 256.686C76.4652 254.394 75.8538 252.161 75.3449 249.928C74.4061 245.773 74.1891 241.531 74.8913 237.321C75.5816 233.205 77.0688 229.172 79.3647 225.666C79.4633 225.512 79.6842 225.579 79.7473 225.721L79.7355 225.728Z" fill="#BDC3B9"/>
<path d="M23.1873 258.636C22.9545 258.482 23.1399 258.105 23.4003 258.144C26.5719 258.612 29.3727 256.816 32.3155 255.97C33.499 255.632 34.7376 255.412 35.9803 255.518C37.2584 255.628 38.3471 256.151 39.3649 256.898C40.4103 257.665 41.432 258.596 42.7732 258.75C44.0513 258.899 45.3057 258.463 46.572 258.392C47.8225 258.321 48.9113 258.714 49.9488 259.387C50.9784 260.055 51.9015 260.904 53.0415 261.376C53.6806 261.643 54.3748 261.686 55.0257 261.895C55.72 262.115 56.2999 262.571 56.8403 263.042C57.7358 263.833 58.6234 264.638 59.4952 265.46C59.6372 265.586 59.7792 265.719 59.9133 265.857C60.0711 266.003 60.2289 266.152 60.3867 266.297C60.3867 266.274 60.3867 266.254 60.3867 266.223C59.1401 263.483 58.5287 260.507 57.9607 257.559C57.6885 256.167 57.4123 254.752 57.507 253.329C57.5977 251.988 58.0948 250.742 58.6194 249.523C59.1559 248.285 59.6924 247.055 59.9252 245.71C60.154 244.366 60.154 242.99 60.154 241.626C60.1579 240.281 60.1697 238.921 60.3985 237.593C60.6234 236.299 61.0258 235.041 61.5465 233.834C62.6234 231.354 64.1816 229.109 65.7516 226.916C65.866 226.758 66.1422 226.79 66.2013 226.975C66.6708 228.5 66.1501 230.037 66.0988 231.582C66.0475 233.103 66.3828 234.609 66.7457 236.075C67.3927 238.701 68.1579 241.386 67.4282 244.079C66.6708 246.874 64.7339 249.107 63.4281 251.634C62.797 252.853 62.292 254.166 62.1934 255.542C62.1382 256.312 62.2644 257.059 62.363 257.818C62.4538 258.498 62.4656 259.174 62.3749 259.858C62.083 262.095 60.8798 264.226 60.9193 266.498C61.0573 266.797 61.2072 267.091 61.3611 267.382C61.4676 267.579 61.1441 267.701 61.0415 267.508C61.006 267.453 60.9824 267.39 60.9469 267.335C60.939 267.351 60.9232 267.367 60.9114 267.382C60.9035 267.386 60.8956 267.398 60.8837 267.406C60.7496 267.516 60.4932 267.481 60.4538 267.253C60.4459 267.194 60.4419 267.135 60.434 267.076C60.3591 266.974 60.2881 266.871 60.2013 266.769C59.4991 266.191 58.8088 265.594 58.1263 264.988C56.7614 264.163 55.1559 263.707 53.5583 263.75C52.931 263.766 52.3078 263.852 51.7042 264.017C51.006 264.21 50.3235 264.473 49.6095 264.623C48.3156 264.898 47.0296 264.607 45.8541 264.041C44.6351 263.455 43.5621 262.626 42.4221 261.906C41.2308 261.152 39.9803 260.617 38.5562 260.53C37.2268 260.452 35.8974 260.688 34.5877 260.876C33.2702 261.073 31.9605 261.199 30.6311 261.116C27.9842 260.943 25.4121 260.074 23.1991 258.628L23.1873 258.636Z" fill="#BDC3B9"/>
<path d="M226.399 134.114C226.517 136.493 226.324 138.855 225.973 141.21C225.401 145.078 224.738 149.52 227.16 152.905C227.176 152.925 227.184 152.94 227.2 152.96C227.211 153.011 227.215 153.062 227.223 153.113C227.243 153.204 227.306 153.274 227.377 153.322C227.393 153.443 227.503 153.546 227.645 153.475C227.657 153.471 227.669 153.463 227.681 153.455C227.803 153.467 227.925 153.4 227.988 153.298C228.284 153.145 228.576 152.995 228.872 152.842C229.014 152.767 229.152 152.697 229.294 152.618C230.777 151.82 232.237 150.963 233.503 149.846C234.983 148.553 236.048 146.969 236.833 145.18C237.665 143.282 238.438 141.395 239.523 139.622C240.545 137.955 241.701 136.233 243.204 134.956C243.981 134.303 244.841 133.839 245.799 133.517C246.746 133.187 247.724 132.97 248.671 132.652C250.261 132.121 251.776 131.398 253.212 130.525C256.06 128.792 258.521 126.401 260.403 123.658C262.241 120.977 263.535 117.926 264.119 114.726C264.139 114.636 264.154 114.537 264.17 114.443C264.194 114.27 264.075 114.14 263.922 114.105C263.855 114.089 263.78 114.089 263.713 114.117C263.176 114.329 262.632 114.526 262.087 114.714C259.91 115.461 257.653 116.004 255.373 116.346C253.63 116.609 251.854 116.778 250.15 117.254C248.537 117.702 246.979 118.437 245.89 119.742C244.659 121.22 244.359 123.17 243.665 124.912C243.306 125.816 242.813 126.622 242.111 127.306C241.436 127.95 240.667 128.489 239.918 129.047C239.172 129.609 238.458 130.203 237.858 130.926C237.31 131.587 236.872 132.333 236.509 133.112C234.983 136.39 234.892 140.133 233.31 143.388C231.89 146.305 229.342 148.545 227.89 151.427C227.815 151.572 227.744 151.726 227.673 151.875C227.649 151.698 227.622 151.525 227.602 151.356C227.409 149.493 227.531 147.59 227.977 145.77C228.063 145.4 228.166 145.031 228.28 144.673C228.939 142.586 230.024 140.679 231.168 138.824C232.273 137.043 233.413 135.29 234.407 133.442C235.369 131.653 236.221 129.802 236.967 127.911C238.446 124.129 239.48 120.175 240.063 116.161C240.647 112.139 240.774 108.063 240.438 104.018C240.119 100.11 239.353 96.2461 238.146 92.5155C238.107 92.3779 238.063 92.2482 238.02 92.1106C237.933 91.8629 237.559 91.8472 237.42 92.0516C237.409 92.0634 237.405 92.0752 237.397 92.087C237.089 92.5273 236.762 92.9597 236.434 93.3882C235.093 95.1336 233.586 96.7414 231.977 98.247C230.482 99.6425 228.916 101.046 227.882 102.831C226.829 104.647 226.351 106.77 226.541 108.865C226.734 111.011 227.606 113.028 227.803 115.166C227.898 116.212 227.779 117.246 227.338 118.205C226.915 119.129 226.3 119.947 225.831 120.851C224.809 122.844 224.994 125.092 225.401 127.223C225.614 128.343 225.866 129.452 226.044 130.576C226.233 131.744 226.351 132.923 226.407 134.11L226.399 134.114Z" fill="#FFCCB5"/>
<path d="M221.673 174.966C221.886 174.259 222.099 173.551 222.32 172.843C223.239 169.966 223.965 167.018 224.742 164.093C225.129 162.638 225.511 161.184 225.898 159.729C226.241 158.428 226.561 157.107 227.073 155.857C227.57 154.639 228.296 153.597 229.231 152.669C229.251 152.649 229.271 152.63 229.29 152.614C230.166 151.757 231.129 150.998 232 150.145C233.744 148.435 234.833 146.301 235.701 144.048C236.553 141.815 237.227 139.488 238.395 137.393C239.728 134.999 241.685 133.014 243.547 131.028C245.377 129.079 247.255 127.156 249.405 125.541C250.498 124.723 251.653 124.011 252.876 123.394C254.135 122.757 255.429 122.191 256.675 121.531C259.701 119.935 262.289 117.58 264.107 114.718C264.127 114.628 264.143 114.53 264.158 114.435C264.182 114.262 264.064 114.133 263.91 114.097C262.967 115.567 261.827 116.916 260.525 118.083C258.553 119.852 256.249 121 253.87 122.124C252.62 122.71 251.381 123.327 250.221 124.074C249.093 124.802 248.036 125.635 247.03 126.523C245.034 128.292 243.219 130.262 241.417 132.216C240.474 133.242 239.559 134.287 238.758 135.415C238.016 136.461 237.401 137.582 236.888 138.753C235.926 140.947 235.283 143.262 234.285 145.444C233.791 146.525 233.204 147.57 232.454 148.498C231.673 149.469 230.703 150.259 229.764 151.073C229.121 151.627 228.494 152.205 227.933 152.846C227.922 152.634 227.918 152.425 227.91 152.213C227.898 151.95 227.886 151.682 227.878 151.419C227.811 149.556 227.811 147.696 227.961 145.825C227.961 145.805 227.965 145.786 227.965 145.766C228.131 143.667 228.458 141.576 228.92 139.516C229.389 137.44 230.012 135.4 230.785 133.415C231.563 131.394 232.565 129.495 233.456 127.53C234.367 125.525 234.971 123.465 234.947 121.248C234.916 118.972 234.427 116.747 234.052 114.51C233.713 112.509 233.496 110.453 233.843 108.444C234.016 107.454 234.348 106.487 234.86 105.618C235.397 104.718 236.068 103.912 236.612 103.023C237.736 101.184 238.06 99.0804 238.194 96.9694C238.285 95.4913 238.296 93.9897 238.139 92.5116C238.099 92.374 238.056 92.2443 238.012 92.1067C237.926 91.859 237.551 91.8433 237.413 92.0477C237.401 92.0595 237.397 92.0713 237.389 92.0831C237.444 94.2688 237.48 96.4544 237.172 98.6323C237.03 99.674 236.786 100.708 236.352 101.667C235.922 102.622 235.263 103.444 234.671 104.305C234.099 105.142 233.606 106.023 233.298 106.998C232.995 107.961 232.841 108.971 232.801 109.985C232.718 112.084 233.085 114.16 233.456 116.228C233.862 118.469 234.269 120.764 233.961 123.048C233.673 125.179 232.695 127.129 231.756 129.043C229.866 132.907 228.466 136.953 227.693 141.182C227.314 143.278 227.081 145.4 226.998 147.523C226.927 149.32 226.959 151.12 227.16 152.901C227.192 153.168 227.227 153.436 227.267 153.703C227.251 153.734 227.227 153.758 227.208 153.785C226.474 154.906 226.012 156.176 225.638 157.457C224.813 160.307 224.107 163.193 223.357 166.066C222.971 167.521 222.604 168.979 222.237 170.445C221.866 171.912 221.563 173.39 221.223 174.86C221.164 175.119 221.598 175.214 221.673 174.966Z" fill="#FFBB9C"/>
<path d="M225.243 196.811C226.206 199.417 228.143 201.391 230.088 203.305C232.052 205.243 233.859 207.303 235.378 209.619C236.877 211.903 238.107 214.375 239.03 216.946C237.263 221.377 235.555 225.83 234.013 230.332C233.835 230.85 234.616 231.153 234.817 230.638C235.141 229.817 235.464 228.991 235.776 228.169C237.082 224.706 238.407 221.255 239.76 217.811C240.289 217.544 240.825 217.284 241.378 217.06C246.494 214.918 252.135 214.627 257.61 214.293C260.384 214.128 263.153 213.959 265.906 213.569C268.715 213.164 271.583 212.555 274.029 211.065C276.111 209.799 277.891 207.83 278.482 205.424C278.553 205.118 278.62 204.799 278.451 204.508C278.309 204.261 278.044 204.147 277.768 204.131C277.433 204.115 277.09 204.198 276.758 204.241C276.364 204.3 275.969 204.359 275.567 204.414C273.962 204.646 272.36 204.874 270.754 205.106C267.607 205.554 264.455 205.986 261.311 206.466C258.32 206.926 255.346 207.5 252.482 208.494C248.171 209.996 244.06 212.343 240.695 215.452C241.681 212.972 242.683 210.487 243.701 208.019C244.253 206.69 244.81 205.361 245.374 204.033C245.5 204.052 245.634 204.017 245.705 203.891C245.973 203.411 246.277 202.948 246.6 202.503C248.537 201.194 250.877 200.585 253.149 200.172C255.819 199.689 258.526 199.41 261.2 198.946C264.214 198.419 267.208 197.778 270.175 197.027C272.443 196.446 274.739 195.785 276.774 194.598C277.753 194.028 278.656 193.344 279.421 192.503C279.792 192.094 280.127 191.646 280.403 191.166C280.703 190.663 280.991 190.069 280.897 189.464C280.684 188.12 279.102 188.245 278.088 188.308C276.51 188.403 274.932 188.505 273.35 188.603C270.34 188.784 267.275 188.827 264.301 189.37C261.571 189.869 259.07 190.981 256.762 192.499C254.537 193.965 252.526 195.726 250.518 197.472C249.082 198.726 247.646 200.015 246.458 201.505C248.368 197.035 250.328 192.593 252.348 188.167C252.585 187.648 252.829 187.125 253.074 186.606C255.082 184.346 257.654 182.6 260.498 181.547C261.8 181.067 263.153 180.737 264.526 180.568C266.265 180.352 268.021 180.379 269.772 180.395C271.433 180.407 273.106 180.411 274.758 180.198C276.06 180.033 277.342 179.731 278.589 179.31C283.614 177.635 287.95 174.038 290.478 169.396C290.589 169.199 290.392 168.932 290.19 168.92C286.589 168.759 282.968 168.606 279.37 168.889C276.23 169.136 273.102 169.734 270.179 170.929C267.61 171.978 265.228 173.46 263.058 175.182C259.662 177.875 256.786 181.114 254.06 184.475C256.502 179.223 259.015 174.007 261.61 168.83C261.717 168.621 261.823 168.417 261.93 168.209C262.139 167.835 262.352 167.466 262.577 167.108C262.699 166.927 262.829 166.75 262.956 166.573C263.61 166.542 264.261 166.499 264.916 166.436C267.642 166.18 270.336 165.618 272.948 164.8C274.242 164.391 275.512 163.912 276.755 163.377C278.005 162.827 279.236 162.229 280.506 161.714C282.609 160.857 284.822 160.425 286.987 159.784C288.94 159.21 290.889 158.436 292.317 156.934C293.015 156.203 293.918 155.039 293.303 154.002C292.711 153.003 291.165 152.842 290.127 152.744C287.532 152.5 284.893 153.094 282.388 153.722C278.064 154.807 273.847 156.435 270.088 158.837C268.269 159.996 266.581 161.353 265.086 162.902C264.727 163.275 264.388 163.66 264.056 164.057C265.563 161.203 267.137 158.385 268.845 155.649C269.181 155.401 269.52 155.157 269.863 154.921C272.155 153.365 274.545 152.012 276.968 150.68C279.37 149.363 281.78 148.05 284.041 146.509C286.25 145.003 288.309 143.25 289.946 141.135C291.792 138.737 293.003 135.907 293.504 132.935C293.757 131.425 293.82 129.888 293.697 128.363C293.638 127.6 293.524 126.842 293.362 126.091C293.208 125.395 293.039 124.676 292.648 124.07C290.96 121.44 287.117 123.677 285.192 124.798C280.265 127.655 276.273 132.043 273.938 137.235C272.636 140.141 271.91 143.25 271.121 146.32C270.723 147.877 270.301 149.43 269.772 150.951C269.259 152.425 268.628 153.86 267.954 155.267C266.743 157.217 265.599 159.202 264.494 161.211C264.707 160.272 264.904 159.332 265.086 158.389C265.973 153.675 266.439 148.875 266.202 144.076C265.969 139.358 264.995 134.672 263.098 130.329C262.987 130.077 262.612 130.026 262.451 130.262C260.869 132.565 259.319 134.924 258.194 137.487C257.24 139.657 256.632 142 256.739 144.39C256.857 146.93 257.946 149.206 258.952 151.494C260.005 153.884 260.699 156.337 261.082 158.915C261.453 161.439 261.575 163.99 261.689 166.534C261.046 167.8 260.407 169.066 259.78 170.335C257.843 174.227 255.958 178.146 254.111 182.085C254.415 180.69 254.679 179.286 254.881 177.875C255.65 172.533 255.67 167.084 254.956 161.73C254.242 156.364 252.778 151.097 250.581 146.135C250.478 145.904 250.119 145.841 249.973 146.069C248.277 148.683 246.589 151.372 245.504 154.304C244.581 156.82 244.167 159.533 244.715 162.178C245.291 164.946 246.746 167.407 247.95 169.93C250.36 175.021 251.796 180.536 252.218 186.15C251.63 187.424 251.046 188.693 250.47 189.971C249.098 193.006 247.752 196.052 246.435 199.107C246.608 197.531 246.735 195.95 246.806 194.37C247.05 188.874 246.648 183.331 245.382 177.969C244.131 172.651 241.997 167.548 238.869 163.043C238.739 162.847 238.399 162.906 238.32 163.13C237.291 166.247 236.537 169.466 236.151 172.725C235.831 175.402 235.819 178.186 236.715 180.761C237.606 183.335 239.527 185.332 240.975 187.597C243.823 192.055 245.18 197.464 244.817 202.735C244.813 202.782 244.821 202.818 244.833 202.857C243.819 205.239 242.821 207.63 241.839 210.024C241.287 211.384 240.735 212.74 240.182 214.1C240.518 209.666 240.052 205.177 238.861 200.896C237.512 196.037 235.263 191.426 232.194 187.416C231.441 186.429 230.64 185.486 229.792 184.582C229.358 184.122 228.908 183.67 228.45 183.229C228.009 182.805 227.527 182.239 226.896 182.132C225.531 181.916 225.342 183.673 225.172 184.601C224.924 185.969 224.695 187.349 224.549 188.737C224.269 191.429 224.312 194.217 225.263 196.788L225.243 196.811Z" fill="#FFC1CF"/>
<path d="M261.476 294.868H260.21C261.101 293.709 261.985 292.545 262.865 291.378C266.324 286.766 269.733 282.116 273.078 277.426C279.733 268.086 286.155 258.58 292.328 248.918C294.052 246.221 295.764 243.517 297.457 240.796C299.177 238.033 300.944 235.293 302.64 232.517C302.877 232.132 303.429 232.553 303.204 232.934C301.725 235.446 300.289 237.978 298.762 240.462C297.271 242.892 295.768 245.317 294.242 247.727C291.157 252.593 288.005 257.421 284.798 262.205C278.411 271.73 271.792 281.102 264.92 290.281C263.78 291.806 262.636 293.339 261.488 294.864L261.476 294.868Z" fill="#BDC3B9"/>
<path d="M290.096 202.834C290.056 203.011 290.033 203.184 290.001 203.36C289.8 203.592 289.626 203.856 289.496 204.143C289.027 205.141 288.995 206.301 289.046 207.382C289.094 208.4 289.192 209.426 289.33 210.436C289.603 212.465 290.048 214.485 290.778 216.408C291.524 218.373 292.581 220.217 293.977 221.793C295.52 223.539 297.386 225.009 299.295 226.338C302.956 228.877 307.019 230.831 311.256 232.211C315.54 233.606 320.005 234.432 324.498 234.734C325.607 234.809 326.715 234.848 327.828 234.856C328.897 234.872 329.97 234.848 331.015 234.613C332.096 234.369 333.197 233.838 333.982 233.04C335.358 232.816 336.652 232.234 337.741 231.31C338.467 230.697 339.149 229.923 339.552 229.05C339.753 228.61 339.84 228.091 339.642 227.631C339.544 227.411 339.394 227.222 339.204 227.081C339.84 226.456 340.376 225.713 340.747 224.903C341.512 223.252 341.528 221.278 340.404 219.788C339.615 218.739 338.384 218.047 337.094 218.051C337.65 217.276 338.009 216.364 338.155 215.417C338.506 213.137 337.599 210.755 335.603 209.509C334.08 208.557 332.179 208.294 330.479 208.801C331.181 207.751 331.646 206.529 331.587 205.251C331.524 203.923 330.818 202.555 329.638 201.882C328.38 201.167 326.881 201.407 325.607 201.945C324.005 202.625 322.534 203.636 321.271 204.854C321.753 203.168 321.962 201.403 321.804 199.673C321.682 198.297 321.189 196.866 319.962 196.1C318.814 195.376 317.267 195.4 316.064 195.97C314.905 196.52 314.045 197.499 313.445 198.616C313.094 196.882 311.97 195.337 310.407 194.445C308.364 193.277 305.835 193.6 303.974 194.979C303.2 195.553 302.565 196.3 302.139 197.153C301.54 196.017 300.34 195.258 299.043 195.062C297.192 194.775 295.457 195.722 294.352 197.169C293.808 197.877 293.405 198.694 293.149 199.547C292.936 199.449 292.695 199.406 292.455 199.421C291.958 199.465 291.539 199.787 291.244 200.168C290.66 200.931 290.297 201.898 290.096 202.83V202.834Z" fill="white"/>
<path d="M302.379 210.609C302.694 210.326 303.073 210.024 303.527 210.079C303.973 210.13 304.308 210.495 304.568 210.829C304.746 211.053 304.884 211.309 305.002 211.568C305.195 211.136 305.432 210.719 305.716 210.334C306.257 209.595 306.963 208.954 307.764 208.506C308.47 208.109 309.483 207.834 310.048 208.612C310.304 208.966 310.391 209.438 310.462 209.858C310.529 210.24 310.549 210.625 310.541 211.01C310.939 210.519 311.393 210.067 311.89 209.678C312.923 208.868 314.671 207.806 315.913 208.793C317.042 209.689 316.813 211.226 316.414 212.422C316.272 212.846 316.119 213.267 315.957 213.683C316.249 213.345 316.549 213.011 316.856 212.689C317.724 211.777 318.979 210.853 320.304 211.423C321.764 212.052 321.645 214.088 321.413 215.378C321.302 216.003 321.117 216.608 320.868 217.194C321.207 217.009 321.558 216.844 321.925 216.722C322.332 216.588 322.789 216.443 323.223 216.502C324.178 216.632 324.411 217.654 324.395 218.46C324.375 219.376 324.138 220.295 323.74 221.121C323.531 221.553 323.274 221.954 322.983 222.332C323.271 222.312 323.558 222.316 323.843 222.363C324.261 222.438 324.742 222.56 324.998 222.929C325.259 223.303 325.168 223.778 325.069 224.191C324.628 226 323.357 227.446 321.902 228.551C320.422 229.675 318.722 230.536 317.026 231.279C315.345 232.018 313.606 232.612 311.827 233.064C310.367 233.433 308.884 233.716 307.385 233.854C306.927 234.039 306.47 234.227 306.004 234.396C305.432 234.605 304.667 235.01 304.067 234.695C303.811 234.561 303.692 234.369 303.649 234.153C303.44 234.219 303.211 234.204 302.971 234.043C302.41 233.661 302.406 232.8 302.32 232.199C302.249 231.711 302.205 231.22 302.15 230.729C301.57 229.345 301.117 227.91 300.758 226.452C300.32 224.675 300.028 222.866 299.89 221.038C299.752 219.195 299.712 217.296 300.012 215.468C300.308 213.668 300.99 211.871 302.383 210.629L302.379 210.609Z" fill="#FFCCB5"/>
<path d="M286.269 197.464C290.935 195.152 295.07 200.919 294.659 205.204C300.36 202.959 302.158 211.407 301.444 215.515C311.693 212.315 306.206 226.546 304.596 231.188C307.736 228.842 310.016 225.429 313.725 223.826C316.648 221.974 320.861 223.881 320.336 227.58C323.807 225.253 332.285 223.444 332.553 229.545C340.376 225.748 347.074 233.449 340.036 239.774C329.567 250.034 308.214 254.197 298.158 241.378C281.385 238.665 273.827 207.995 286.269 197.46V197.464Z" fill="white"/>
<path d="M263.263 224.006C263.026 224.525 262.809 225.056 262.624 225.591C261.097 230.013 261.318 234.837 259.452 239.165C257.543 243.595 254.289 247.546 253.942 252.523C253.792 254.626 254.107 256.76 254.869 258.738C255.717 260.935 257.161 262.814 258.691 264.579C260.206 266.313 261.831 267.976 263.105 269.898C264.368 271.808 265.176 273.9 265.204 276.207C265.22 277.454 265.105 278.708 265.03 279.954C264.951 281.223 264.861 282.497 264.746 283.759C264.632 285.044 264.498 286.33 264.332 287.608C264.245 288.256 264.147 288.905 264.036 289.55C263.981 289.856 263.934 290.178 263.89 290.493C263.756 290.627 263.626 290.752 263.504 290.898C263.378 291.051 263.618 291.22 263.748 291.079C263.756 291.067 263.776 291.055 263.788 291.043C263.76 291.169 263.74 291.299 263.713 291.425C263.658 291.684 264.072 291.731 264.127 291.472C264.17 291.283 264.218 291.094 264.257 290.91C264.36 290.937 264.478 290.918 264.565 290.819C264.908 290.426 265.275 290.049 265.654 289.687C267.299 288.893 269.232 288.732 271.019 288.972C273.52 289.302 275.875 290.418 278.174 291.401C280.297 292.301 282.486 293.143 284.798 293.355C285.863 293.449 286.956 293.414 287.997 293.17C289.094 292.918 290.096 292.439 291.031 291.822C292.999 290.509 294.605 288.74 296.727 287.643C298.786 286.578 301.027 286.114 303.334 286.035C307.725 285.878 312.21 286.782 316.4 285.06C320.577 283.342 323.674 279.796 326.534 276.451C326.727 276.231 326.447 275.952 326.206 276.03C325.697 276.207 325.177 276.337 324.64 276.412C319.875 277.072 315.646 273.99 311.654 271.922C309.441 270.779 307.003 269.753 304.467 269.764C303.342 269.768 302.222 270 301.236 270.554C300.246 271.109 299.449 271.922 298.751 272.807C297.33 274.615 296.261 276.648 294.494 278.169C292.818 279.612 290.774 280.508 288.533 280.327C287.334 280.229 286.159 279.942 284.952 279.922C283.894 279.914 282.877 280.142 281.914 280.579C280.001 281.444 278.439 282.898 276.565 283.83C275.441 284.392 274.23 284.647 273.023 284.954C271.875 285.253 270.754 285.646 269.685 286.169C267.808 287.077 266.111 288.319 264.671 289.813C264.6 289.86 264.541 289.911 264.474 289.962C264.474 289.947 264.482 289.931 264.486 289.915C264.498 289.903 264.51 289.899 264.51 289.884C264.821 289.333 265.125 288.783 265.433 288.233C267.815 283.904 269.93 279.203 270.376 274.23C270.577 271.993 270.415 269.749 269.808 267.583C269.22 265.487 268.285 263.514 267.523 261.482C266.742 259.371 266.249 257.228 266.387 254.968C266.533 252.676 267.145 250.443 267.654 248.21C268.596 244.055 268.81 239.813 268.107 235.603C267.417 231.487 265.93 227.454 263.634 223.947C263.535 223.794 263.314 223.861 263.251 224.003L263.263 224.006Z" fill="#BDC3B9"/>
<path d="M319.815 256.91C320.048 256.757 319.863 256.379 319.602 256.418C316.431 256.886 313.63 255.09 310.687 254.245C309.5 253.906 308.265 253.686 307.022 253.792C305.744 253.903 304.655 254.425 303.638 255.172C302.592 255.939 301.571 256.871 300.229 257.024C298.951 257.173 297.697 256.733 296.431 256.666C295.18 256.595 294.091 256.988 293.054 257.661C292.024 258.329 291.101 259.178 289.961 259.65C289.322 259.917 288.628 259.96 287.977 260.169C287.283 260.389 286.703 260.845 286.162 261.317C285.267 262.107 284.379 262.913 283.507 263.734C283.365 263.86 283.223 263.994 283.089 264.131C282.931 264.277 282.774 264.426 282.616 264.572C282.616 264.548 282.616 264.528 282.616 264.497C283.862 261.757 284.474 258.781 285.042 255.833C285.314 254.441 285.59 253.026 285.496 251.603C285.405 250.262 284.908 249.016 284.383 247.798C283.847 246.559 283.31 245.329 283.077 243.984C282.849 242.64 282.849 241.264 282.849 239.9C282.845 238.556 282.833 237.195 282.604 235.867C282.379 234.573 281.977 233.315 281.456 232.109C280.379 229.628 278.821 227.383 277.251 225.19C277.137 225.033 276.86 225.064 276.801 225.249C276.332 226.774 276.853 228.311 276.904 229.856C276.955 231.377 276.62 232.883 276.257 234.349C275.61 236.975 274.845 239.66 275.574 242.353C276.332 245.148 278.269 247.381 279.574 249.909C280.206 251.127 280.711 252.44 280.809 253.816C280.864 254.587 280.738 255.333 280.64 256.092C280.549 256.772 280.537 257.448 280.628 258.132C280.92 260.369 282.123 262.5 282.083 264.772C281.945 265.071 281.795 265.366 281.642 265.657C281.535 265.853 281.858 265.975 281.961 265.782C281.997 265.727 282.02 265.664 282.056 265.609C282.064 265.625 282.079 265.641 282.091 265.657C282.099 265.66 282.107 265.672 282.119 265.68C282.253 265.79 282.509 265.755 282.549 265.527C282.557 265.468 282.561 265.409 282.569 265.35C282.643 265.248 282.714 265.145 282.801 265.043C283.503 264.465 284.194 263.868 284.876 263.262C286.241 262.437 287.847 261.981 289.444 262.024C290.072 262.04 290.695 262.126 291.298 262.291C291.997 262.484 292.679 262.748 293.393 262.897C294.687 263.172 295.973 262.881 297.148 262.315C298.367 261.729 299.44 260.9 300.58 260.18C301.772 259.426 303.022 258.891 304.446 258.805C305.776 258.726 307.105 258.962 308.415 259.151C309.732 259.347 311.042 259.473 312.371 259.39C315.018 259.217 317.59 258.349 319.803 256.902L319.815 256.91Z" fill="#BDC3B9"/>
<path d="M34.1064 175.752L37.0413 173.052L36.7494 177.022L40.6981 177.624L37.4042 179.872L39.3924 183.32L35.5738 182.156L34.1064 185.855L32.6428 182.156L28.8243 183.32L30.8125 179.872L27.5186 177.624L31.4673 177.022L31.1754 173.052L34.1064 175.752Z" fill="white"/>
<path d="M303.138 175.178L306.073 172.478L305.781 176.448L309.729 177.05L306.435 179.294L308.424 182.746L304.605 181.582L303.138 185.281L301.674 181.582L297.856 182.746L299.844 179.294L296.55 177.05L300.495 176.448L300.207 172.478L303.138 175.178Z" fill="white"/>
<path d="M124.675 294.676C124.675 296.366 123.299 297.738 121.602 297.738C119.906 297.738 118.529 296.366 118.529 294.676C118.529 292.985 119.906 291.614 121.602 291.614C123.299 291.614 124.675 292.985 124.675 294.676Z" fill="white"/>
<path d="M229.524 297.164C229.524 298.854 228.147 300.226 226.451 300.226C224.755 300.226 223.378 298.854 223.378 297.164C223.378 295.474 224.755 294.102 226.451 294.102C228.147 294.102 229.524 295.474 229.524 297.164Z" fill="white"/>
<path d="M131.586 94.1312C131.586 95.8215 130.21 97.1935 128.513 97.1935C126.817 97.1935 125.44 95.8215 125.44 94.1312C125.44 92.4408 126.817 91.0688 128.513 91.0688C130.21 91.0688 131.586 92.4408 131.586 94.1312Z" fill="white"/>
<path d="M216.849 99.8707C216.849 101.561 215.472 102.933 213.776 102.933C212.08 102.933 210.703 101.561 210.703 99.8707C210.703 98.1803 212.08 96.8083 213.776 96.8083C215.472 96.8083 216.849 98.1803 216.849 99.8707Z" fill="white"/>
<path d="M12.5317 287.784C12.5317 289.475 11.155 290.847 9.45874 290.847C7.76248 290.847 6.38574 289.475 6.38574 287.784C6.38574 286.094 7.76248 284.722 9.45874 284.722C11.155 284.722 12.5317 286.094 12.5317 287.784Z" fill="white"/>
<path d="M333.792 267.311C333.792 269.002 332.416 270.374 330.719 270.374C329.023 270.374 327.646 269.002 327.646 267.311C327.646 265.621 329.023 264.249 330.719 264.249C332.416 264.249 333.792 265.621 333.792 267.311Z" fill="white"/>
<path d="M163.165 363.128C163.165 363.128 157.792 366.053 149.662 373.278C141.531 380.503 133.05 390.386 130.395 388.491C127.74 386.596 133.926 375.059 137.421 366.257C140.916 357.455 143.547 346.413 147.113 344.373C150.679 342.332 162.443 345.627 162.443 345.627C162.443 345.627 162.301 361.89 163.161 363.128H163.165Z" fill="#F4B6AD"/>
<path d="M283.777 300.459C259.816 291.173 221.457 309.984 221.457 309.984L216.341 296.586L174.123 298.764L131.906 296.586L127.074 310.903C127.074 310.903 88.4307 291.169 64.47 300.455C40.5093 309.744 43.602 339.152 87.6575 353.469C116.454 362.829 147.895 365.408 166.214 366.072L166.297 366.237C166.297 366.237 169.165 366.324 174.123 366.265C179.082 366.324 181.95 366.237 181.95 366.237L182.033 366.072C200.356 365.408 231.792 362.829 260.589 353.469C304.645 339.152 307.734 309.74 283.777 300.455V300.459Z" fill="#C6A3EA"/>
<path d="M182.144 360.919C182.144 360.919 187.082 364.52 194.187 372.751C201.292 380.979 208.396 391.888 211.276 390.355C214.156 388.826 209.548 376.576 207.244 367.393C204.941 358.206 203.789 346.916 200.522 344.432C197.256 341.943 185.161 343.665 185.161 343.665C185.161 343.665 183.153 359.806 182.14 360.923L182.144 360.919Z" fill="#F4B6AD"/>
<path d="M221.134 309.645C220.274 309.881 219.469 310.235 218.66 310.605C217.852 310.97 217.047 311.336 216.246 311.709C214.641 312.456 213.039 313.211 211.437 313.974C208.278 315.483 205.134 317.032 202.009 318.612C195.706 321.804 189.473 325.138 183.319 328.609C181.603 329.576 179.895 330.563 178.191 331.557C176.483 332.556 174.696 333.495 173.094 334.663C173.027 334.71 172.995 334.773 172.972 334.84C169.295 333.322 165.654 331.718 162.057 330.024C158.258 328.236 154.502 326.349 150.802 324.367C147.098 322.386 143.449 320.31 139.851 318.144C136.242 315.971 132.688 313.698 129.185 311.355C128.755 311.068 128.313 310.821 127.851 310.585C127.484 310.4 127.208 310.919 127.492 311.175C128.277 311.882 129.165 312.448 130.037 313.038C130.908 313.628 131.788 314.209 132.672 314.783C134.443 315.931 136.226 317.055 138.025 318.156C141.626 320.358 145.279 322.473 148.987 324.489C152.676 326.494 156.419 328.405 160.206 330.217C164.013 332.037 167.863 333.763 171.757 335.386C175.65 337.01 179.587 338.535 183.56 339.954C184.001 340.111 184.443 340.265 184.889 340.41C184.688 341.035 184.652 341.751 184.569 342.376C184.455 343.225 184.337 344.07 184.214 344.919C183.974 346.613 183.71 348.304 183.418 349.99C182.826 353.383 182.139 356.759 181.335 360.109C181.114 361.04 180.881 361.968 180.652 362.9C180.534 363.376 180.408 363.843 180.321 364.327C180.234 364.803 180.104 365.282 180.076 365.766C180.057 366.084 180.463 366.226 180.617 365.927C180.814 365.553 180.928 365.137 181.074 364.74C181.228 364.319 181.354 363.898 181.473 363.466C181.706 362.621 181.926 361.772 182.136 360.919C182.542 359.256 182.921 357.585 183.276 355.91C183.99 352.522 184.589 349.11 185.078 345.678C185.216 344.711 185.339 343.74 185.449 342.769C185.504 342.281 185.556 341.794 185.591 341.306C185.619 340.953 185.639 340.607 185.591 340.265C185.745 340.048 185.737 339.734 185.41 339.608C183.441 338.857 181.445 338.169 179.473 337.422C177.552 336.691 175.638 335.937 173.737 335.162C175.216 334.423 176.625 333.523 178.053 332.693C179.583 331.805 181.122 330.924 182.664 330.052C185.71 328.33 188.771 326.632 191.852 324.973C198.073 321.623 204.368 318.42 210.735 315.357C212.514 314.504 214.297 313.659 216.084 312.826C216.98 312.409 217.871 311.996 218.767 311.579C219.678 311.159 220.585 310.75 221.426 310.2C221.745 309.987 221.445 309.559 221.122 309.649L221.134 309.645Z" fill="#B999DA"/>
<path d="M65.1959 291.661C65.3182 291.873 68.6318 297.07 64.403 301.367C60.1742 305.663 51.3773 308.081 45.9729 309.606C40.5685 311.131 32.5527 312.688 31.9373 310.754C31.3219 308.82 35.6533 308.293 40.2529 306.689C44.8486 305.085 48.7303 303.462 48.7303 303.462L48.4147 302.656C48.4147 302.656 29.4955 307.99 28.4896 304.873C27.4836 301.752 40.6948 300.844 45.9966 298.391L45.681 297.585C45.681 297.585 27.1483 301.661 26.2647 298.756C25.3771 295.851 39.1247 294.837 43.7638 293.461L43.5074 292.958C43.5074 292.958 32.9196 293.909 30.9274 286.165C28.9353 278.421 37.8269 275.272 38.746 277.143C39.6691 279.018 34.2726 281.802 34.8998 284.207C35.5271 286.613 38.8328 287.706 42.8447 287.557C46.8565 287.407 50.2846 285.084 50.0479 283.079C49.8151 281.07 39.9531 280.068 39.535 277.544C39.1208 275.02 58.9828 272.894 63.1091 284.644L65.1959 291.661Z" fill="#F4B6AD"/>
<path d="M60.9238 284.534C60.9238 284.534 91.8392 272.67 92.9911 271.522C94.143 270.374 106.818 233.249 106.818 233.249L127.366 253.533C127.366 253.533 118.774 283.445 116.23 285.489C103.366 295.824 64.4741 300.458 64.4741 300.458L60.9278 284.534H60.9238Z" fill="#F4B6AD"/>
<path d="M48.916 303.945C48.774 303.729 48.6517 303.505 48.5137 303.285C48.2494 302.864 47.985 302.444 47.7326 302.019C47.2316 301.17 46.774 300.297 46.3558 299.409C45.5117 297.616 44.8134 295.753 44.2888 293.842C43.989 292.753 43.7404 291.653 43.3973 290.572C43.2907 290.238 42.8213 290.391 42.8292 290.705C42.8726 292.73 43.5038 294.746 44.1744 296.645C44.8489 298.556 45.705 300.395 46.7069 302.157C46.987 302.652 47.2789 303.139 47.5906 303.619C47.7523 303.867 47.9298 304.099 48.0994 304.334C48.273 304.574 48.419 304.806 48.6872 304.948C48.9318 305.073 49.2355 304.842 49.204 304.578C49.1724 304.331 49.0501 304.146 48.916 303.941V303.945Z" fill="#EB9C8F"/>
<path d="M58.5336 291.952C58.2022 291.782 57.7683 291.771 57.3975 291.735C56.9991 291.696 56.6046 291.641 56.2141 291.551C55.4567 291.378 54.7308 291.083 54.0563 290.701C53.3896 290.328 52.7702 289.848 52.2416 289.302C51.6933 288.732 51.2436 288.056 50.7702 287.427C50.5493 287.132 50.147 287.399 50.2337 287.722C50.3481 288.15 50.5178 288.528 50.7623 288.909C50.9911 289.267 51.2791 289.597 51.571 289.907C52.1785 290.548 52.8689 291.087 53.6342 291.527C54.3876 291.963 55.2081 292.274 56.0602 292.467C56.4784 292.561 56.9083 292.628 57.3344 292.643C57.7486 292.659 58.2338 292.632 58.577 292.396C58.7466 292.282 58.6953 292.034 58.5296 291.952H58.5336Z" fill="#EB9C8F"/>
<path d="M283.107 291.661C282.985 291.873 279.671 297.07 283.9 301.367C288.129 305.663 296.925 308.081 302.33 309.606C307.734 311.131 315.75 312.688 316.365 310.754C316.981 308.82 312.649 308.293 308.05 306.689C303.45 305.085 299.572 303.462 299.572 303.462L299.888 302.656C299.888 302.656 318.807 307.99 319.813 304.873C320.819 301.756 307.608 300.844 302.306 298.391L302.622 297.585C302.622 297.585 321.154 301.661 322.038 298.756C322.926 295.851 309.178 294.837 304.539 293.461L304.795 292.958C304.795 292.958 315.383 293.909 317.375 286.165C319.367 278.421 310.476 275.272 309.557 277.143C308.634 279.018 314.03 281.802 313.403 284.207C312.776 286.613 309.47 287.706 305.458 287.557C301.446 287.407 298.018 285.084 298.255 283.079C298.492 281.074 308.35 280.068 308.768 277.544C309.182 275.02 289.32 272.894 285.194 284.644L283.107 291.661Z" fill="#F4B6AD"/>
<path d="M287.379 284.534C287.379 284.534 256.463 272.67 255.311 271.522C254.16 270.374 241.485 233.249 241.485 233.249L220.937 253.533C220.937 253.533 229.528 283.445 232.073 285.489C244.937 295.824 283.828 300.458 283.828 300.458L287.375 284.534H287.379Z" fill="#F4B6AD"/>
<path d="M299.383 303.945C299.525 303.729 299.647 303.505 299.785 303.285C300.05 302.864 300.314 302.444 300.566 302.019C301.067 301.17 301.525 300.297 301.947 299.409C302.791 297.616 303.489 295.753 304.014 293.842C304.314 292.753 304.562 291.653 304.906 290.572C305.012 290.238 305.482 290.391 305.474 290.705C305.43 292.73 304.799 294.746 304.129 296.645C303.454 298.556 302.598 300.395 301.596 302.157C301.316 302.652 301.024 303.139 300.712 303.619C300.551 303.867 300.373 304.099 300.203 304.334C300.03 304.574 299.884 304.806 299.616 304.948C299.371 305.073 299.067 304.842 299.099 304.578C299.131 304.331 299.253 304.146 299.387 303.941L299.383 303.945Z" fill="#EB9C8F"/>
<path d="M289.769 291.952C290.101 291.782 290.535 291.771 290.905 291.735C291.304 291.696 291.698 291.641 292.089 291.551C292.846 291.378 293.572 291.083 294.247 290.701C294.913 290.328 295.533 289.848 296.061 289.302C296.61 288.732 297.059 288.056 297.533 287.427C297.753 287.132 298.156 287.399 298.069 287.722C297.955 288.15 297.785 288.528 297.54 288.909C297.312 289.267 297.024 289.597 296.732 289.907C296.124 290.548 295.434 291.087 294.669 291.527C293.915 291.963 293.095 292.274 292.243 292.467C291.824 292.561 291.394 292.628 290.968 292.643C290.554 292.659 290.069 292.632 289.726 292.396C289.556 292.282 289.607 292.034 289.773 291.952H289.769Z" fill="#EB9C8F"/>
<path d="M225.138 213.601C230.018 211.187 233.517 206.199 234.12 200.805C234.724 195.412 232.412 189.779 228.187 186.351C231.509 184.248 233.631 180.379 233.611 176.456C233.596 172.533 231.438 168.684 228.1 166.609C226.956 165.897 225.603 165.3 225.02 164.089C224.171 162.332 225.351 160.335 226.254 158.605C229.067 153.212 228.712 145.432 223.481 142.307C222.475 141.705 221.315 141.285 220.558 140.392C218.617 138.097 220.499 134.732 221.268 131.826C222.238 128.147 221.146 124.102 218.838 121.071C216.53 118.04 213.118 115.968 209.489 114.789C208.341 114.416 207.039 114.026 206.487 112.957C206.12 112.246 206.179 111.404 206.238 110.606C206.562 106.078 206.365 101.305 204.132 97.3469C201.899 93.3883 197.11 90.5618 192.739 91.8433C191.804 92.1185 190.751 92.5549 189.911 92.0556C189.394 91.749 189.126 91.1633 188.838 90.6404C186.092 85.6715 179.556 84.2288 173.879 84.5394C166.025 84.9718 157.816 88.0616 154.439 95.1376C149.757 94.9528 145.082 96.8909 141.733 100.154C138.384 103.416 136.356 107.933 135.887 112.58C135.713 114.306 135.694 116.196 134.589 117.537C134.013 118.237 133.208 118.701 132.439 119.176C124.577 124.051 118.534 132.923 119.654 142.083C119.887 143.993 120.392 146.065 119.437 147.74C118.893 148.695 117.958 149.351 117.106 150.047C114.407 152.26 112.313 155.268 111.492 158.652C110.676 162.037 111.212 165.791 113.224 168.637C115.307 171.582 118.944 173.752 119.37 177.329C119.753 180.533 117.358 183.3 115.646 186.04C112.983 190.313 111.792 195.722 113.445 200.475C115.098 205.228 120.005 208.947 125.019 208.341C125.875 211.297 129.627 214.529 132.4 215.881C135.173 217.233 138.526 217.355 141.39 216.211C142.952 215.59 144.672 214.6 146.191 215.323C147.106 215.759 147.638 216.703 148.147 217.575C149.414 219.745 150.909 221.841 152.932 223.334C154.956 224.828 157.583 225.662 160.037 225.096C162.53 224.522 164.668 222.591 167.224 222.568C171.074 222.532 173.532 226.633 177.011 228.276C179.986 229.683 183.607 229.152 186.514 227.611C189.422 226.066 191.737 223.625 193.871 221.125C195.012 219.789 196.349 218.307 198.108 218.275C199.292 218.251 200.361 218.908 201.418 219.435C206.274 221.852 212.298 221.77 217.087 219.226C219.288 218.055 224.27 215.928 225.126 213.593L225.138 213.601Z" fill="#8C3D28"/>
<path d="M114.474 156.51C114.368 156.51 114.261 156.478 114.17 156.411C113.945 156.246 113.898 155.928 114.068 155.704C116.32 152.689 118.482 149.465 118.009 146.069C117.803 144.598 117.125 143.262 116.407 141.847C115.764 140.585 115.101 139.276 114.794 137.853C114.064 134.444 115.508 130.466 118.663 127.215C120.403 125.419 122.458 123.952 124.447 122.529C125.496 121.778 126.585 121 127.602 120.19C131.196 117.328 133.208 114.463 133.744 111.428C133.882 110.642 133.926 109.808 133.965 109.006C134.024 107.823 134.084 106.601 134.451 105.421C134.967 103.758 136.092 102.178 137.89 100.594C142.245 96.7532 148.305 94.7365 154.1 95.2043C154.38 95.2279 154.585 95.4716 154.565 95.7468C154.541 96.0259 154.297 96.2343 154.021 96.2107C148.498 95.7704 142.719 97.6888 138.565 101.353C136.912 102.815 135.882 104.242 135.421 105.724C135.094 106.781 135.038 107.886 134.979 109.061C134.936 109.899 134.896 110.76 134.742 111.609C134.159 114.895 132.028 117.961 128.234 120.984C127.192 121.814 126.095 122.596 125.034 123.355C123.086 124.75 121.066 126.189 119.389 127.919C116.47 130.93 115.121 134.566 115.784 137.644C116.064 138.942 116.667 140.133 117.31 141.395C118.036 142.822 118.786 144.296 119.015 145.935C119.543 149.709 117.263 153.133 114.88 156.313C114.782 156.447 114.628 156.518 114.474 156.518V156.51Z" fill="#8C3D28"/>
<path d="M226.388 168.955C226.297 168.955 226.211 168.932 226.128 168.885C223.177 167.112 222.81 163.004 223.97 159.859C224.597 158.161 225.564 156.616 226.503 155.122C227.213 153.99 227.946 152.822 228.51 151.611C229.647 149.174 230.211 145.558 228.061 143.399C227.418 142.755 226.593 142.307 225.722 141.831C224.66 141.253 223.56 140.659 222.779 139.661C221.193 137.64 221.619 134.908 222.017 133.458C222.262 132.569 222.589 131.7 222.909 130.863C223.307 129.814 223.686 128.823 223.915 127.777C224.767 123.862 223.118 119.451 219.899 117.049C217.946 115.591 215.516 114.828 213.161 114.089C212.641 113.924 212.12 113.763 211.607 113.594C209.516 112.902 207.161 111.951 205.556 110.134C204.005 108.377 203.213 105.46 204.696 103.283C204.854 103.055 205.169 102.992 205.402 103.149C205.635 103.306 205.694 103.621 205.536 103.849C204.353 105.582 205.055 108.035 206.317 109.466C207.761 111.102 209.962 111.986 211.927 112.635C212.435 112.804 212.952 112.965 213.465 113.126C215.899 113.889 218.416 114.683 220.506 116.243C224.029 118.873 225.84 123.709 224.905 127.997C224.66 129.118 224.25 130.191 223.856 131.229C223.544 132.042 223.224 132.888 222.992 133.729C222.645 134.995 222.262 137.369 223.576 139.048C224.226 139.881 225.189 140.4 226.203 140.95C227.102 141.438 228.029 141.941 228.779 142.692C231.299 145.219 230.704 149.312 229.43 152.044C228.838 153.314 228.088 154.509 227.363 155.664C226.455 157.115 225.516 158.613 224.925 160.213C223.931 162.902 224.199 166.553 226.652 168.028C226.893 168.173 226.968 168.484 226.826 168.72C226.731 168.877 226.562 168.963 226.392 168.963L226.388 168.955Z" fill="#8C3D28"/>
<path d="M157.457 105.111C157.342 104.729 157.216 104.348 157.102 103.967C156.877 103.228 156.687 102.473 156.549 101.71C156.415 100.963 156.325 100.205 156.281 99.4498C156.234 98.6557 156.265 97.8655 156.159 97.0754C156.119 96.8002 155.674 96.6705 155.575 96.9811C155.319 97.7869 155.299 98.5889 155.33 99.4262C155.35 100.039 155.417 100.645 155.508 101.25C154.751 101.179 154.021 101.215 153.267 101.368C152.447 101.537 151.65 101.805 150.897 102.174C149.382 102.925 148.068 104.041 147.125 105.449C146.218 106.797 145.626 108.362 145.468 109.981C145.299 111.727 145.634 113.531 144.683 115.115C143.926 116.369 142.691 117.269 141.508 118.091C140.151 119.031 138.794 119.946 137.567 121.059C135.023 123.37 132.991 126.331 132.494 129.786C132.206 131.771 132.502 133.694 133.267 135.541C133.985 137.275 134.904 139.244 134.029 141.104C133.894 141.383 134.285 141.603 134.482 141.379C135.642 140.058 135.319 138.214 134.754 136.709C134.431 135.84 134.021 135.006 133.737 134.122C133.476 133.312 133.35 132.471 133.33 131.622C133.248 128.206 134.967 125.053 137.291 122.655C138.427 121.48 139.725 120.477 141.07 119.553C142.309 118.704 143.579 117.875 144.612 116.774C145.106 116.247 145.536 115.642 145.831 114.982C146.19 114.18 146.313 113.323 146.34 112.454C146.372 111.546 146.321 110.638 146.447 109.734C146.553 108.955 146.766 108.2 147.074 107.477C147.784 105.81 148.979 104.391 150.518 103.424C152.044 102.465 153.839 102.048 155.626 101.966C155.776 102.736 155.97 103.499 156.226 104.242C156.364 104.635 156.522 105.028 156.715 105.398C156.893 105.736 157.082 106.101 157.374 106.357C157.516 106.482 157.721 106.341 157.713 106.172C157.697 105.814 157.563 105.453 157.461 105.111H157.457Z" fill="#6B271A"/>
<path d="M132.782 159.898C132.38 159.277 131.95 158.668 131.622 157.999C131.311 157.363 131.066 156.694 130.893 156.006C130.518 154.497 130.502 152.893 130.81 151.372C130.964 150.601 131.208 149.862 131.508 149.139C131.654 148.793 131.78 148.431 131.966 148.105C132.171 147.739 132.325 147.354 132.577 147.016C132.747 146.788 132.419 146.525 132.23 146.741C132.005 147 131.725 147.236 131.524 147.507C131.299 147.81 131.098 148.14 130.904 148.459C130.53 149.084 130.273 149.787 130.072 150.487C129.674 151.891 129.551 153.38 129.713 154.827C129.879 156.297 130.332 157.716 131.062 158.998C131.8 160.299 132.968 161.526 133.11 163.075C133.263 164.788 132.088 166.259 130.971 167.422C129.808 168.633 128.632 169.797 127.662 171.177C125.745 173.909 124.324 177.203 124.04 180.544C123.745 184.004 124.94 187.915 128.293 189.511C128.766 189.735 129.058 189.032 128.616 188.784C125.914 187.259 124.782 184.067 124.956 181.106C125.149 177.855 126.459 174.624 128.293 171.951C129.204 170.626 130.285 169.482 131.409 168.342C132.573 167.167 133.693 165.846 134.013 164.175C134.313 162.587 133.618 161.188 132.774 159.89L132.782 159.898Z" fill="#6B271A"/>
<path d="M133.425 187.663C133.228 187.42 132.932 187.259 132.687 187.062C132.439 186.862 132.21 186.626 132.005 186.382C131.567 185.851 131.251 185.25 131.05 184.593C130.809 183.807 130.754 182.958 130.794 182.14C130.837 181.228 130.987 180.344 130.944 179.428C130.932 179.168 130.557 179.125 130.454 179.349C130.032 180.285 129.882 181.268 129.843 182.29C129.807 183.213 129.886 184.141 130.174 185.022C130.411 185.741 130.786 186.449 131.299 187.007C131.555 187.29 131.831 187.518 132.158 187.719C132.466 187.907 132.88 188.108 133.251 188.053C133.429 188.025 133.551 187.813 133.425 187.66V187.663Z" fill="#6B271A"/>
<path d="M198.775 119.027C198.329 119.039 197.938 118.936 197.504 118.858C197.078 118.779 196.672 118.653 196.274 118.484C195.489 118.146 194.759 117.69 194.124 117.12C192.755 115.89 192.045 114.298 191.769 112.501C191.469 110.551 191.347 108.527 190.041 106.931C188.948 105.602 187.37 104.773 185.713 104.376C184.865 104.175 183.989 104.096 183.122 104.124C182.163 104.155 181.189 104.321 180.23 104.195C179.291 104.069 178.609 103.601 178.096 102.815C177.611 102.064 177.291 101.219 176.806 100.468C174.901 97.5276 171.327 96.0731 167.91 96.0024C163.922 95.9198 160.088 97.8028 156.995 100.181C156.597 100.488 156.222 100.818 155.847 101.152C155.508 101.455 155.895 102.013 156.273 101.73C159.441 99.3752 162.995 97.1896 167.047 96.9498C170.337 96.7571 173.926 98.0112 175.867 100.775C176.877 102.213 177.287 104.203 179.102 104.894C180.861 105.563 182.798 104.906 184.621 105.146C186.238 105.358 187.875 106.007 189.015 107.206C190.388 108.645 190.522 110.567 190.794 112.434C190.936 113.394 191.133 114.349 191.552 115.229C191.926 116.019 192.419 116.743 193.027 117.372C194.214 118.61 195.824 119.502 197.567 119.597C197.974 119.62 198.42 119.538 198.822 119.483C199.114 119.443 199.07 119.023 198.779 119.031L198.775 119.027Z" fill="#6B271A"/>
<path d="M204.933 127.887C204.349 128.013 203.777 128.221 203.201 128.387C202.597 128.563 201.986 128.681 201.355 128.729C200.743 128.776 200.136 128.76 199.528 128.674C198.96 128.591 198.286 128.304 197.722 128.438C197.536 128.481 197.493 128.744 197.591 128.878C197.958 129.361 198.822 129.475 199.382 129.558C200.061 129.66 200.759 129.692 201.445 129.637C202.724 129.538 204.219 129.216 205.138 128.261C205.272 128.123 205.126 127.844 204.933 127.883V127.887Z" fill="#6B271A"/>
<path d="M219.098 181.814C218.691 180.061 217.776 178.488 216.545 177.179C215.311 175.866 213.847 174.821 212.297 173.913C210.948 173.119 209.141 172.368 209.062 170.563C208.987 168.877 210.238 167.383 211.35 166.259C212.498 165.095 213.792 164.089 215.003 162.992C216.21 161.899 217.342 160.72 218.135 159.289C218.92 157.874 219.252 156.254 219.137 154.642C219.019 153.031 218.455 151.423 217.48 150.126C216.4 148.679 214.818 147.665 213.129 147.051C212.684 146.89 212.23 146.749 211.784 146.592C211.543 146.505 211.386 146.847 211.622 146.957C212.463 147.346 213.283 147.81 214.072 148.302C214.81 148.761 215.528 149.288 216.123 149.921C217.185 151.049 217.875 152.52 218.108 154.045C218.34 155.574 218.127 157.135 217.441 158.526C216.755 159.918 215.67 161.078 214.534 162.119C213.346 163.204 212.088 164.203 210.932 165.323C209.729 166.487 208.605 167.827 208.21 169.494C208.021 170.292 208.052 171.177 208.411 171.923C208.766 172.67 209.37 173.244 210.052 173.696C210.762 174.168 211.528 174.545 212.254 174.99C213.007 175.45 213.741 175.953 214.427 176.507C215.753 177.576 216.944 178.881 217.65 180.446C218.348 181.995 218.597 183.74 218.206 185.407C218.112 185.804 217.993 186.193 217.895 186.59C217.824 186.869 218.218 187.007 218.38 186.807C219.469 185.486 219.469 183.406 219.102 181.818L219.098 181.814Z" fill="#6B271A"/>
<path d="M206.968 178.779C206.064 177.58 204.636 177.038 203.405 176.26C202.285 175.552 201.457 174.553 201.196 173.233C201.062 172.545 201.066 171.845 201.204 171.157C201.35 170.438 201.662 169.805 202.017 169.168C202.135 168.96 201.839 168.747 201.662 168.885C200.64 169.679 200.226 171.067 200.21 172.309C200.198 173.586 200.628 174.923 201.484 175.886C202.486 177.014 203.914 177.521 205.129 178.363C206.175 179.086 206.837 180.092 206.956 181.366C207.082 182.742 206.534 184.063 205.69 185.128C205.559 185.289 205.737 185.584 205.946 185.474C208.297 184.255 208.439 180.725 206.968 178.775V178.779Z" fill="#6B271A"/>
<path d="M155.362 181.7C155.055 181.315 154.605 181.051 154.218 180.757C153.82 180.45 153.437 180.124 153.082 179.77C152.4 179.09 151.812 178.296 151.355 177.454C150.345 175.591 149.974 173.433 150.258 171.342C150.341 170.74 150.475 170.147 150.648 169.569C150.739 169.262 150.85 168.963 150.956 168.665C151.063 168.366 151.114 168.024 151.248 167.741C151.37 167.477 150.968 167.214 150.802 167.47C150.648 167.705 150.447 167.898 150.301 168.142C150.136 168.417 150.005 168.712 149.891 169.011C149.682 169.545 149.524 170.099 149.414 170.666C149.181 171.821 149.134 173.028 149.291 174.2C149.583 176.405 150.573 178.496 152.088 180.132C152.502 180.58 152.944 180.996 153.429 181.37C153.895 181.728 154.455 182.152 155.055 182.223C155.323 182.254 155.552 181.944 155.37 181.712L155.362 181.7Z" fill="#6B271A"/>
<path d="M196.317 103.047C195.367 102.394 194.309 101.919 193.193 101.632C192.045 101.341 190.874 101.349 189.698 101.345C188.574 101.345 187.367 101.337 186.341 100.814C185.284 100.275 184.846 99.1826 184.436 98.1408C184.006 97.0559 183.52 95.9866 182.55 95.2751C181.607 94.5793 180.436 94.2609 179.28 94.1665C177.836 94.0486 176.365 94.2137 174.948 94.5124C173.351 94.8505 171.816 95.3576 170.4 96.1714C170.104 96.3404 170.38 96.7964 170.68 96.6824C173.181 95.7547 175.804 94.9842 178.503 95.0353C179.568 95.0549 180.688 95.2397 181.619 95.7822C182.593 96.3522 183.075 97.2917 183.477 98.3059C183.895 99.3595 184.309 100.456 185.213 101.199C186.081 101.915 187.213 102.17 188.313 102.245C189.457 102.324 190.609 102.225 191.753 102.335C192.826 102.441 193.864 102.756 194.818 103.243C195.856 103.774 196.795 104.525 197.509 105.445C197.872 105.913 198.152 106.412 198.4 106.946C198.657 107.493 198.811 108.055 198.98 108.633C199.067 108.928 199.572 108.881 199.592 108.57C199.726 106.325 198.073 104.25 196.31 103.039L196.317 103.047Z" fill="#6B271A"/>
<path d="M212.242 193.639C208.194 204.925 185.445 215.264 176.076 219.101H172.107C162.738 215.264 139.989 204.925 135.941 193.639C135.941 193.639 160.013 186.748 161.547 183.685C162.052 182.675 162.281 180.175 162.36 177.278C162.521 171.365 162.06 163.786 162.06 163.786L173.835 161.998H174.348L186.123 163.786C186.123 163.786 185.733 170.178 185.796 175.8C185.835 179.302 186.048 182.51 186.636 183.689C188.171 186.748 212.242 193.643 212.242 193.643V193.639Z" fill="#F4B6AD"/>
<path d="M185.792 175.8C177.125 180.088 168.49 179.106 162.355 177.278C162.517 171.365 162.056 163.786 162.056 163.786L173.831 161.998H174.344L186.119 163.786C186.119 163.786 185.728 170.178 185.792 175.8Z" fill="#DC9589"/>
<path d="M197.204 128.831C194.261 129.122 192.458 127.09 190.088 125.321C187.717 123.556 185.855 121.205 184.131 118.807C182.896 117.089 181.571 115.222 179.555 114.577C176.936 113.744 174.218 115.261 171.523 115.819C166.352 116.888 160.58 113.905 158.541 109.05C158.541 109.05 159.054 113.13 156.62 116.578C154.186 120.021 151.369 120.914 150.73 121.81C150.091 122.702 152.012 135.078 145.354 137.373C145.354 137.373 146.888 153.829 151.243 160.72C153.444 164.203 163.91 172.84 173.381 172.714C182.853 172.588 191.859 164.73 194.77 159.321C198.028 153.259 197.204 128.576 197.204 128.576V128.831Z" fill="#F4B6AD"/>
<path d="M146.494 144.139L148.415 153.326C148.415 153.326 141.247 154.729 137.662 149.497C134.076 144.265 139.965 136.996 146.494 144.139Z" fill="#F4B6AD"/>
<path d="M196.104 144.139L194.183 153.326C194.183 153.326 201.35 154.729 204.936 149.497C208.522 144.265 202.632 136.996 196.104 144.139Z" fill="#F4B6AD"/>
<path d="M146.912 149.945C146.778 149.623 146.608 149.308 146.422 149.013C146.067 148.435 145.657 147.881 145.211 147.37C144.758 146.851 144.261 146.36 143.732 145.916C143.484 145.707 143.227 145.499 142.951 145.326C142.691 145.165 142.312 144.882 141.992 145.027C141.878 145.078 141.827 145.173 141.827 145.294C141.827 145.609 142.186 145.829 142.403 146.01C142.651 146.222 142.916 146.415 143.164 146.627C143.618 147.012 144.04 147.433 144.43 147.881C144.111 147.81 143.783 147.755 143.46 147.712C143.03 147.657 142.592 147.618 142.162 147.629C141.961 147.633 141.772 147.661 141.574 147.696C141.349 147.74 141.148 147.763 140.955 147.901C140.797 148.015 140.841 148.247 141.002 148.329C141.18 148.42 141.357 148.42 141.551 148.447C141.744 148.471 141.937 148.494 142.134 148.506C142.545 148.534 142.951 148.553 143.357 148.604C143.752 148.656 144.138 148.726 144.525 148.813C144.77 148.868 145.026 148.942 145.278 148.966C145.401 149.139 145.523 149.308 145.637 149.489C145.811 149.764 145.981 150.039 146.154 150.314C146.304 150.554 146.493 150.888 146.734 151.05C146.88 151.148 147.101 151.093 147.129 150.896C147.176 150.597 147.038 150.22 146.923 149.941L146.912 149.945Z" fill="#C66666"/>
<path d="M196.846 149.945C196.98 149.623 197.149 149.308 197.335 149.013C197.69 148.435 198.1 147.881 198.546 147.37C199 146.851 199.497 146.36 200.025 145.916C200.274 145.707 200.53 145.499 200.806 145.326C201.067 145.165 201.445 144.882 201.765 145.027C201.879 145.078 201.931 145.173 201.931 145.294C201.931 145.609 201.572 145.829 201.355 146.01C201.106 146.222 200.842 146.415 200.593 146.627C200.14 147.012 199.717 147.433 199.327 147.881C199.646 147.81 199.974 147.755 200.297 147.712C200.727 147.657 201.165 147.618 201.595 147.629C201.796 147.633 201.986 147.661 202.183 147.696C202.408 147.74 202.609 147.763 202.802 147.901C202.96 148.015 202.917 148.247 202.755 148.329C202.577 148.42 202.4 148.42 202.207 148.447C202.013 148.471 201.82 148.494 201.623 148.506C201.213 148.534 200.806 148.553 200.4 148.604C200.005 148.656 199.619 148.726 199.232 148.813C198.988 148.868 198.731 148.942 198.479 148.966C198.357 149.139 198.234 149.308 198.12 149.489C197.946 149.764 197.777 150.039 197.603 150.314C197.449 150.554 197.264 150.888 197.023 151.05C196.877 151.148 196.656 151.093 196.629 150.896C196.581 150.597 196.719 150.22 196.834 149.941L196.846 149.945Z" fill="#C66666"/>
<path d="M174.684 151.313C174.211 151.215 173.706 151.372 173.216 151.305C172.786 151.246 172.353 151.093 172.045 150.774C171.362 150.067 171.512 148.935 171.662 148.054C172.092 145.546 172.495 143.058 172.68 140.518C172.786 139.04 172.806 137.59 172.692 136.112C172.664 135.762 172.092 135.726 172.061 136.092C171.82 138.903 171.69 141.721 171.291 144.52C171.106 145.813 170.806 147.091 170.644 148.384C170.51 149.473 170.581 150.657 171.406 151.474C171.828 151.891 172.392 152.131 172.972 152.225C173.552 152.319 174.353 152.363 174.854 152.013C175.141 151.812 175.003 151.38 174.684 151.313Z" fill="#C66666"/>
<path d="M167.401 157.819C167.176 158.027 167.784 161.522 172.49 162.194C177.196 162.866 179.306 157.367 179.306 157.367C179.306 157.367 171.239 154.226 167.401 157.815V157.819Z" fill="#C66666"/>
<path d="M180.194 156.907C179.732 157.005 179.31 157.217 178.876 157.402C178.438 157.587 177.997 157.768 177.547 157.921C176.667 158.22 175.76 158.432 174.837 158.542C172.963 158.766 171.05 158.617 169.235 158.082C168.719 157.929 168.221 157.74 167.72 157.54C167.219 157.339 166.718 157.182 166.21 157.009C165.989 156.934 165.866 157.249 166.016 157.387C166.383 157.729 166.738 158.023 167.184 158.255C167.638 158.495 168.123 158.68 168.612 158.845C169.563 159.167 170.549 159.384 171.547 159.494C173.547 159.714 175.586 159.525 177.508 158.92C178.048 158.747 178.58 158.542 179.089 158.295C179.594 158.047 180.111 157.756 180.466 157.32C180.636 157.111 180.442 156.852 180.194 156.903V156.907Z" fill="#A84747"/>
<path d="M164.04 132.212C164.04 133.426 162.853 133.552 160.198 133.552C157.543 133.552 154.052 135.533 154.052 134.319C154.052 133.104 155.973 130.683 159.429 130.301C162.064 130.01 164.036 131.001 164.036 132.216L164.04 132.212Z" fill="#8C3D28"/>
<path d="M179.693 132.212C179.693 133.426 180.881 133.552 183.536 133.552C186.19 133.552 189.682 135.533 189.682 134.319C189.682 133.104 187.76 130.683 184.305 130.301C181.67 130.01 179.697 131.001 179.697 132.216L179.693 132.212Z" fill="#8C3D28"/>
<path d="M165.44 140.931C165.44 141.249 162.979 143.435 160.079 143.451C157.18 143.466 154.947 141.312 154.943 140.994C154.943 140.675 157.429 142.318 160.328 142.299C163.227 142.283 165.44 140.612 165.44 140.927V140.931Z" fill="black"/>
<path d="M180.419 140.84C180.419 141.159 182.912 143.313 185.811 143.297C188.711 143.282 190.92 141.096 190.916 140.778C190.916 140.459 188.447 142.134 185.547 142.15C182.648 142.165 180.415 140.526 180.419 140.84Z" fill="black"/>
<path d="M230.854 205.884C216.633 193.423 207.209 187.84 205.122 200.719C205.122 200.719 193.986 199.952 189.375 210.094C189.375 210.094 177.627 209.328 174.167 215.645H174.073C170.617 209.332 158.854 210.094 158.854 210.094C154.246 199.952 143.106 200.719 143.106 200.719C138.881 172.792 94.5732 232.914 94.7034 234.97C96.0723 240.765 102.976 241.983 107.346 244.861C113.453 249.562 120.147 256.701 127.745 258.895L131.394 250.282C132.163 257.169 139.268 265.016 139.268 265.016L130.625 298.119C142.988 305.541 205.241 305.541 217.6 298.119L208.957 265.016C208.957 265.016 216.061 257.169 216.83 250.282L220.479 258.895C228.085 256.697 234.767 249.566 240.878 244.861C245.245 241.983 252.152 240.765 253.521 234.97C253.521 234.97 240.641 215.264 230.85 205.884H230.854Z" fill="white"/>
<path d="M135.09 225.15C135.007 224.793 134.546 224.761 134.443 225.131C134.336 225.512 134.313 225.917 134.254 226.306C134.191 226.738 134.163 227.179 134.104 227.615C134.001 228.409 133.867 229.195 133.709 229.982C133.563 230.697 133.398 231.409 133.224 232.116C133.157 231.814 133.078 231.519 132.995 231.24C132.739 230.359 132.407 229.506 132.108 228.641C131.812 227.784 131.615 226.892 131.295 226.047C131.196 225.787 130.798 225.826 130.751 226.102C130.613 226.963 130.849 227.835 131.11 228.653C131.374 229.494 131.701 230.312 131.981 231.149C132.25 231.951 132.459 232.777 132.53 233.622C132.569 234.07 132.549 234.498 132.498 234.923C131.697 237.958 130.92 241.036 130.865 244.193C130.833 245.938 130.975 247.797 131.729 249.397C131.847 249.649 132.277 249.586 132.234 249.279C132.001 247.731 131.772 246.197 131.784 244.625C131.8 243.045 132.001 241.464 132.297 239.912C132.897 236.775 133.891 233.728 134.557 230.603C134.751 229.703 134.916 228.798 135.031 227.886C135.086 227.45 135.133 227.014 135.157 226.573C135.181 226.113 135.189 225.595 135.086 225.146L135.09 225.15Z" fill="#F1F1F1"/>
<path d="M213.371 225.15C213.454 224.793 213.916 224.761 214.018 225.131C214.125 225.512 214.148 225.917 214.207 226.306C214.271 226.738 214.298 227.179 214.357 227.615C214.46 228.409 214.594 229.195 214.752 229.982C214.898 230.697 215.063 231.409 215.237 232.116C215.304 231.814 215.383 231.519 215.466 231.24C215.722 230.359 216.054 229.506 216.353 228.641C216.649 227.784 216.847 226.892 217.166 226.047C217.265 225.787 217.663 225.826 217.71 226.102C217.849 226.963 217.612 227.835 217.351 228.653C217.087 229.494 216.76 230.312 216.48 231.149C216.211 231.951 216.002 232.777 215.931 233.622C215.892 234.07 215.912 234.498 215.963 234.923C216.764 237.958 217.541 241.036 217.596 244.193C217.628 245.938 217.486 247.797 216.732 249.397C216.614 249.649 216.184 249.586 216.227 249.279C216.46 247.731 216.689 246.197 216.677 244.625C216.661 243.045 216.46 241.464 216.164 239.912C215.564 236.775 214.57 233.728 213.904 230.603C213.71 229.703 213.545 228.798 213.426 227.886C213.371 227.45 213.324 227.014 213.3 226.573C213.276 226.113 213.269 225.595 213.371 225.146V225.15Z" fill="#F1F1F1"/>
</g>
<defs>
<clipPath id="clip0_5080_3690">
<rect width="343" height="306" fill="white" transform="translate(0 84.5)"/>
</clipPath>
</defs>
</svg>
