<svg width="343" height="435" viewBox="0 0 343 435" fill="none" xmlns="http://www.w3.org/2000/svg">
<path d="M329.857 205.85C342.018 208.856 342.018 226.144 329.857 229.15L310.105 234.03C300.231 236.47 297.68 249.319 305.873 255.346L322.107 267.289C332.207 274.719 325.58 290.71 313.185 288.817L293.284 285.779C283.226 284.243 275.941 295.134 281.2 303.844L291.697 321.227C298.172 331.952 285.947 344.178 275.222 337.703L257.834 327.205C249.124 321.947 238.233 329.233 239.769 339.29L242.805 359.166C244.698 371.563 228.704 378.19 221.275 368.087L209.355 351.878C203.33 343.684 190.482 346.232 188.039 356.105L183.142 375.896C180.133 388.054 162.849 388.052 159.844 375.892L154.954 356.108C152.514 346.234 139.667 343.683 133.639 351.876L121.71 368.089C114.278 378.19 98.2856 371.559 100.182 359.163L103.223 339.293C104.762 329.236 93.8712 321.947 85.1601 327.205L67.7495 337.712C57.0237 344.186 44.8004 331.958 51.277 321.235L61.7917 303.825C67.0525 295.114 59.7646 284.22 49.7055 285.759L29.8111 288.802C17.4146 290.698 10.7843 274.704 20.886 267.273L37.1011 255.345C45.2941 249.318 42.7437 236.47 32.8698 234.029L13.1283 229.149C0.967701 226.143 0.967697 208.857 13.1283 205.851L32.8698 200.971C42.7437 198.53 45.2941 185.682 37.1011 179.655L20.8614 167.709C10.7612 160.279 17.3879 144.288 29.7831 146.18L49.7173 149.223C59.7746 150.758 67.0595 139.867 61.8007 131.157L51.3034 113.773C44.8277 103.048 57.0531 90.8218 67.7781 97.2969L85.1661 107.795C93.8757 113.053 104.767 105.767 103.231 95.71L100.195 75.8339C98.3022 63.4373 114.296 56.8104 121.725 66.9131L133.639 83.1144C139.666 91.3094 152.516 88.7595 154.956 78.8843L159.844 59.1078C162.849 46.9484 180.133 46.9459 183.142 59.1045L188.039 78.8952C190.482 88.7682 203.33 91.3158 209.355 83.122L221.275 66.9131C228.704 56.8104 244.698 63.4373 242.805 75.8339L239.769 95.71C238.233 105.767 249.124 113.053 257.834 107.795L275.235 97.2887C285.96 90.8141 298.185 103.038 291.711 113.763L281.199 131.178C275.941 139.889 283.23 150.78 293.287 149.241L313.157 146.201C325.553 144.305 332.184 160.298 322.082 167.73L305.873 179.654C297.68 185.681 300.231 198.53 310.105 200.97L329.857 205.85Z" fill="white" fill-opacity="0.3"/>
<g clip-path="url(#clip0_5080_5006)">
<path d="M53.9295 236.561C57.1254 247.736 76.694 272.094 77.0875 274.89C77.2186 275.821 75.5413 287.059 73.2359 301.643C72.9253 303.59 72.6008 305.585 72.2764 307.635C71.4412 312.908 70.5439 318.458 69.6466 324.014C68.3006 332.318 66.9408 340.628 65.7328 348.007H146.796C146.423 340.821 146.03 332.552 145.705 324.014C145.498 318.589 145.319 313.06 145.195 307.635C145.146 305.619 145.098 303.617 145.07 301.643C144.781 284.822 145.064 269.816 146.582 263.314C150.965 244.547 154.561 202.214 156.957 171.471C159.352 140.721 168.139 98.7884 158.158 97.5874C153.595 97.0421 149.115 109.515 145.595 123.209C147.949 107.734 148.715 92.7833 142.979 92.4037C137.05 92.0103 132.101 107.437 128.615 122.899C131.189 105.622 132.266 87.8688 125.005 90.0017C111.428 93.9982 99.8451 171.471 99.8451 171.471H97.8434C97.4568 146.305 116.225 88.4003 109.833 88C103.448 87.5996 87.0685 118.35 82.2782 141.114C77.4878 163.878 72.6906 201.013 72.6906 201.013C69.4947 195.823 66.6992 172.258 63.1099 161.876C59.5136 151.488 54.7233 149.5 49.926 151.095C45.1357 152.689 50.7267 171.464 51.1271 183.039C51.5205 194.615 50.7267 225.372 53.9226 236.554L53.9295 236.561Z" fill="#F4B6AD"/>
<path d="M97.464 243.525C97.0015 239.597 96.1525 235.718 94.9652 231.95C92.5908 224.44 88.8151 217.303 83.8246 211.201C82.4165 209.482 80.9186 207.839 79.3379 206.286C77.7572 204.733 76.1144 203.194 74.1403 202.159C73.8228 201.993 73.4501 202.442 73.6917 202.718C74.9548 204.174 76.4182 205.417 77.7987 206.756C79.193 208.109 80.5183 209.537 81.7676 211.028C84.2663 214.003 86.4958 217.213 88.4078 220.595C92.1904 227.284 94.7168 234.711 95.7866 242.324C96.0904 244.484 96.2836 246.666 96.3527 248.847C96.3872 249.91 96.401 250.98 96.3872 252.043C96.3803 253.154 96.2905 254.272 96.3872 255.376C96.4424 256.011 97.2983 255.977 97.4432 255.411C97.6986 254.431 97.747 253.409 97.7884 252.395C97.8367 251.414 97.8574 250.441 97.8436 249.461C97.816 247.48 97.6848 245.499 97.4571 243.532L97.464 243.525Z" fill="#EB9C8F"/>
<path d="M146.783 175.35C145.154 174.818 143.456 174.618 141.765 174.377C140.053 174.128 138.334 173.914 136.622 173.693C133.157 173.245 129.692 172.824 126.227 172.423C122.79 172.03 119.352 171.657 115.908 171.312C112.484 170.967 109.06 170.594 105.623 170.394C103.766 170.284 101.909 170.235 100.053 170.304C98.1476 170.38 96.2563 170.56 94.4685 171.271C94.0475 171.436 94.22 172.023 94.648 172.016C96.3115 171.975 97.9612 171.795 99.6247 171.726C101.261 171.65 102.903 171.685 104.539 171.774C107.928 171.961 111.318 172.32 114.7 172.658C121.52 173.334 128.325 174.107 135.124 174.977C137.036 175.219 138.942 175.474 140.854 175.73C142.766 175.992 144.705 176.323 146.645 176.268C147.107 176.254 147.245 175.502 146.79 175.357L146.783 175.35Z" fill="#EB9C8F"/>
<path d="M129.575 120.662C128.463 123.83 127.953 127.185 127.331 130.477C126.71 133.777 126.096 137.076 125.481 140.375C124.253 147.009 123.024 153.642 121.809 160.282L120.774 165.914C120.608 166.819 120.443 167.73 120.277 168.634C120.097 169.593 119.856 170.553 119.87 171.533C119.884 172.175 120.857 172.299 121.085 171.726C121.402 170.932 121.506 170.09 121.664 169.255C121.816 168.447 121.961 167.64 122.113 166.825C122.424 165.141 122.734 163.457 123.045 161.78C123.659 158.48 124.267 155.181 124.874 151.875C126.096 145.242 127.324 138.608 128.519 131.968C129.181 128.269 130.037 124.527 130.141 120.752C130.148 120.455 129.664 120.386 129.568 120.662H129.575Z" fill="#EB9C8F"/>
<path d="M145.858 121.007C144.588 124.251 143.787 127.668 142.952 131.043C142.11 134.446 141.316 137.863 140.563 141.286C139.059 148.099 137.706 154.946 136.491 161.821C136.153 163.754 135.821 165.686 135.504 167.619C135.345 168.606 135.186 169.586 135.028 170.573C134.876 171.547 134.634 172.534 134.717 173.521C134.765 174.128 135.67 174.287 135.904 173.714C136.229 172.906 136.305 172.051 136.443 171.202C136.581 170.346 136.712 169.49 136.857 168.627C137.133 166.915 137.423 165.203 137.72 163.492C138.32 160.04 138.955 156.589 139.625 153.152C140.964 146.305 142.448 139.485 144.029 132.693C144.912 128.89 145.975 125.093 146.527 121.221C146.582 120.842 146.01 120.641 145.865 121.021L145.858 121.007Z" fill="#EB9C8F"/>
<path d="M146.796 348C146.181 336.252 145.526 321.598 145.187 307.635H72.2829C70.1915 320.777 67.7549 335.693 65.7324 348H146.803H146.796Z" fill="#FFC1CF"/>
<path d="M145.705 324.007H69.6465C70.5507 318.451 71.4411 312.901 72.2763 307.628C72.6008 305.578 72.9252 303.583 73.2358 301.636H145.063C145.098 303.611 145.139 305.612 145.188 307.628C145.312 313.053 145.498 318.582 145.699 324.007H145.705Z" fill="white"/>
<path d="M196.425 263.314C197.944 269.816 198.227 284.829 197.937 301.643C197.902 303.617 197.861 305.619 197.813 307.635C197.688 313.06 197.502 318.589 197.302 324.014C196.977 332.552 196.584 340.821 196.211 348.007H277.274C276.06 340.628 274.707 332.318 273.361 324.014C272.456 318.458 271.566 312.908 270.731 307.635C270.406 305.585 270.082 303.59 269.771 301.643C267.473 287.059 265.789 275.821 265.92 274.89C266.313 272.094 285.882 247.736 289.078 236.561C292.281 225.379 291.48 194.621 291.873 183.046C292.274 171.471 297.865 152.696 293.074 151.102C288.277 149.507 283.487 151.495 279.89 161.883C276.301 172.271 273.506 195.829 270.31 201.02C270.31 201.02 265.512 163.878 260.722 141.121C255.932 118.35 239.552 87.5996 233.167 88C226.776 88.3934 245.543 146.305 245.15 171.464H243.148C243.148 171.464 231.573 93.9913 217.996 89.9948C210.734 87.8619 211.804 105.615 214.385 122.892C210.9 107.43 205.951 92.0034 200.021 92.3968C194.285 92.7764 195.052 107.727 197.405 123.202C193.885 109.508 189.405 97.0352 184.843 97.5805C174.862 98.7815 183.649 140.707 186.044 171.464C188.439 202.207 192.035 244.54 196.418 263.307L196.425 263.314Z" fill="#F4B6AD"/>
<path d="M245.53 243.525C245.993 239.597 246.842 235.718 248.029 231.95C250.404 224.44 254.179 217.303 259.17 211.201C260.578 209.482 262.076 207.839 263.656 206.286C265.237 204.733 266.88 203.194 268.854 202.159C269.171 201.993 269.544 202.442 269.303 202.718C268.039 204.174 266.576 205.417 265.196 206.756C263.801 208.109 262.476 209.537 261.227 211.028C258.728 214.003 256.498 217.213 254.586 220.595C250.804 227.284 248.278 234.711 247.208 242.324C246.904 244.484 246.711 246.666 246.642 248.847C246.607 249.91 246.593 250.98 246.607 252.043C246.614 253.154 246.704 254.272 246.607 255.376C246.552 256.011 245.696 255.977 245.551 255.411C245.296 254.431 245.247 253.409 245.206 252.395C245.158 251.414 245.137 250.441 245.151 249.461C245.178 247.48 245.309 245.499 245.537 243.532L245.53 243.525Z" fill="#EB9C8F"/>
<path d="M196.218 175.35C197.847 174.818 199.545 174.618 201.236 174.377C202.948 174.128 204.667 173.914 206.379 173.693C209.844 173.245 213.309 172.824 216.774 172.423C220.212 172.03 223.649 171.657 227.093 171.312C230.517 170.967 233.941 170.594 237.378 170.394C239.235 170.284 241.092 170.235 242.948 170.304C244.854 170.38 246.745 170.56 248.533 171.271C248.954 171.436 248.781 172.023 248.36 172.016C246.696 171.975 245.047 171.795 243.383 171.726C241.747 171.65 240.105 171.685 238.469 171.774C235.08 171.961 231.69 172.32 228.308 172.658C221.488 173.334 214.683 174.107 207.884 174.977C205.972 175.219 204.066 175.474 202.154 175.73C200.242 175.992 198.303 176.323 196.363 176.268C195.901 176.254 195.763 175.502 196.218 175.357V175.35Z" fill="#EB9C8F"/>
<path d="M213.42 120.662C214.531 123.83 215.042 127.185 215.663 130.477C216.284 133.777 216.898 137.076 217.513 140.375C218.741 147.009 219.97 153.642 221.185 160.282L222.22 165.914C222.386 166.819 222.552 167.73 222.717 168.634C222.897 169.593 223.138 170.553 223.125 171.533C223.111 172.175 222.137 172.299 221.91 171.726C221.592 170.932 221.489 170.09 221.33 169.255C221.178 168.447 221.033 167.64 220.881 166.825C220.571 165.141 220.26 163.457 219.949 161.78C219.335 158.48 218.728 155.181 218.12 151.875C216.898 145.242 215.67 138.608 214.476 131.968C213.813 128.269 212.957 124.527 212.854 120.752C212.847 120.455 213.33 120.386 213.426 120.662H213.42Z" fill="#EB9C8F"/>
<path d="M197.136 121.007C198.406 124.251 199.214 127.668 200.042 131.043C200.884 134.446 201.678 137.863 202.43 141.286C203.935 148.099 205.288 154.946 206.503 161.821C206.841 163.754 207.172 165.686 207.49 167.619C207.649 168.606 207.807 169.586 207.966 170.573C208.118 171.547 208.36 172.534 208.277 173.521C208.229 174.128 207.324 174.287 207.09 173.714C206.765 172.906 206.689 172.051 206.551 171.202C206.413 170.346 206.282 169.49 206.137 168.627C205.861 166.915 205.571 165.203 205.274 163.492C204.674 160.04 204.039 156.589 203.369 153.152C202.03 146.305 200.546 139.485 198.965 132.693C198.082 128.89 197.019 125.093 196.467 121.221C196.411 120.842 196.984 120.641 197.129 121.021L197.136 121.007Z" fill="#EB9C8F"/>
<path d="M277.267 348C275.245 335.693 272.815 320.777 270.717 307.635H197.806C197.474 321.598 196.812 336.259 196.197 348H277.267Z" fill="#FFC1CF"/>
<path d="M197.295 324.007H273.354C272.45 318.451 271.559 312.901 270.724 307.628C270.4 305.578 270.075 303.583 269.765 301.636H197.937C197.902 303.611 197.861 305.612 197.813 307.628C197.688 313.053 197.502 318.582 197.302 324.007H197.295Z" fill="white"/>
<path d="M173.226 200.213C173.226 200.213 157.253 171.457 126.503 179.844C95.752 188.23 88.5664 263.308 172.425 304.832C172.425 304.832 232.726 276.878 237.516 218.573C242.306 160.268 179.21 175.847 173.219 200.206L173.226 200.213Z" fill="#F7618C"/>
<path d="M161.319 235.159C161.319 236.374 165.682 243.746 171.3 243.746C176.919 243.746 181.682 236.374 181.682 235.159C181.682 233.945 176.926 240.55 171.3 240.55C165.675 240.55 161.319 233.945 161.319 235.159Z" fill="#B3385A"/>
<path d="M150.731 223.978C150.731 225.192 146.368 232.564 140.75 232.564C135.131 232.564 130.368 225.192 130.368 223.978C130.368 222.763 135.124 229.368 140.75 229.368C146.375 229.368 150.731 222.763 150.731 223.978Z" fill="#B3385A"/>
<path d="M192.263 223.978C192.263 225.192 196.625 232.564 202.244 232.564C207.862 232.564 212.625 225.192 212.625 223.978C212.625 222.763 207.869 229.368 202.244 229.368C196.618 229.368 192.263 222.763 192.263 223.978Z" fill="#B3385A"/>
</g>
<path d="M34.1064 90.7524L37.0413 88.0518L36.7494 92.0222L40.6981 92.6236L37.4042 94.8722L39.3924 98.3198L35.5738 97.1562L34.1064 100.855L32.6428 97.1562L28.8243 98.3198L30.8125 94.8722L27.5186 92.6236L31.4673 92.0222L31.1754 88.0518L34.1064 90.7524Z" fill="white"/>
<path d="M313.138 90.1784L316.073 87.4778L315.781 91.4482L319.729 92.0496L316.435 94.2943L318.424 97.7458L314.605 96.5822L313.138 100.281L311.674 96.5822L307.856 97.7458L309.844 94.2943L306.55 92.0496L310.495 91.4482L310.207 87.4778L313.138 90.1784Z" fill="white"/>
<path d="M74.6753 369.676C74.6753 371.366 73.2986 372.738 71.6023 372.738C69.906 372.738 68.5293 371.366 68.5293 369.676C68.5293 367.985 69.906 366.614 71.6023 366.614C73.2986 366.614 74.6753 367.985 74.6753 369.676Z" fill="white"/>
<path d="M239 392.5C239 393.88 237.88 395 236.5 395C235.12 395 234 393.88 234 392.5C234 391.12 235.12 390 236.5 390C237.88 390 239 391.12 239 392.5Z" fill="white"/>
<path d="M131.586 29.1312C131.586 30.8215 130.21 32.1935 128.513 32.1935C126.817 32.1935 125.44 30.8215 125.44 29.1312C125.44 27.4408 126.817 26.0688 128.513 26.0688C130.21 26.0688 131.586 27.4408 131.586 29.1312Z" fill="white"/>
<path d="M216.849 34.8707C216.849 36.561 215.472 37.933 213.776 37.933C212.08 37.933 210.703 36.561 210.703 34.8707C210.703 33.1803 212.08 31.8083 213.776 31.8083C215.472 31.8083 216.849 33.1803 216.849 34.8707Z" fill="white"/>
<path d="M12.5317 202.784C12.5317 204.475 11.155 205.847 9.45874 205.847C7.76248 205.847 6.38574 204.475 6.38574 202.784C6.38574 201.094 7.76248 199.722 9.45874 199.722C11.155 199.722 12.5317 201.094 12.5317 202.784Z" fill="white"/>
<path d="M333.792 182.311C333.792 184.002 332.416 185.374 330.719 185.374C329.023 185.374 327.646 184.002 327.646 182.311C327.646 180.621 329.023 179.249 330.719 179.249C332.416 179.249 333.792 180.621 333.792 182.311Z" fill="white"/>
<defs>
<clipPath id="clip0_5080_5006">
<rect width="247" height="260" fill="white" transform="translate(48 88)"/>
</clipPath>
</defs>
</svg>
