<svg width="18" height="18" viewBox="0 0 18 18" fill="none" xmlns="http://www.w3.org/2000/svg">
    <path
        d="M18 17C18 17.5523 17.5523 18 17 18H1C0.734784 18 0.48043 17.8946 0.292893 17.7071C0.105357 17.5196 0 17.2652 0 17V0.999999C0 0.447715 0.447715 -4.76837e-07 1 -4.76837e-07C1.55228 -4.76837e-07 2 0.447715 2 1V16H17C17.5523 16 18 16.4477 18 17ZM6.04494 12.3422C5.67154 12.7078 5.07446 12.7078 4.70106 12.3422C4.31629 11.9656 4.3162 11.3463 4.70087 10.9696L8.856 6.9C9.03985 6.72132 9.28612 6.62136 9.5425 6.62136C9.79887 6.62136 10.0451 6.72132 10.229 6.9L12.2462 8.87553C12.3628 8.98971 12.5493 8.98975 12.6659 8.87562L15.955 5.65751C16.3285 5.29211 16.9255 5.29217 17.2989 5.65767C17.6837 6.03436 17.6838 6.65373 17.299 7.03052L13.144 11.1C12.9601 11.2787 12.7139 11.3786 12.4575 11.3786C12.2011 11.3786 11.9549 11.2787 11.771 11.1L9.75286 9.12353C9.63625 9.00932 9.44973 9.0093 9.33309 9.12348L6.04494 12.3422Z"
        fill="#CCCCCC" />
</svg>
