<svg width="101" height="100" viewBox="0 0 101 100" fill="none" xmlns="http://www.w3.org/2000/svg">
<rect x="0.5" width="100" height="100" rx="50" fill="url(#paint0_linear_5214_4374)"/>
<path d="M63.8327 36.6668C63.8327 27.8295 58.5313 23.3335 50.4993 23.3335C42.4673 23.3335 37.166 27.8295 37.166 36.6668M50.4993 50.0002V56.6668" stroke="#CCCCCC" stroke-width="4" stroke-linecap="round"/>
<path d="M50.5 41.8164L49.0813 43.2244C49.2672 43.4114 49.4882 43.5599 49.7317 43.6612C49.9752 43.7625 50.2363 43.8146 50.5 43.8146C50.7637 43.8146 51.0248 43.7625 51.2683 43.6612C51.5118 43.5599 51.7328 43.4114 51.9187 43.2244L50.5 41.8164ZM44.4227 71.3844C40.7693 68.5977 36.8173 65.9044 33.6787 62.483C30.612 59.139 28.5 55.2697 28.5 50.2644H24.5C24.5 56.5604 27.212 61.3497 30.732 65.187C34.1827 68.9497 38.5853 71.9604 41.996 74.5657L44.4227 71.3844ZM28.5 50.267C28.5 45.403 31.34 41.2964 35.26 39.5604C39.0707 37.875 44.1987 38.3177 49.0813 43.227L51.9187 40.4084C45.9987 34.4564 39.132 33.475 33.6413 35.9017C28.26 38.283 24.5 43.8324 24.5 50.267H28.5ZM41.9933 74.5684C43.2227 75.5044 44.5533 76.515 45.9027 77.2777C47.2547 78.043 48.8093 78.6697 50.5 78.6697V74.6697C49.7907 74.6697 48.9453 74.403 47.8733 73.795C46.8013 73.1897 45.6867 72.3524 44.4227 71.387L41.9933 74.5684ZM59.0067 74.5657C62.4147 71.9604 66.8173 68.9524 70.268 65.1897C73.788 61.3524 76.5 56.563 76.5 50.267H72.5C72.5 55.2724 70.388 59.1417 67.3213 62.4857C64.1827 65.907 60.228 68.6004 56.5773 71.387L59.0067 74.5657ZM76.5 50.267C76.5 43.8324 72.74 38.283 67.3587 35.9044C61.868 33.4724 54.9987 34.4564 49.0813 40.4084L51.9187 43.227C56.7987 38.3177 61.9293 37.875 65.74 39.5604C69.66 41.2937 72.5 45.4004 72.5 50.267H76.5ZM56.5773 71.387C55.3107 72.3524 54.1987 73.1897 53.1267 73.795C52.0547 74.403 51.2067 74.6697 50.5 74.6697V78.6697C52.1907 78.6697 53.7453 78.043 55.0973 77.2777C56.4493 76.5124 57.7773 75.5017 59.0067 74.5657L56.5773 71.387Z" fill="#CCCCCC"/>
<defs>
<linearGradient id="paint0_linear_5214_4374" x1="50.5" y1="0" x2="50.5" y2="110.5" gradientUnits="userSpaceOnUse">
<stop stop-color="#E9E9E9"/>
<stop offset="1" stop-color="white" stop-opacity="0"/>
</linearGradient>
</defs>
</svg>
