<svg width="26" height="22" viewBox="0 0 26 22" fill="none" xmlns="http://www.w3.org/2000/svg">
    <path
        d="M2.39648 11.0079V9.35171C2.39657 8.77066 2.85025 8.29986 3.41032 8.29986C3.97039 8.29986 4.42407 8.77066 4.42415 9.35171V11.0079C4.42415 15.9185 8.26005 19.8936 12.9976 19.8944C14.2829 19.8925 15.552 19.5931 16.7117 19.0173C17.8713 18.4415 18.8931 17.6048 19.7019 16.567C20.054 16.1151 20.6925 16.0447 21.1281 16.4101C21.5634 16.7754 21.6313 17.4379 21.2793 17.8898C20.2808 19.1711 19.019 20.2054 17.5869 20.9164C16.1548 21.6273 14.5877 21.9976 13.0003 22H12.9994C7.14294 22 2.39648 17.0833 2.39648 11.0079ZM21.545 12.6436V10.9874C21.5449 6.08262 17.7068 2.10276 12.9706 2.10276H12.9697C11.6819 2.10112 10.41 2.40139 9.24931 2.98086C8.08855 3.56035 7.06881 4.40493 6.26544 5.45073C5.91632 5.90513 5.27814 5.97919 4.84013 5.61701C4.40222 5.25486 4.33007 4.59361 4.67896 4.13919C5.67241 2.84596 6.9338 1.80138 8.36963 1.08455C9.80509 0.36791 11.3778 -0.00181953 12.9706 6.73266e-06C18.8248 6.73266e-06 23.5735 4.91807 23.5735 10.9874V12.6436C23.5735 13.2247 23.1197 13.6953 22.5597 13.6955C21.9996 13.6955 21.545 13.2248 21.545 12.6436Z"
        fill="#ffffff" />
    <path
        d="M24.3458 10.1829C24.7439 9.84592 25.3313 9.86992 25.7027 10.2548C26.0741 10.6398 26.0975 11.2491 25.7729 11.6626L25.7036 11.7429L23.3491 14.1885C22.9591 14.5933 22.3285 14.6002 21.9301 14.2044L19.4684 11.7588C19.0642 11.3568 19.0506 10.6912 19.4378 10.2716C19.8251 9.85202 20.4666 9.83734 20.8712 10.2389L22.6153 11.9718L24.2684 10.2557L24.3458 10.1829ZM2.72666 7.73916C3.11865 7.40593 3.69634 7.42223 4.07004 7.79334L6.53169 10.2389L6.60282 10.3174C6.93622 10.7233 6.92546 11.3335 6.5623 11.727C6.19918 12.1203 5.61246 12.1576 5.20722 11.8298L5.12889 11.7588L3.38394 10.0259L1.73174 11.7429C1.33594 12.1539 0.693709 12.1543 0.297426 11.7438C-0.0988124 11.3332 -0.0991706 10.6669 0.296525 10.2557L2.65103 7.81016L2.72666 7.73916Z"
        fill="#ffffff" />
</svg>
