<svg width="23" height="20" viewBox="0 0 23 20" fill="none" xmlns="http://www.w3.org/2000/svg">
    <path
        d="M1.48875 0.571411C1.24122 0.571411 1.00382 0.661717 0.828787 0.822462C0.653753 0.983208 0.55542 1.20123 0.55542 1.42855V6.57141C0.55542 6.79874 0.653753 7.01676 0.828787 7.1775C1.00382 7.33825 1.24122 7.42855 1.48875 7.42855H7.08875C7.33629 7.42855 7.57369 7.33825 7.74872 7.1775C7.92375 7.01676 8.02209 6.79874 8.02209 6.57141C8.02209 6.34408 7.92375 6.12607 7.74872 5.96532C7.57369 5.80457 7.33629 5.71427 7.08875 5.71427H3.07542C4.64622 3.7437 7.83729 2.2857 11.5221 2.2857C15.3488 2.2857 18.1562 3.9357 20.301 7.0317C20.4339 7.22356 20.6444 7.35908 20.8861 7.40842C21.1279 7.45777 21.381 7.41692 21.59 7.29484C21.7989 7.17276 21.9464 6.97947 22.0002 6.75748C22.0539 6.53549 22.0094 6.30299 21.8765 6.11113C19.4489 2.61141 16.0954 0.571411 11.5221 0.571411C7.91475 0.571411 4.54729 1.80741 2.42209 3.78313V1.42855C2.42209 1.20123 2.32375 0.983208 2.14872 0.822462C1.97369 0.661717 1.73629 0.571411 1.48875 0.571411ZM8.27129 9.1737C8.46803 9.22376 8.64147 9.33167 8.76504 9.48092C8.88861 9.63016 8.95548 9.8125 8.95542 9.99998V18.5714C8.95542 18.7987 8.85709 19.0168 8.68205 19.1775C8.50702 19.3382 8.26962 19.4286 8.02209 19.4286C7.77455 19.4286 7.53715 19.3382 7.36212 19.1775C7.18709 19.0168 7.08875 18.7987 7.08875 18.5714V12.3443C6.66348 12.7074 6.19909 13.03 5.70275 13.3068C5.49037 13.4239 5.23604 13.4587 4.99572 13.4036C4.7554 13.3484 4.54877 13.2079 4.42129 13.0128C4.29381 12.8178 4.25592 12.5842 4.31595 12.3635C4.37599 12.1428 4.52903 11.9531 4.74142 11.836C5.49929 11.4194 6.12275 10.8503 6.56609 10.3703C6.78966 10.1274 6.99753 9.87266 7.18862 9.60741L7.21662 9.56627L7.22222 9.55855C7.32738 9.39808 7.48689 9.27279 7.67634 9.20345C7.86579 9.1341 8.07476 9.12365 8.27129 9.1737ZM12.3602 10.8117C13.0416 9.77713 14.1634 9.14284 15.7109 9.14284C17.2602 9.14284 18.3802 9.77713 19.0616 10.8117C19.7009 11.7828 19.9109 13.0377 19.9109 14.2857C19.9109 15.5337 19.7009 16.7886 19.0616 17.7597C18.3802 18.7943 17.2602 19.4286 15.7109 19.4286C14.1625 19.4286 13.0416 18.7943 12.3602 17.7597C11.7218 16.7886 11.5109 15.5337 11.5109 14.2857C11.5109 13.0377 11.7218 11.7828 12.3602 10.8117ZM13.9581 11.6988C13.5754 12.2791 13.3776 13.1671 13.3776 14.2857C13.3776 15.4043 13.5754 16.2923 13.9581 16.8726C14.2978 17.3886 14.8093 17.7143 15.7109 17.7143C16.6125 17.7143 17.1249 17.3886 17.4646 16.8726C17.8473 16.2923 18.0442 15.4043 18.0442 14.2857C18.0442 13.1671 17.8464 12.2791 17.4646 11.6988C17.1249 11.1828 16.6125 10.8571 15.7109 10.8571C14.8093 10.8571 14.2978 11.1828 13.9581 11.6988Z"
        fill="white" />
</svg>
