<svg width="25" height="25" viewBox="0 0 25 25" fill="none" xmlns="http://www.w3.org/2000/svg">
    <path
        d="M22.9425 21.4375L21.4725 21.0125C21.4594 21.0092 21.448 21.0013 21.4402 20.9903C21.4324 20.9793 21.4288 20.9659 21.43 20.9525C21.53 20.0775 22.0225 15.69 22.0225 15.3525C22.0225 15.095 21.8075 14.68 20.1375 13.7625C19.3725 13.3425 17.7 12.6375 17.26 12.455C16.825 8.21001 14.6275 6.55001 14.385 6.37751C14.2375 6.22501 12.47 4.40751 11.265 3.59251C10.2875 2.93001 8.60498 2.60751 6.12248 2.60751C5.00498 2.60751 4.01248 2.48001 3.51748 2.40501C3.38248 2.38501 3.24498 2.42001 3.13748 2.50251C3.02998 2.58501 2.95998 2.71251 2.94748 2.84751C2.92248 3.10751 3.09748 3.33751 3.35248 3.38501L4.32248 3.56251L4.19498 3.76001C4.07748 3.94251 4.10748 4.18251 4.26498 4.33001C4.42248 4.47751 4.66498 4.49251 4.83998 4.36001L5.78248 3.66001C6.22248 3.81001 7.74498 4.29251 9.06498 4.31001C9.20998 4.43001 9.62248 4.76751 10.1175 5.13751C9.85248 5.46751 9.07498 5.38751 8.79498 5.32751C8.76748 5.32001 8.14248 5.20001 7.53498 5.87001C7.16248 6.27751 7.03748 7.51501 7.58248 8.27001C7.77248 8.53251 8.14498 8.86501 8.82248 8.86501C9.15998 8.86501 9.57748 8.77751 10.08 8.56001C10.25 8.52751 10.415 8.47501 10.57 8.41001L10.4775 8.87501L9.82998 9.76251C9.81748 9.78001 9.80998 9.79751 9.80248 9.81501C9.77498 9.90501 9.09998 12.0375 8.98748 12.5725C8.94498 12.775 8.60998 13.215 8.25498 13.68C7.77998 14.305 7.18998 15.0775 6.75748 15.9275L5.07998 17.305C4.91248 17.4425 4.87498 17.68 4.99748 17.8625C5.00748 17.875 5.01998 17.885 5.02998 17.8975C4.59998 18.3625 3.39998 19.6575 3.19248 19.89C3.08248 20.0125 2.77998 20.21 2.50998 20.385C2.13998 20.625 1.90748 20.78 1.81248 20.91C1.58498 21.2125 1.60498 21.64 1.86748 22C1.91248 22.0625 2.02998 22.2225 2.51498 22.2225C2.68998 22.2225 2.91248 22.2025 3.19748 22.15C3.41248 22.11 3.57498 21.9375 3.60248 21.7175L3.69998 20.9C3.70248 20.8725 3.71998 20.8475 3.74248 20.8325L7.02248 18.815C7.04748 18.8025 9.57248 17.5575 11.2425 17.0375C12.4725 16.655 13.895 15.4675 14.6475 14.7825C15.245 15.0425 17.9425 16.175 19.5625 16.235C19.5825 16.46 19.625 16.9175 19.7175 17.6925C19.8425 18.7425 19.9025 20.86 19.91 21.245C19.69 21.58 19.6875 21.95 19.9025 22.2475C20.0625 22.4675 20.315 22.6 20.555 22.6C20.62 22.6 20.685 22.59 20.745 22.57C20.9425 22.505 21.7 22.4825 22.7875 22.51C23.0875 22.51 23.3325 22.265 23.3325 21.9625C23.3325 21.72 23.17 21.5025 22.9375 21.4375H22.9425ZM12.5375 11.145L12.545 11.17C12.6575 11.5025 12.61 11.76 12.5625 12.0025C12.5425 12.105 12.5225 12.21 12.5125 12.3175C12.465 12.92 11.9475 13.325 11.07 13.8175C10.21 14.3 8.55248 15.985 8.31498 16.2275L7.89248 16.41C8.43748 15.665 9.05498 14.875 9.46748 14.5125C9.47998 14.5 9.49248 14.4875 9.50248 14.47C9.50248 14.47 9.92248 13.8 10.48 12.935C10.935 12.2325 11.5175 10.6925 11.745 10.07C12.2025 10.5075 12.43 10.8525 12.5325 11.1425L12.5375 11.145ZM12.9725 11.3125C13.2525 11.335 13.69 11.365 14.1075 11.365C14.48 11.365 14.8325 11.3425 15.035 11.27C15.5275 11.0975 16.125 10.8175 16.48 10.41C16.515 10.525 16.545 10.6425 16.5775 10.7625C16.4625 10.9575 16.0075 11.6325 15.195 11.825C14.4025 12.0125 13.3725 11.925 12.965 11.8775C12.9925 11.7075 13.005 11.5225 12.97 11.3125H12.9725ZM16.34 9.96251C16.1575 10.3175 15.6575 10.655 14.9125 10.915C14.5475 11.0425 13.4025 10.975 12.8575 10.925C12.705 10.5675 12.3975 10.1425 11.81 9.62001C11.8 9.60751 11.785 9.59501 11.7725 9.58501C11.52 9.36001 11.215 9.12001 10.8675 8.87001L10.9225 8.59751C11.9125 8.58751 12.18 7.96001 12.2475 7.68001C12.3625 7.21001 12.225 6.65251 11.965 6.51751L12.08 6.28501L14.19 6.69751C14.39 6.84751 15.585 7.81001 16.34 9.96251ZM11.4475 6.80001C11.54 6.79001 11.67 6.79251 11.79 6.84751C11.865 6.91001 11.9925 7.32751 11.8525 7.69751C11.7275 8.02251 11.4375 8.19751 11 8.22001L11.025 8.09751C11.3425 7.75501 11.455 7.26251 11.45 6.79751L11.4475 6.80001ZM9.13998 3.93751C7.86248 3.93751 6.34498 3.45501 5.90998 3.30751C5.78748 3.26501 5.65248 3.28751 5.54998 3.36501L4.62248 4.06251C4.59498 4.08251 4.55498 4.08251 4.52998 4.05751C4.50498 4.03251 4.49998 3.99501 4.51748 3.96501L4.79748 3.53251C4.83248 3.48001 4.83748 3.41501 4.81248 3.35751C4.78748 3.30001 4.73498 3.25751 4.67498 3.24751L3.42998 3.02001C3.39977 3.0144 3.37276 2.99769 3.35425 2.97317C3.33575 2.94865 3.32709 2.91809 3.32998 2.88751C3.33248 2.85251 3.34998 2.82251 3.37748 2.80251C3.40498 2.78251 3.43748 2.77251 3.46998 2.77751C3.97248 2.85501 4.98748 2.98251 6.12998 2.98251C8.53498 2.98251 10.15 3.28251 11.0625 3.90251C11.91 4.47751 13.085 5.60251 13.7075 6.22001L12.035 5.89501C11.0375 5.47251 9.28248 3.99751 9.26498 3.98251C9.23129 3.95424 9.18894 3.93836 9.14498 3.93751H9.13998ZM11.72 6.16501L11.5925 6.42501C11.5275 6.42001 11.4675 6.42501 11.415 6.42501L11.4075 6.37001C11.33 5.91751 10.805 5.75501 10.55 5.70251L10.4925 5.40001C10.9075 5.69251 11.3475 5.97751 11.7225 6.16001L11.72 6.16501ZM7.89248 8.05251C7.44998 7.44001 7.56998 6.39751 7.81748 6.12251C7.86498 6.07001 7.90998 6.03001 7.95748 5.99001C7.91248 6.08001 7.87498 6.17751 7.84748 6.28001C7.66248 6.99001 7.94248 7.82501 8.20498 8.13501C8.33998 8.29251 8.54248 8.41251 8.77998 8.49251C8.43498 8.48251 8.11748 8.36501 7.89248 8.05251ZM10.065 8.18501C10.0375 8.18501 10.01 8.18751 9.98498 8.20001H9.97998C9.36248 8.31251 8.72248 8.16001 8.48998 7.88751C8.31498 7.68251 8.05748 6.96251 8.20998 6.37251C8.29248 6.05251 8.48498 5.82751 8.77998 5.70501C8.99498 5.74501 9.67748 5.84251 10.145 5.59251L10.205 5.90501C10.22 5.98501 10.2875 6.04751 10.37 6.05501C10.53 6.07251 10.9925 6.17751 11.0375 6.43751C11.06 6.56501 11.235 7.70751 10.4525 8.06001C10.33 8.11501 10.2 8.15751 10.0675 8.18501H10.065ZM5.32248 17.6L7.03248 16.195C7.05248 16.1775 7.06998 16.1575 7.08248 16.1325C7.49998 15.3 8.08748 14.5275 8.55998 13.9075C8.98998 13.3425 9.30248 12.9325 9.36248 12.65C9.46498 12.1675 10.0775 10.22 10.16 9.95751L10.7025 9.21001C10.9825 9.41501 11.2325 9.61251 11.4475 9.79751C11.2775 10.2675 10.635 12.005 10.1675 12.73C9.66748 13.505 9.27998 14.1225 9.20248 14.245C8.65498 14.735 7.80998 15.8675 7.19248 16.74C7.19248 16.74 7.19248 16.7425 7.18998 16.745C6.94575 17.0882 6.70656 17.4349 6.47248 17.785C6.46498 17.7975 6.44248 17.8025 6.42998 17.805C6.40498 17.805 6.38748 17.7825 6.38748 17.7575L6.40248 17.51C6.40436 17.478 6.398 17.446 6.38399 17.4171C6.36999 17.3882 6.34881 17.3634 6.32248 17.345C6.29081 17.3234 6.25329 17.3121 6.21498 17.3125C6.18998 17.3125 6.16248 17.3175 6.13998 17.3275L5.34998 17.6725C5.3429 17.6726 5.33592 17.6708 5.32977 17.6672C5.32362 17.6637 5.31852 17.6586 5.31498 17.6525C5.30248 17.6325 5.30498 17.61 5.32498 17.595L5.32248 17.6ZM6.84248 18.49L3.54748 20.515C3.42498 20.59 3.34498 20.715 3.32748 20.8575L3.22998 21.6725C3.22678 21.6987 3.21538 21.7232 3.19742 21.7425C3.17946 21.7618 3.15585 21.7749 3.12998 21.78C2.43998 21.9075 2.20248 21.82 2.17248 21.78C2.00998 21.5575 1.98748 21.305 2.11498 21.1375C2.17748 21.0525 2.47748 20.8575 2.71748 20.7025C3.03248 20.4975 3.32998 20.3025 3.47248 20.145C3.69748 19.895 5.14498 18.33 5.41248 18.04C5.44748 18.035 5.47998 18.03 5.51498 18.015L6.00998 17.795C6.02748 17.9975 6.18748 18.165 6.38248 18.1775C6.39248 18.1775 6.41998 18.18 6.42998 18.18C6.56998 18.18 6.69998 18.11 6.77748 17.995C6.89748 17.8175 7.14748 17.445 7.46248 17.0025L7.49998 16.9875C7.60748 17.215 7.81748 17.61 8.10248 17.89C7.37998 18.2175 6.85998 18.475 6.84248 18.485V18.49ZM14.95 14.505C15.08 14.38 15.1625 14.2975 15.1775 14.2825C15.25 14.21 15.25 14.09 15.1775 14.0175C15.105 13.945 14.985 13.945 14.9125 14.0175C14.9075 14.0225 14.7475 14.185 14.4875 14.4225C14.485 14.4225 14.4825 14.4275 14.48 14.43C13.775 15.08 12.3275 16.31 11.1325 16.6825C10.32 16.935 9.31248 17.355 8.47748 17.7275C8.18748 17.505 7.95748 17.08 7.84498 16.8425L8.49748 16.5575C8.51998 16.5475 8.53998 16.535 8.55748 16.515C8.57498 16.495 10.3925 14.6275 11.2525 14.145C12.215 13.605 12.825 13.115 12.885 12.3475C12.8875 12.315 12.8925 12.2825 12.8975 12.2475C13.12 12.2725 13.535 12.315 14.0125 12.315C14.4225 12.315 14.875 12.285 15.28 12.19C15.975 12.025 16.4375 11.58 16.695 11.2525C16.7825 11.67 16.855 12.1175 16.9 12.6025C16.9075 12.6725 16.95 12.7325 17.015 12.7575C17.035 12.765 19.11 13.625 19.9575 14.09C21.6025 14.9925 21.65 15.3175 21.65 15.35C21.65 15.4525 21.5925 16.04 21.5025 16.89C20.89 17.1575 20.2525 17.0325 20.0175 16.9675C19.9475 16.3125 19.9275 16.04 19.9275 16.035C19.92 15.935 19.84 15.86 19.74 15.86H19.7375C18.335 15.885 15.775 14.85 14.95 14.5025V14.505ZM22.785 22.1375C21.605 22.1075 20.88 22.1325 20.63 22.215C20.5 22.2575 20.3175 22.175 20.21 22.0275C20.135 21.9225 20.0375 21.7025 20.2525 21.4125C20.2775 21.38 20.29 21.3375 20.29 21.2975C20.29 21.1975 20.2325 18.8175 20.0925 17.6475C20.08 17.5475 20.07 17.455 20.06 17.365C20.215 17.4 20.43 17.4325 20.675 17.4325C20.92 17.4325 21.1825 17.4 21.455 17.31C21.345 18.335 21.2 19.6375 21.0575 20.91C21.035 21.12 21.165 21.315 21.3675 21.3725L22.8375 21.7975C22.91 21.8175 22.9625 21.8875 22.9625 21.9625C22.9625 22.0575 22.885 22.135 22.785 22.135V22.1375Z"
        fill="#666666" />
</svg>
