<svg width="16" height="18" viewBox="0 0 16 18" fill="none" xmlns="http://www.w3.org/2000/svg">
    <path
        d="M8.51418 0.203679C8.3778 0.0732635 8.19285 0 8 0C7.80715 0 7.6222 0.0732635 7.48582 0.203679L2.57673 4.89938C2.44425 5.03058 2.37094 5.2063 2.3726 5.3887C2.37426 5.5711 2.45074 5.74558 2.58559 5.87456C2.72043 6.00354 2.90284 6.0767 3.09353 6.07829C3.28421 6.07987 3.46793 6.00976 3.60509 5.88304L7.27273 2.37483V11.1304C7.27273 11.3149 7.34935 11.4918 7.48574 11.6223C7.62213 11.7528 7.80712 11.826 8 11.826C8.19288 11.826 8.37787 11.7528 8.51426 11.6223C8.65065 11.4918 8.72727 11.3149 8.72727 11.1304V2.37483L12.3949 5.88304C12.5321 6.00976 12.7158 6.07987 12.9065 6.07829C13.0972 6.0767 13.2796 6.00354 13.4144 5.87456C13.5493 5.74558 13.6257 5.5711 13.6274 5.3887C13.6291 5.2063 13.5558 5.03058 13.4233 4.89938L8.51418 0.203679ZM0.727273 9.6521C0.920157 9.6521 1.10514 9.72539 1.24153 9.85585C1.37792 9.98631 1.45455 10.1633 1.45455 10.3478V15.2174C1.45455 15.5864 1.60779 15.9403 1.88057 16.2012C2.15335 16.4621 2.52332 16.6087 2.90909 16.6087H13.0909C13.4767 16.6087 13.8466 16.4621 14.1194 16.2012C14.3922 15.9403 14.5455 15.5864 14.5455 15.2174V10.3478C14.5455 10.1633 14.6221 9.98631 14.7585 9.85585C14.8949 9.72539 15.0798 9.6521 15.2727 9.6521C15.4656 9.6521 15.6506 9.72539 15.787 9.85585C15.9234 9.98631 16 10.1633 16 10.3478V15.2174C16 15.9554 15.6935 16.6631 15.1479 17.185C14.6024 17.7068 13.8624 18 13.0909 18H2.90909C2.13755 18 1.39761 17.7068 0.852053 17.185C0.306493 16.6631 0 15.9554 0 15.2174V10.3478C0 10.1633 0.0766231 9.98631 0.213013 9.85585C0.349403 9.72539 0.534388 9.6521 0.727273 9.6521Z"
        fill="black" />
</svg>
