<svg width="20" height="21" viewBox="0 0 20 21" fill="none" xmlns="http://www.w3.org/2000/svg">
<path d="M12.9215 3.41389C12.9215 2.83758 12.7501 2.27421 12.429 1.79502C12.1078 1.31583 11.6513 0.942353 11.1173 0.721808C10.5832 0.501263 9.99558 0.443558 9.42864 0.555991C8.86169 0.668424 8.34091 0.945945 7.93217 1.35346C7.52342 1.76097 7.24506 2.28018 7.13229 2.84542C7.01951 3.41066 7.07739 3.99654 7.2986 4.52899C7.51982 5.06143 7.89443 5.51652 8.37506 5.8367C8.8557 6.15688 9.42077 6.32778 9.99883 6.32778C10.774 6.32778 11.5174 6.02078 12.0655 5.47432C12.6136 4.92786 12.9215 4.1867 12.9215 3.41389ZM9.99883 4.87084C9.7098 4.87084 9.42726 4.78539 9.18694 4.6253C8.94663 4.4652 8.75932 4.23766 8.64872 3.97144C8.53811 3.70522 8.50917 3.41227 8.56556 3.12966C8.62194 2.84704 8.76112 2.58743 8.9655 2.38368C9.16987 2.17992 9.43026 2.04116 9.71373 1.98494C9.99721 1.92872 10.291 1.95758 10.5581 2.06785C10.8251 2.17812 11.0533 2.36486 11.2139 2.60446C11.3745 2.84405 11.4602 3.12573 11.4602 3.41389C11.4602 3.8003 11.3062 4.17088 11.0322 4.44411C10.7581 4.71734 10.3864 4.87084 9.99883 4.87084ZM19.4519 7.75832C19.3688 7.35034 19.1453 6.98413 18.8201 6.72294C18.4949 6.46175 18.0885 6.32198 17.6709 6.32778H9.99883H2.32674C1.91033 6.32777 1.50642 6.4696 1.18192 6.72977C0.857428 6.98995 0.631832 7.35284 0.542516 7.75834C0.4532 8.16383 0.505526 8.58757 0.690822 8.95936C0.876118 9.33115 1.18326 9.62866 1.56136 9.80259H1.57324L6.20845 11.8378L4.29043 17.9205C4.08974 18.3613 4.07288 18.8634 4.24357 19.3166C4.41426 19.7697 4.7585 20.1367 5.20058 20.3368C5.64265 20.5369 6.14635 20.5537 6.60085 20.3835C7.05536 20.2133 7.42344 19.8701 7.62413 19.4294L9.99883 16.52L12.3735 19.4294C12.5846 19.8513 12.9515 20.1752 13.3972 20.333C13.8429 20.4907 14.3325 20.47 14.7632 20.2751C15.1938 20.0802 15.5319 19.7265 15.7063 19.2882C15.8806 18.8499 15.8777 18.3612 15.6981 17.9251L13.7801 11.8423L18.4153 9.80715H18.4272C18.8113 9.63903 19.1242 9.34197 19.3115 8.96764C19.4987 8.59332 19.5484 8.1654 19.4519 7.75832ZM17.8262 8.47768L12.6265 10.7596C12.4673 10.8296 12.3384 10.9538 12.2629 11.11C12.1874 11.2663 12.1703 11.4442 12.2146 11.6119L14.3034 18.3549C14.3141 18.3973 14.3291 18.4385 14.3482 18.4778C14.3788 18.5432 14.3893 18.6161 14.3783 18.6874C14.3673 18.7587 14.3354 18.8252 14.2864 18.8783C14.2375 18.9315 14.1739 18.969 14.1036 18.986C14.0332 19.0031 13.9594 18.9989 13.8915 18.9741C13.8007 18.9409 13.7268 18.8731 13.686 18.7856C13.6767 18.7659 13.6664 18.7467 13.6549 18.7282L10.6309 14.7052C10.5666 14.5948 10.4744 14.5032 10.3635 14.4395C10.2526 14.3758 10.1268 14.3423 9.99883 14.3423C9.87082 14.3423 9.74506 14.3758 9.63414 14.4395C9.52321 14.5032 9.43102 14.5948 9.36679 14.7052L6.34545 18.7237C6.33402 18.7422 6.32365 18.7613 6.3144 18.781C6.27364 18.8685 6.19973 18.9363 6.1089 18.9695C6.04096 18.9944 5.96715 18.9985 5.89684 18.9815C5.82653 18.9644 5.76288 18.9269 5.71396 18.8738C5.66504 18.8206 5.63306 18.7542 5.62207 18.6829C5.61108 18.6116 5.62158 18.5386 5.65223 18.4732C5.67133 18.4339 5.68633 18.3927 5.69698 18.3503L7.78306 11.6092C7.82739 11.4415 7.81027 11.2635 7.73476 11.1073C7.65926 10.9511 7.53032 10.8268 7.37114 10.7569L2.17147 8.47768C2.09684 8.44218 2.03649 8.38247 2.0003 8.30834C1.96412 8.2342 1.95423 8.15001 1.97226 8.06955C1.99029 7.98908 2.03517 7.91709 2.09956 7.86536C2.16395 7.81362 2.24405 7.78519 2.32674 7.78473H17.6709C17.7538 7.78458 17.8344 7.81256 17.8992 7.86408C17.9641 7.9156 18.0094 7.98759 18.0278 8.06822C18.0462 8.14884 18.0365 8.23331 18.0004 8.30772C17.9642 8.38214 17.9038 8.44207 17.8289 8.47768H17.8262Z" fill="white"/>
</svg>
