<svg width="19" height="16" viewBox="0 0 19 16" fill="none" xmlns="http://www.w3.org/2000/svg">
    <path
        d="M17.7749 4.5308L15.3494 6.7583C15.1792 6.91466 14.9484 7.00255 14.7077 7.00263C14.467 7.00271 14.2361 6.91497 14.0658 6.75871C13.8956 6.60246 13.7999 6.39048 13.7998 6.16942C13.7997 5.94836 13.8952 5.73633 14.0654 5.57996L15.0599 4.66663H13.7387C12.6657 4.66663 11.6245 5.0012 10.7856 5.61555C9.94671 6.2299 9.35977 7.08763 9.12092 8.04829C9.38657 8.9886 9.98458 9.82132 10.8211 10.4158C11.6577 11.0104 12.6855 11.3331 13.7433 11.3333H15.1062L14.0654 10.3775C13.8952 10.2211 13.7997 10.0091 13.7998 9.788C13.7999 9.56694 13.8956 9.35497 14.0658 9.19871C14.2361 9.04245 14.467 8.95471 14.7077 8.95479C14.9484 8.95487 15.1792 9.04276 15.3494 9.19913L17.9155 11.5558C18.0536 11.6824 18.1434 11.8467 18.1714 12.0241C18.2011 12.1844 18.1794 12.3491 18.109 12.4982C18.0386 12.6474 17.9225 12.7745 17.7749 12.8641L15.3494 15.0916C15.1792 15.248 14.9484 15.3359 14.7077 15.336C14.467 15.336 14.2361 15.2483 14.0658 15.092C13.8956 14.9358 13.7999 14.7238 13.7998 14.5028C13.7997 14.2817 13.8952 14.0697 14.0654 13.9133L15.0599 13H13.7433C12.6386 13.0001 11.5517 12.7453 10.5823 12.259C9.61285 11.7726 8.79208 11.0703 8.19536 10.2166C7.60335 11.0698 6.78661 11.7722 5.8207 12.2587C4.85479 12.7452 3.77089 13.0001 2.66925 13H0.944273C0.703613 13 0.472811 12.9122 0.302639 12.7559C0.132467 12.5996 0.0368652 12.3876 0.0368652 12.1666C0.0368652 11.9456 0.132467 11.7337 0.302639 11.5774C0.472811 11.4211 0.703613 11.3333 0.944273 11.3333H2.66925C3.72278 11.3334 4.74627 11.0109 5.57784 10.4168C6.4094 9.82279 7.00159 8.99109 7.26073 8.05329C7.01526 7.08977 6.4222 6.2308 5.57792 5.61596C4.73365 5.00112 3.68778 4.66655 2.61027 4.66663H0.944273C0.703613 4.66663 0.472811 4.57883 0.302639 4.42255C0.132467 4.26627 0.0368652 4.05431 0.0368652 3.8333C0.0368652 3.61228 0.132467 3.40032 0.302639 3.24404C0.472811 3.08776 0.703613 2.99996 0.944273 2.99996H2.61027C3.72332 2.99994 4.81825 3.25877 5.79296 3.75231C6.76767 4.24586 7.59041 4.95804 8.18447 5.82246C8.77396 4.95829 9.59295 4.24589 10.5645 3.75217C11.5361 3.25845 12.6283 2.99961 13.7387 2.99996H15.1071L14.0654 2.04413C13.9811 1.9667 13.9143 1.8748 13.8687 1.77366C13.8232 1.67252 13.7997 1.56412 13.7998 1.45467C13.7998 1.34521 13.8233 1.23683 13.869 1.13572C13.9146 1.03461 13.9815 0.942749 14.0658 0.865379C14.1501 0.788008 14.2502 0.726645 14.3603 0.684794C14.4705 0.642942 14.5885 0.621421 14.7077 0.62146C14.8269 0.621499 14.9449 0.643096 15.055 0.685019C15.1651 0.726942 15.2651 0.78837 15.3494 0.865795L17.9155 3.22246C18.0536 3.3491 18.1434 3.5134 18.1714 3.6908C18.2011 3.85104 18.1794 4.01576 18.109 4.1649C18.0386 4.31404 17.9225 4.44116 17.7749 4.5308Z"
        fill="white" />
</svg>
