<svg width="19" height="12" viewBox="0 0 19 12" fill="none" xmlns="http://www.w3.org/2000/svg">
    <path
        d="M8.14256 0.437542C8.25786 0.488553 8.35516 0.568389 8.4233 0.667885C8.49143 0.767382 8.52763 0.882506 8.52775 1.00004V11C8.52757 11.1176 8.49126 11.2328 8.42299 11.3323C8.35473 11.4318 8.25728 11.5116 8.14184 11.5625C8.0264 11.6135 7.89767 11.6334 7.77042 11.6202C7.64318 11.6069 7.5226 11.5609 7.42253 11.4875L4.20622 9.12504H1.04164C0.861145 9.12504 0.688043 9.05919 0.560414 8.94198C0.432785 8.82477 0.361084 8.6658 0.361084 8.50004V3.50004C0.361084 3.33428 0.432785 3.17531 0.560414 3.0581C0.688043 2.94089 0.861145 2.87504 1.04164 2.87504H4.20622L7.42253 0.512542C7.52267 0.439027 7.64338 0.392983 7.77077 0.379715C7.89815 0.366446 8.02703 0.386491 8.14256 0.437542ZM17.8568 3.05754C17.9202 3.1156 17.9705 3.18457 18.0048 3.2605C18.0391 3.33643 18.0567 3.41783 18.0567 3.50004C18.0567 3.58225 18.0391 3.66365 18.0048 3.73958C17.9705 3.81552 17.9202 3.88449 17.8568 3.94254L15.6151 6.00004L17.8568 8.05754C17.9846 8.1749 18.0564 8.33407 18.0564 8.50004C18.0564 8.66601 17.9846 8.82518 17.8568 8.94254C17.729 9.0599 17.5557 9.12583 17.375 9.12583C17.1942 9.12583 17.0209 9.0599 16.8931 8.94254L14.6528 6.88379L12.4124 8.94254C12.2846 9.0599 12.1112 9.12583 11.9305 9.12583C11.7498 9.12583 11.5765 9.0599 11.4487 8.94254C11.3209 8.82518 11.2491 8.66601 11.2491 8.50004C11.2491 8.33407 11.3209 8.1749 11.4487 8.05754L13.6904 6.00004L11.4487 3.94254C11.3854 3.88443 11.3352 3.81545 11.301 3.73952C11.2667 3.6636 11.2491 3.58222 11.2491 3.50004C11.2491 3.41786 11.2667 3.33649 11.301 3.26056C11.3352 3.18464 11.3854 3.11565 11.4487 3.05754C11.5765 2.94018 11.7498 2.87425 11.9305 2.87425C12.02 2.87425 12.1086 2.89044 12.1913 2.92189C12.274 2.95334 12.3491 2.99943 12.4124 3.05754L14.6528 5.11629L16.8931 3.05754C16.9564 2.99934 17.0315 2.95316 17.1141 2.92165C17.1968 2.89014 17.2855 2.87393 17.375 2.87393C17.4645 2.87393 17.5531 2.89014 17.6358 2.92165C17.7185 2.95316 17.7936 2.99934 17.8568 3.05754Z"
        fill="white" />
</svg>
