<svg width="16" height="18" viewBox="0 0 16 18" fill="none" xmlns="http://www.w3.org/2000/svg">
<path d="M1.58398 14.7037V3.29629C1.58398 2.39627 2.31359 1.66666 3.21361 1.66666H14.1321C14.4022 1.66666 14.621 1.88554 14.621 2.15555V12.8413" stroke="white" stroke-width="1.5" stroke-linecap="round"/>
<path d="M11.3623 6.37607C11.3623 6.86612 11.1687 7.3368 10.8231 7.68495C10.0275 8.48672 9.25597 9.32272 8.43065 10.0953C8.24153 10.2699 7.94143 10.2635 7.76038 10.0811L5.38275 7.68495C4.66408 6.9607 4.66408 5.79144 5.38275 5.06718C6.10849 4.3358 7.2908 4.3358 8.01648 5.06718L8.10293 5.15427L8.1893 5.06723C8.53731 4.71638 9.0112 4.51849 9.5062 4.51849C10.0013 4.51849 10.4752 4.71636 10.8231 5.06718C11.1687 5.41538 11.3623 5.88604 11.3623 6.37607Z" stroke="white" stroke-width="1.5" stroke-linejoin="round"/>
<path d="M3.21289 13.0741H14.6203" stroke="white" stroke-width="1.5" stroke-linecap="round"/>
<path d="M3.21289 16.3333H14.6203" stroke="white" stroke-width="1.5" stroke-linecap="round"/>
<path d="M3.21361 16.3333C2.31359 16.3333 1.58398 15.6037 1.58398 14.7037C1.58398 13.8037 2.31359 13.0741 3.21361 13.0741" stroke="white" stroke-width="1.5" stroke-linecap="round" stroke-linejoin="round"/>
</svg>
